<svg width="60" height="60" viewBox="0 0 60 60" fill="none" xmlns="http://www.w3.org/2000/svg">
<g filter="url(#filter0_bi_25_430)">
<rect width="60" height="60" rx="30" fill="black" fill-opacity="0.24"/>
<rect x="0.5" y="0.5" width="59" height="59" rx="29.5" stroke="url(#paint0_linear_25_430)" stroke-opacity="0.4"/>
</g>
<path d="M45.505 39.665C45.505 39.665 44.64 38.74 43.683 38.826C42.727 38.913 26.289 42.223 26.289 42.223C26.289 42.223 25.919 43.481 26.026 44.077C26.145 44.749 45.764 40.049 45.505 39.665Z" fill="#FFDD95"/>
<path d="M45.505 39.665C38.947 40.532 32.459 42.051 26.025 44.077C26.139 44.707 26.131 45.348 26.025 46C28.815 46.024 42.415 42.925 45.691 42.003C45.7826 41.9785 45.8631 41.9236 45.9193 41.8472C45.9754 41.7709 46.0039 41.6777 46 41.583C45.974 40.994 45.83 40.11 45.505 39.665Z" fill="#FFB961"/>
<path d="M26.2891 42.223C26.2891 42.223 25.9191 43.481 26.0261 44.077L25.7261 44.47L14.4981 39.187L14.4761 38.892C14.4761 38.892 15.7301 37.981 17.3501 37.757C18.9701 37.533 26.2891 42.223 26.2891 42.223Z" fill="#FFDD95"/>
<path d="M26.026 46C26.135 45.3636 26.135 44.7134 26.026 44.077C22.2136 42.2662 18.3627 40.5374 14.476 38.892C14.096 39.212 13.952 40.078 14.014 40.684C14.2 41.626 24.59 46 26.026 46Z" fill="#F3A250"/>
<path d="M26.036 42.905C31.929 41.21 37.794 39.98 43.966 39.265C44.076 39.255 44.156 39.145 44.126 39.045C43.886 38.145 43.686 37.225 43.506 36.285C43.256 34.915 43.076 33.515 42.996 32.055C43.102 32.04 39.861 32.5 26.766 34.365C26.766 34.365 24.126 42.035 26.036 42.905Z" fill="#FFD475"/>
<path d="M30.046 33.895C31.415 38.622 39.482 40.025 43.506 36.285C43.256 34.915 43.076 33.515 42.996 32.055L30.046 33.895Z" fill="#FFDE9B"/>
<path d="M28.2261 42.295C32.9061 41.035 37.4561 40.135 41.8861 39.525C42.0861 36.245 40.8861 32.685 40.8861 32.685L39.8261 32.505L29.7661 33.935C29.1961 34.855 28.8361 36.135 28.6161 37.445C28.5461 37.785 28.4961 38.125 28.4661 38.465C28.3161 39.7363 28.236 41.0149 28.2261 42.295Z" fill="#AA6256"/>
<path d="M28.4661 38.465C28.4961 38.125 28.5461 37.785 28.6161 37.445C28.8261 36.2 29.1671 34.991 29.6901 34.083C32.1661 39.086 38.3951 39.411 41.8051 36.996C41.8951 37.814 41.9381 38.678 41.8861 39.526C37.4561 40.136 32.9061 41.036 28.2261 42.296C28.2361 41.446 28.2761 39.985 28.4661 38.465Z" fill="#8A4852"/>
<path d="M28.4661 38.465C33.2591 37.859 36.8641 37.178 41.2161 36.305L41.0161 35.325C40.7161 35.425 34.2341 36.712 28.6161 37.445C28.5461 37.785 28.4961 38.125 28.4661 38.465Z" fill="#8A4852"/>
<path d="M28.4661 38.465C30.1261 38.255 31.8461 38.005 33.4661 37.745C32.9661 37.525 32.5061 37.255 32.0861 36.945C30.9361 37.125 29.7661 37.295 28.6161 37.445C28.5461 37.785 28.4961 38.125 28.4661 38.465Z" fill="#51383C"/>
<path d="M39.942 38.588C40.752 38.874 41.477 39.266 41.882 39.504C42.084 36.232 40.882 32.687 40.882 32.687L39.823 32.508L39.193 32.603C39.538 33.853 40.085 36.292 39.943 38.588H39.942Z" fill="#FFB961"/>
<path d="M28.223 42.3C33.324 41.728 37.775 40.667 41.882 39.528V39.504C41.477 39.266 40.752 38.874 39.942 38.588H39.93C36.0052 39.1291 32.1128 39.8836 28.27 40.848C28.235 41.42 28.223 41.919 28.223 42.3Z" fill="#FFDD95"/>
<path d="M16.145 38.5C16.1315 38.5591 16.1382 38.621 16.1639 38.6759C16.1896 38.7308 16.2329 38.7755 16.287 38.803C18.643 40.003 21.17 41.06 23.666 42.014C24.439 42.312 25.224 42.609 26.034 42.907C26.034 42.907 26.878 37.029 26.771 34.364L17.598 32.056L16.145 38.5Z" fill="#FFB961"/>
<path d="M17.606 39.455C19.446 40.325 21.486 41.185 23.666 42.015C24.443 39.724 25.136 36.332 24.806 33.865L19.296 32.485C18.896 33.495 17.916 36.195 17.606 39.455Z" fill="#8A4852"/>
<path d="M18.366 36.295C18.466 36.329 21.636 37.156 24.586 38.425C24.636 38.095 24.696 37.755 24.736 37.405C22.466 36.441 19.361 35.501 18.616 35.335L18.366 36.295Z" fill="#51383C"/>
<path d="M17.61 39.409V39.457C19.307 40.389 21.335 41.255 23.666 42.015C23.749 41.753 23.892 41.325 24.035 40.789C22.4996 40.1913 20.9838 39.5443 19.49 38.849C19.433 38.8201 19.3826 38.78 19.3416 38.731C19.3007 38.682 19.2702 38.6252 19.252 38.564C18.383 38.885 17.836 39.242 17.61 39.409Z" fill="#FFDD95"/>
<path d="M19.252 38.564C19.2267 38.5041 19.2184 38.4383 19.228 38.374C19.478 36.054 20.048 34.054 20.501 32.782L19.299 32.484C18.895 33.496 17.884 36.064 17.609 39.409C17.836 39.242 18.383 38.885 19.252 38.564Z" fill="#F3A250"/>
<path d="M33.946 16.565C33.946 16.565 26.544 15.935 24.116 17.149C21.688 18.363 26.841 21.247 26.658 24.567C26.475 27.887 25.445 29.512 28.993 30.519C32.541 31.526 43.37 27.085 43.37 27.085C41.497 22.031 40.655 15.718 33.946 16.565Z" fill="#AA6256"/>
<path d="M27.417 16.48C27.707 20.93 30.718 25.167 36.457 25.167C38.791 25.167 40.668 24.465 42.101 23.338C42.528 24.582 42.92 25.869 43.371 27.085C43.371 27.085 32.541 31.526 28.993 30.519C25.445 29.512 26.475 27.886 26.658 24.567C26.888 20.39 18.878 17.099 27.417 16.48Z" fill="#8A4852"/>
<path d="M23.3361 20.485L23.6961 21.415C25.1922 20.8393 26.7344 20.391 28.3061 20.075C35.4861 18.585 41.7261 19.935 41.7961 19.955L42.0161 18.975C41.6961 18.905 35.3461 17.535 27.9361 19.125C26.2941 19.465 24.8481 19.917 23.3361 20.485ZM24.8361 23.915L25.0961 24.885C27.2501 24.305 29.1301 23.952 31.2661 23.665C37.7961 22.815 43.2261 23.335 43.3061 23.335L43.4061 22.345C43.3261 22.335 37.2761 21.755 30.2061 22.805C28.5531 23.039 26.5461 23.435 24.8361 23.915Z" fill="#8A4852"/>
<path d="M30.206 22.805C29.006 22.975 27.776 23.205 26.536 23.485C26.626 23.815 26.676 24.155 26.656 24.495C28.216 24.125 29.776 23.865 31.266 23.665C30.886 23.405 30.526 23.115 30.206 22.805ZM24.536 20.055C24.736 20.325 24.956 20.605 25.166 20.895C26.216 20.555 27.266 20.285 28.306 20.075C28.156 19.765 28.036 19.455 27.936 19.125C26.826 19.355 25.686 19.665 24.536 20.055ZM26.061 29.032C34.911 26.419 44.138 27.132 44.231 27.138L44.311 26.142C44.218 26.133 34.803 25.41 25.778 28.072L26.061 29.032Z" fill="#51383C"/>
<path d="M43.8651 29.265C43.9451 30.159 43.8971 31.027 43.6801 31.861C43.6321 32.044 43.4781 32.171 43.3011 32.24C37.8131 34.359 31.8431 35.218 26.2891 34.85V31.346L43.8651 29.265Z" fill="#FFB961"/>
<path d="M26.289 31.346V34.85C23.019 34.04 19.921 33.114 17.022 32.058C16.9278 32.0238 16.8449 31.9642 16.7825 31.8858C16.72 31.8075 16.6804 31.7134 16.668 31.614C16.5736 30.8348 16.5451 30.049 16.583 29.265L26.289 31.346ZM32.146 28.325C32.146 28.928 31.356 29.83 29.316 29.455C27.278 29.081 33.293 31.671 33.653 30.019C32.685 29.439 32.146 28.325 32.146 28.325Z" fill="#F3A250"/>
<path d="M16.756 15.555L23.106 19.575L24.876 31.735C31.776 33.415 38.276 32.685 44.386 29.435C44.896 29.175 45.236 28.655 45.286 28.085C45.436 26.425 45.456 24.885 45.336 23.485C44.696 15.365 39.936 11.825 35.036 15.375C35.556 15.045 36.196 14.835 36.936 14.835C41.296 14.835 42.046 21.605 42.146 25.065C42.176 26.255 42.136 27.045 42.136 27.045C38.096 29.655 34.216 30.745 29.316 29.455C28.906 29.345 28.606 28.975 28.576 28.545C28.456 26.505 27.946 20.565 25.946 17.495C21.776 11.045 16.756 15.555 16.756 15.555Z" fill="#FFD475"/>
<path d="M45.042 21.35C44.312 22.132 43.251 22.805 42.059 23.48C41.771 19.874 40.699 14.835 36.936 14.835C36.196 14.835 35.556 15.045 35.036 15.375C39.479 12.155 43.796 14.781 45.042 21.35Z" fill="#FFDE9B"/>
<path d="M34.4561 29.785V29.975C37.2361 29.835 39.8861 28.995 42.3161 27.505C42.3861 27.465 42.4461 27.415 42.4961 27.355C41.8161 27.315 41.1961 27.205 40.8361 27.125C40.7461 27.325 40.5961 27.495 40.3961 27.615C38.5742 28.714 36.5573 29.4508 34.4561 29.785Z" fill="#F3A250"/>
<path d="M40.966 26.555C40.966 26.755 40.926 26.945 40.836 27.125C41.196 27.205 41.816 27.315 42.496 27.355C42.646 27.195 42.726 26.985 42.716 26.765C42.656 24.485 42.106 14.835 36.936 14.835C36.196 14.835 35.556 15.045 35.036 15.375C34.636 15.675 34.216 16.125 33.946 16.565C40.076 16.485 40.886 23.945 40.966 26.555ZM16.077 29.457L24.646 31.702C25.216 31.852 25.758 31.434 25.736 30.847C25.601 27.009 25.338 15.944 18.655 15.037C13.939 14.397 14.685 25.151 15.395 28.685C15.468 29.052 15.715 29.362 16.077 29.457Z" fill="#FFB961"/>
<path d="M16.716 27.925C16.746 28.165 16.916 28.355 17.146 28.405L22.586 29.665C22.946 29.745 23.286 29.465 23.276 29.095C23.256 28.565 23.196 27.775 23.066 26.855C23.026 26.505 22.966 26.135 22.896 25.755C22.379 22.792 21.074 18.475 18.206 17.525C16.106 16.825 16.446 25.905 16.716 27.925Z" fill="#8A4852"/>
<path d="M17.156 21.425L22.266 23.065C22.146 22.665 22.006 22.265 21.856 21.885L17.466 20.475L17.156 21.425ZM17.156 24.965L23.066 26.855C23.026 26.505 22.966 26.135 22.896 25.755L17.466 24.015L17.156 24.965Z" fill="#51383C"/>
<path d="M16.908 28.272C17.081 28.446 16.766 28.294 22.583 29.665C22.6674 29.6836 22.7549 29.6827 22.8389 29.6624C22.9229 29.642 23.0012 29.6028 23.0677 29.5476C23.1343 29.4924 23.1873 29.4228 23.2229 29.344C23.2585 29.2653 23.2756 29.1794 23.273 29.093C23.273 29.022 23.273 28.939 23.261 28.867L18.954 27.88C18.8846 27.8666 18.819 27.8383 18.7615 27.7973C18.7041 27.7562 18.6561 27.7032 18.621 27.642L16.908 28.272Z" fill="#DD8536"/>
<path d="M16.7171 27.927C16.7212 27.995 16.7404 28.0612 16.7733 28.1209C16.8061 28.1805 16.8518 28.2321 16.9071 28.272L18.6211 27.642C18.5703 27.5717 18.5377 27.4899 18.5261 27.404C18.3121 25.834 18.0741 20.099 18.9301 17.862C18.7037 17.7203 18.4601 17.6083 18.2051 17.529C16.1111 16.827 16.4441 25.905 16.7171 27.927Z" fill="#F3A250"/>
<path opacity="0.8" d="M42.335 19.588C42.692 20.855 42.722 21.905 43.23 21.788C43.732 21.674 43.869 20.541 43.512 19.274C43.154 18.006 42.407 17.249 41.904 17.364C41.397 17.479 41.978 18.32 42.335 19.588ZM40.967 15.753C40.76 15.909 40.77 16.268 40.981 16.554C41.191 16.84 41.526 16.946 41.733 16.791C41.935 16.638 41.929 16.283 41.718 15.997C41.508 15.711 41.169 15.6 40.967 15.753Z" fill="white"/>
<path d="M24.958 23.974C24.9516 23.9501 24.9385 23.9285 24.9203 23.9118C24.9021 23.8951 24.8794 23.8839 24.8551 23.8796C24.8307 23.8753 24.8056 23.8781 24.7828 23.8875C24.7599 23.897 24.7402 23.9128 24.726 23.933C23.97 25.02 23.855 25.077 24.569 23.836C24.5814 23.8146 24.5874 23.7901 24.5863 23.7654C24.5852 23.7407 24.5771 23.7168 24.5629 23.6966C24.5488 23.6763 24.5291 23.6605 24.5063 23.651C24.4835 23.6415 24.4584 23.6388 24.434 23.643C21.582 24.161 21.622 24.024 24.364 23.32C24.3876 23.3133 24.4088 23.3001 24.4252 23.2819C24.4416 23.2637 24.4526 23.2412 24.4567 23.2171C24.4609 23.193 24.4582 23.1681 24.4489 23.1455C24.4395 23.1228 24.424 23.1032 24.404 23.089C23.274 22.3 23.301 22.239 24.503 22.935C24.5244 22.9475 24.5489 22.9536 24.5736 22.9526C24.5983 22.9516 24.6222 22.9434 24.6424 22.9292C24.6627 22.915 24.6784 22.8952 24.6877 22.8723C24.697 22.8494 24.6996 22.8243 24.695 22.8C24.165 19.962 24.295 19.971 25.018 22.731C25.0243 22.755 25.0373 22.7766 25.0555 22.7935C25.0737 22.8103 25.0963 22.8216 25.1206 22.826C25.145 22.8304 25.1701 22.8278 25.1931 22.8184C25.216 22.809 25.2358 22.7933 25.25 22.773C26.057 21.613 26.076 21.713 25.403 22.87C25.3907 22.8914 25.3847 22.9159 25.3858 22.9406C25.3869 22.9653 25.395 22.9892 25.4091 23.0095C25.4233 23.0297 25.443 23.0455 25.4658 23.055C25.4886 23.0645 25.5137 23.0673 25.538 23.063C26.641 22.863 27.657 22.7 27.672 22.766C27.687 22.834 26.695 23.108 25.609 23.386C25.5852 23.3925 25.5637 23.4057 25.5471 23.424C25.5305 23.4423 25.5195 23.465 25.5153 23.4893C25.5111 23.5136 25.5139 23.5387 25.5234 23.5615C25.533 23.5843 25.5488 23.6039 25.569 23.618C26.754 24.449 26.615 24.442 25.474 23.772C25.4528 23.7593 25.4283 23.753 25.4035 23.7539C25.3787 23.7547 25.3547 23.7627 25.3344 23.7768C25.314 23.791 25.2981 23.8107 25.2887 23.8336C25.2792 23.8565 25.2766 23.8816 25.281 23.906C25.804 26.716 25.689 26.769 24.958 23.974Z" fill="white"/>
<path opacity="0.8" d="M30.988 30.484C29.858 30.282 29.022 29.907 28.92 30.349C28.819 30.787 29.656 31.325 30.787 31.527C31.917 31.729 32.797 31.431 32.898 30.993C33 30.55 32.119 30.686 30.988 30.484ZM34.519 30.87C34.475 30.648 34.189 30.519 33.885 30.576C33.58 30.632 33.369 30.854 33.413 31.076C33.456 31.293 33.736 31.423 34.041 31.366C34.346 31.309 34.561 31.086 34.519 30.87Z" fill="white"/>
<path d="M39.468 31.126C39.503 31.461 39.604 33.087 38.673 34.72C37.679 36.434 36.763 35.909 36.553 35.528C36.541 35.508 36.512 35.514 36.512 35.541C36.515 35.721 36.538 36.079 36.67 36.252C36.856 36.499 36.43 37.632 34.542 36.896C32.989 36.304 32.664 35.548 32.593 35.291C32.566 35.178 32.596 35.163 32.775 34.692C32.795 34.639 32.737 34.593 32.695 34.626C32.539 34.74 32.293 34.888 32.095 34.87C31.776 34.839 31.548 34.095 31.548 33.384C31.547 32.913 31.511 32.682 31.488 32.579C31.468 32.479 31.363 32.481 31.21 32.446C31.1915 32.4415 31.1743 32.4326 31.1599 32.4201C31.1456 32.4075 31.1345 32.3916 31.1276 32.3738C31.1207 32.356 31.1182 32.3368 31.1204 32.3179C31.1226 32.2989 31.1293 32.2808 31.14 32.265C31.383 31.921 31.676 31.567 31.974 31.209C31.9824 31.1986 31.9929 31.19 32.0049 31.1839C32.0168 31.1778 32.0299 31.1743 32.0432 31.1735C32.0566 31.1728 32.07 31.1748 32.0825 31.1796C32.0951 31.1843 32.1065 31.1916 32.116 31.201C32.481 31.557 32.805 31.882 33.116 32.202C33.1276 32.2141 33.1365 32.2284 33.1422 32.2441C33.1479 32.2598 33.1502 32.2765 33.1491 32.2931C33.148 32.3098 33.1434 32.326 33.1356 32.3408C33.1278 32.3556 33.1171 32.3686 33.104 32.379L32.95 32.502C32.9298 32.5175 32.9154 32.5393 32.9091 32.564C32.9027 32.5886 32.9048 32.6147 32.915 32.638C33.011 32.873 33.335 33.55 34.074 33.908C34.116 33.93 34.166 33.902 34.174 33.851C34.236 33.469 34.441 32.062 34.866 31.521C35.363 30.898 36.946 30.871 36.946 30.871C36.944 30.869 37.362 31.726 37.196 32.897C37.183 33.001 37.264 33.087 37.355 33.061C37.667 32.979 38.27 32.665 38.259 31.551C38.259 31.547 38.259 31.539 38.257 31.534C38.2529 31.4996 38.2357 31.4681 38.209 31.446C38.14 31.391 38.0776 31.3283 38.023 31.259C37.94 31.151 37.988 31.189 38.663 29.93C38.689 29.883 38.742 29.865 38.785 29.89C39.26 30.16 39.514 30.517 39.608 30.618C39.753 30.814 39.444 30.942 39.468 31.126Z" fill="#DD8536"/>
<path d="M37.843 35.804L37.754 36.079L37.099 35.901C37.0943 35.6466 37.0879 35.3923 37.08 35.138L37.417 35.093C37.561 35.328 37.703 35.565 37.843 35.803V35.804ZM39.473 29.996L39.313 30.418C39.1259 30.2374 38.9375 30.058 38.748 29.88L39.473 29.996Z" fill="#DD8536"/>
<path d="M32.779 31.296C32.701 31.476 32.622 31.654 32.542 31.832C32.384 31.611 32.226 31.392 32.066 31.175L32.779 31.296ZM39.37 31.121C39.3426 31.3085 39.3142 31.4958 39.285 31.683L38.257 31.534C38.2529 31.4996 38.2357 31.4681 38.209 31.446C38.1401 31.391 38.0777 31.3283 38.023 31.259C38.0068 31.2369 37.9973 31.2106 37.9959 31.1832C37.9945 31.1558 38.0011 31.1286 38.015 31.105L38.208 30.762C38.678 30.818 38.46 30.747 39.37 31.121Z" fill="#F3A250"/>
<path d="M39.593 30.6C39.3666 30.85 39.1379 31.098 38.907 31.344C38.605 31.279 38.302 31.215 37.999 31.152C38.014 31.052 37.966 31.232 38.663 29.93C38.689 29.883 38.742 29.865 38.785 29.89C39.1 30.07 39.364 30.314 39.593 30.6Z" fill="#DD8536"/>
<path d="M33.826 34.446C33.723 34.78 33.616 35.113 33.508 35.444C33.2 35.364 32.893 35.286 32.586 35.208C32.591 35.154 32.607 35.128 32.724 34.826C33.092 34.703 33.459 34.576 33.826 34.446ZM32.89 31.972C32.571 32.179 32.25 32.382 31.929 32.582L31.21 32.446C31.1915 32.4415 31.1743 32.4326 31.1599 32.4201C31.1456 32.4075 31.1345 32.3916 31.1276 32.3738C31.1207 32.3561 31.1182 32.3369 31.1204 32.3179C31.1226 32.2989 31.1293 32.2808 31.14 32.265C31.383 31.921 31.676 31.567 31.974 31.209C31.9824 31.1986 31.9929 31.1901 32.0049 31.1839C32.0168 31.1778 32.0299 31.1743 32.0432 31.1735C32.0566 31.1728 32.07 31.1748 32.0825 31.1796C32.0951 31.1843 32.1065 31.1916 32.116 31.201C32.376 31.454 32.634 31.712 32.89 31.972ZM35.96 31.757C33.786 31.681 32.748 30.035 32.738 30.044C33.8767 29.341 34.99 28.5979 36.076 27.816C36.131 27.772 38.201 31.796 35.96 31.757ZM35.052 26.933C35.078 26.943 36.285 24.204 36.258 24.186C36.254 24.188 37.918 24.371 38.965 25.654C39.998 26.958 35.059 26.907 35.052 26.933Z" fill="#F3A250"/>
<path d="M38.791 27.115C38.939 29.179 37.387 31.041 35.527 31.234C33.664 31.43 32.229 30.104 32.146 28.309C32.067 26.513 33.324 24.713 35.121 24.251C36.915 23.787 38.644 25.051 38.791 27.115Z" fill="#F3A250"/>
<path d="M32.082 34.868L32.806 35.04C32.841 34.784 32.874 34.527 32.906 34.27C32.633 34.318 32.361 34.364 32.088 34.41L32.082 34.868Z" fill="#DD8536"/>
<path d="M37.666 30.996C37.666 30.994 38.083 31.863 37.915 33.049C37.899 33.154 37.98 33.241 38.071 33.216C38.384 33.131 38.987 32.816 38.979 31.689C38.9789 31.6686 38.9744 31.6484 38.9658 31.63C38.9572 31.6115 38.9446 31.5951 38.929 31.582C38.8604 31.5258 38.7984 31.462 38.744 31.392C38.662 31.285 38.704 31.33 39.387 30.048C39.413 30.001 39.467 29.982 39.51 30.007C39.831 30.194 40.1 30.448 40.33 30.747C40.429 30.876 40.311 31 40.22 31.135C40.1952 31.1717 40.1842 31.216 40.189 31.26C40.225 31.6 40.32 33.245 39.385 34.895C38.387 36.628 37.47 36.098 37.263 35.712C37.251 35.69 37.222 35.699 37.223 35.725C37.225 35.908 37.246 36.269 37.377 36.444C37.562 36.694 37.132 37.84 35.245 37.094C33.696 36.496 33.373 35.727 33.304 35.469C33.274 35.356 33.318 35.306 33.487 34.862C33.507 34.809 33.45 34.763 33.406 34.796C33.251 34.911 33.005 35.059 32.806 35.04C32.486 35.01 32.261 34.254 32.263 33.534C32.264 33.058 32.229 32.824 32.206 32.719C32.183 32.619 32.086 32.621 31.928 32.583C31.9094 32.5784 31.8922 32.5694 31.8779 32.5567C31.8635 32.544 31.8524 32.5281 31.8456 32.5102C31.8387 32.4924 31.8362 32.4731 31.8384 32.4541C31.8406 32.4351 31.8473 32.4169 31.858 32.401C32.102 32.053 32.398 31.693 32.694 31.331C32.7024 31.3206 32.7129 31.312 32.7248 31.3059C32.7368 31.2998 32.7498 31.2963 32.7632 31.2955C32.7766 31.2948 32.79 31.2968 32.8025 31.3016C32.815 31.3063 32.8264 31.3136 32.836 31.323C33.172 31.655 33.505 31.994 33.834 32.339C33.8455 32.3512 33.8544 32.3657 33.8601 32.3815C33.8658 32.3973 33.8682 32.4141 33.8672 32.4309C33.8662 32.4476 33.8617 32.464 33.8541 32.479C33.8465 32.494 33.8359 32.5073 33.823 32.518L33.669 32.642C33.6486 32.6581 33.634 32.6803 33.6273 32.7053C33.6207 32.7304 33.6223 32.7569 33.632 32.781C33.728 33.019 34.049 33.705 34.788 34.071C34.83 34.091 34.88 34.061 34.888 34.012C34.951 33.625 35.162 32.198 35.586 31.652C36.22 30.004 36.914 30.044 37.666 30.996Z" fill="#FFDD95"/>
<path d="M39.669 27.59C39.796 29.683 38.22 31.558 36.359 31.738C34.492 31.923 33.076 30.564 33.01 28.74C32.954 26.914 34.226 25.102 36.03 24.65C37.826 24.198 39.546 25.495 39.669 27.59Z" fill="#FFDD95"/>
<path d="M39.28 27.618C39.368 29.494 37.974 31.197 36.33 31.393C34.682 31.589 33.438 30.38 33.402 28.719C33.37 27.059 34.52 25.402 36.114 24.989C37.702 24.579 39.191 25.741 39.279 27.618H39.28Z" fill="#FFB961"/>
<path d="M33.606 35.406L33.77 34.979C33.904 34.631 33.523 34.317 33.231 34.535C33.037 34.679 32.908 34.72 32.851 34.725C32.741 34.635 32.566 34.142 32.568 33.535C32.57 33.045 32.533 32.782 32.504 32.649C32.4905 32.5854 32.4625 32.5257 32.4223 32.4745C32.3821 32.4234 32.3306 32.3821 32.272 32.354C32.432 32.141 32.608 31.923 32.783 31.709C33.012 31.939 33.238 32.17 33.463 32.405C33.3961 32.4673 33.3495 32.5484 33.3294 32.6376C33.3092 32.7268 33.3164 32.82 33.35 32.905C33.724 33.835 34.524 34.385 34.787 34.405C34.981 34.419 35.159 34.268 35.19 34.061C35.307 33.283 35.51 32.231 35.817 31.868C35.839 31.841 35.892 31.795 35.911 31.765C35.971 31.668 36.087 31.397 35.633 31.333C35.871 30.813 36.478 30.671 36.708 30.673C36.834 30.675 37.257 30.743 37.425 30.9C37.353 30.977 37.341 31.037 37.41 31.19C37.474 31.343 37.745 32.069 37.613 32.998C37.564 33.342 37.833 33.634 38.138 33.554C38.478 33.463 39.294 33.091 39.285 31.682C39.283 31.49 39.201 31.379 39.079 31.272C39.235 30.994 39.389 30.714 39.54 30.432C39.706 30.552 39.861 30.696 40.009 30.872C39.9138 30.9944 39.8694 31.1487 39.885 31.303C40.148 33.762 38.247 36.853 37.447 35.383C37.166 35.34 37.154 35.322 36.921 35.564C36.912 35.899 36.925 36.327 37.107 36.62C37.0902 36.6834 37.0567 36.7411 37.01 36.787C36.357 37.475 33.916 36.382 33.606 35.406Z" fill="#FFB961"/>
<path d="M37.253 26.47C37.441 26.844 37.423 27.365 37.144 27.79C37.1299 27.8104 37.1245 27.8356 37.129 27.86C37.215 28.381 37.292 28.904 37.359 29.428C37.3658 29.4842 37.3512 29.5409 37.318 29.5867C37.2848 29.6325 37.2355 29.6641 37.18 29.675C36.652 29.798 36.123 29.918 35.593 30.035C35.5907 30.076 35.5884 30.117 35.586 30.158L35.286 30.09C35.189 30.078 35.117 29.991 35.143 29.897C35.279 29.367 35.405 28.834 35.521 28.297C35.531 28.248 35.511 28.197 35.469 28.164C34.641 27.49 35.193 25.971 36.242 25.893V25.891L36.259 25.89C36.919 25.86 37.209 26.087 37.317 26.188C37.436 26.301 37.383 26.395 37.253 26.47Z" fill="#31445B"/>
<path d="M37.438 27.92C37.524 28.444 37.6 28.97 37.666 29.496C37.6724 29.5522 37.6576 29.6088 37.6245 29.6547C37.5914 29.7005 37.5424 29.7324 37.487 29.744C36.877 29.885 36.267 30.024 35.655 30.157C35.53 30.184 35.418 30.079 35.448 29.963C35.586 29.432 35.713 28.897 35.829 28.357C35.84 28.307 35.819 28.257 35.777 28.223C35.012 27.593 35.407 26.183 36.427 25.959C37.419 25.744 38.054 26.922 37.454 27.849C37.4398 27.8701 37.4341 27.8948 37.438 27.92Z" fill="#4C5C75"/>
<path d="M36.122 28.415C36.1366 28.3411 36.1303 28.2646 36.104 28.1939C36.0777 28.1233 36.0324 28.0614 35.973 28.015C35.386 27.532 35.723 26.401 36.498 26.235C37.224 26.08 37.658 26.987 37.2 27.696C37.078 27.884 37.16 27.895 37.357 29.433C37.3586 29.4456 37.3553 29.4584 37.3479 29.4688C37.3405 29.4791 37.3295 29.4863 37.317 29.489C36.83 29.604 36.342 29.717 35.854 29.827C35.744 29.851 35.825 29.783 36.122 28.415Z" fill="#111D33"/>
<path d="M37.3571 29.434C37.3611 29.458 37.3431 29.482 37.3171 29.49L37.0351 29.556C37.0455 29.5522 37.0543 29.545 37.0602 29.5356C37.066 29.5261 37.0684 29.515 37.0671 29.504C36.8671 27.919 36.7861 27.952 36.9111 27.76C37.3411 27.1 36.9971 26.25 36.3251 26.29C37.1631 25.94 37.6901 26.937 37.2001 27.697C37.0721 27.892 37.1581 27.864 37.3571 29.434Z" fill="#31445B"/>
<defs>
<filter id="filter0_bi_25_430" x="-24" y="-24" width="108" height="108" filterUnits="userSpaceOnUse" color-interpolation-filters="sRGB">
<feFlood flood-opacity="0" result="BackgroundImageFix"/>
<feGaussianBlur in="BackgroundImageFix" stdDeviation="12"/>
<feComposite in2="SourceAlpha" operator="in" result="effect1_backgroundBlur_25_430"/>
<feBlend mode="normal" in="SourceGraphic" in2="effect1_backgroundBlur_25_430" result="shape"/>
<feColorMatrix in="SourceAlpha" type="matrix" values="0 0 0 0 0 0 0 0 0 0 0 0 0 0 0 0 0 0 127 0" result="hardAlpha"/>
<feOffset/>
<feGaussianBlur stdDeviation="8"/>
<feComposite in2="hardAlpha" operator="arithmetic" k2="-1" k3="1"/>
<feColorMatrix type="matrix" values="0 0 0 0 0 0 0 0 0 0 0 0 0 0 0 0 0 0 1 0"/>
<feBlend mode="normal" in2="shape" result="effect2_innerShadow_25_430"/>
</filter>
<linearGradient id="paint0_linear_25_430" x1="30" y1="0" x2="30" y2="60" gradientUnits="userSpaceOnUse">
<stop stop-opacity="0"/>
<stop offset="1" stop-color="white"/>
</linearGradient>
</defs>
</svg>
