<svg width="60" height="60" viewBox="0 0 60 60" fill="none" xmlns="http://www.w3.org/2000/svg">
<g filter="url(#filter0_bi_25_407)">
<rect width="60" height="60" rx="30" fill="black" fill-opacity="0.24"/>
<rect x="0.5" y="0.5" width="59" height="59" rx="29.5" stroke="url(#paint0_linear_25_407)" stroke-opacity="0.4"/>
</g>
<path d="M40.9921 34.3401V37.6135C40.9922 37.7507 40.9561 37.8855 40.8875 38.0043C40.8189 38.123 40.7203 38.2217 40.6015 38.2902V40.7422C40.6015 41.1737 40.2517 41.5234 39.8202 41.5234C39.3887 41.5234 39.039 41.1737 39.039 40.7422V38.2902C38.9202 38.2217 38.8215 38.1231 38.7529 38.0043C38.6844 37.8855 38.6483 37.7507 38.6483 37.6135V34.3401C38.6483 33.9086 38.9981 33.5588 39.4296 33.5588H40.2108C40.6423 33.5588 40.9921 33.9086 40.9921 34.3401ZM31.6005 42.1795C31.6361 42.047 31.6361 41.9075 31.6006 41.775C31.5651 41.6425 31.4953 41.5217 31.3983 41.4248L29.0836 39.1101C28.7785 38.805 28.2838 38.805 27.9787 39.1101L27.4263 39.6625C27.1212 39.9676 27.1212 40.4623 27.4263 40.7674L29.741 43.082C29.838 43.1791 29.9587 43.2488 30.0912 43.2844C30.2237 43.3199 30.3632 43.3198 30.4957 43.2843L32.2294 45.0181C32.5345 45.3231 33.0292 45.3231 33.3343 45.0181C33.6394 44.713 33.6394 44.2183 33.3343 43.9132L31.6005 42.1795Z" fill="#F29500"/>
<path d="M40.2109 35.2168H39.4297C38.9982 35.2168 38.6484 34.867 38.6484 34.4356V31.0697C38.6484 30.6382 38.9982 30.2885 39.4297 30.2885H40.2109C40.6424 30.2885 40.9922 30.6382 40.9922 31.0697V34.4356C40.9922 34.867 40.6424 35.2168 40.2109 35.2168ZM29.1512 40.2824L28.5987 40.8349C28.2937 41.1399 27.799 41.1399 27.4939 40.8349L25.1138 38.4548C24.8087 38.1497 24.8087 37.655 25.1138 37.3499L25.6662 36.7975C25.9713 36.4924 26.466 36.4924 26.7711 36.7975L29.1512 39.1776C29.4562 39.4827 29.4562 39.9774 29.1512 40.2824Z" fill="#FFA90B"/>
<path d="M42.3869 32.6797H37.2537C36.6065 32.6797 36.0818 32.155 36.0818 31.5078V29.4234C36.0818 28.7762 36.6065 28.2516 37.2537 28.2516H42.3869C43.0341 28.2516 43.5588 28.7762 43.5588 29.4234V31.5078C43.5588 32.1551 43.0341 32.6797 42.3869 32.6797ZM28.8958 36.9498L25.266 40.5795C24.8084 41.0372 24.0664 41.0372 23.6088 40.5795L22.1349 39.1056C21.6772 38.648 21.6772 37.906 22.1349 37.4484L25.7646 33.8186C26.2223 33.3609 26.9642 33.3609 27.4219 33.8186L28.8958 35.2925C29.3535 35.7501 29.3535 36.4921 28.8958 36.9498Z" fill="#FFB52D"/>
<path d="M48.414 22.1993C48.414 24.4877 48.0296 26.6863 47.3219 28.7342C47.2446 28.9581 47.1173 29.1615 46.9498 29.329C46.7823 29.4965 46.5789 29.6237 46.3551 29.7011C44.3073 30.4088 42.1086 30.7931 39.8201 30.7931C37.5317 30.7931 35.3331 30.4088 33.2852 29.7011C33.0613 29.6237 32.858 29.4965 32.6905 29.329C32.523 29.1615 32.3957 28.9581 32.3184 28.7342C31.6107 26.6863 31.2263 24.4877 31.2263 22.1993C31.2263 19.9109 31.6107 17.7123 32.3184 15.6645C32.3957 15.4406 32.523 15.2372 32.6905 15.0697C32.858 14.9022 33.0613 14.775 33.2852 14.6976C35.333 13.9899 37.5317 13.6056 39.8201 13.6056C42.1086 13.6056 44.3072 13.9899 46.3551 14.6976C46.5789 14.775 46.7823 14.9022 46.9498 15.0697C47.1173 15.2372 47.2446 15.4406 47.3219 15.6645C48.0296 17.7123 48.414 19.911 48.414 22.1993Z" fill="#D12898"/>
<path d="M37.046 22.1993C37.046 24.4877 36.6617 26.6863 35.954 28.7342C35.8766 28.9581 35.7493 29.1615 35.5818 29.3289C35.4143 29.4964 35.211 29.6237 34.9871 29.7011C34.7055 29.7984 34.4218 29.8893 34.1362 29.9738C33.8505 29.8893 33.5668 29.7984 33.2852 29.7011C33.0613 29.6237 32.858 29.4964 32.6905 29.3289C32.523 29.1615 32.3957 28.9581 32.3184 28.7342C31.6107 26.6863 31.2263 24.4877 31.2263 22.1993C31.2263 19.9109 31.6107 17.7123 32.3184 15.6644C32.3957 15.4406 32.523 15.2372 32.6905 15.0697C32.858 14.9022 33.0613 14.775 33.2852 14.6976C33.5668 14.6003 33.8505 14.5094 34.1362 14.4248C34.4218 14.5093 34.7055 14.6003 34.9871 14.6976C35.211 14.775 35.4143 14.9022 35.5818 15.0697C35.7493 15.2372 35.8766 15.4406 35.954 15.6644C36.6617 17.7123 37.046 19.9109 37.046 22.1993Z" fill="#BC157D"/>
<path d="M48.561 22.1993C48.561 24.4877 48.1766 26.6863 47.469 28.7341C47.3916 28.958 47.2643 29.1614 47.0968 29.3289C46.9294 29.4964 46.726 29.6236 46.5021 29.701C46.2205 29.7983 45.9368 29.8892 45.6512 29.9737C45.3655 29.8892 45.0818 29.7983 44.8002 29.701C44.5764 29.6236 44.373 29.4964 44.2055 29.3289C44.038 29.1614 43.9108 28.958 43.8334 28.7341C43.1257 26.6863 42.7413 24.4876 42.7413 22.1993C42.7413 19.9109 43.1256 17.7123 43.8334 15.6644C43.9108 15.4406 44.038 15.2372 44.2055 15.0697C44.373 14.9022 44.5764 14.775 44.8002 14.6976C45.0818 14.6003 45.3655 14.5094 45.6512 14.4248C45.9368 14.5094 46.2205 14.6003 46.5021 14.6976C46.726 14.775 46.9294 14.9022 47.0968 15.0697C47.2643 15.2372 47.3916 15.4406 47.469 15.6644C48.1767 17.7123 48.561 19.9109 48.561 22.1993Z" fill="#FF2EA6"/>
<path d="M25.7469 25.2772C27.365 26.8953 28.6479 28.7218 29.5956 30.6702C29.6992 30.8833 29.753 31.117 29.753 31.3539C29.753 31.5908 29.6992 31.8245 29.5956 32.0376C28.648 33.986 27.3651 35.8124 25.7469 37.4306C24.1288 39.0487 22.3023 40.3316 20.3539 41.2794C20.1408 41.3829 19.907 41.4368 19.6702 41.4368C19.4333 41.4368 19.1995 41.3829 18.9865 41.2794C17.0381 40.3317 15.2116 39.0488 13.5935 37.4306C11.9753 35.8124 10.6924 33.986 9.74479 32.0376C9.64122 31.8245 9.5874 31.5908 9.5874 31.3539C9.5874 31.117 9.64122 30.8833 9.74479 30.6702C10.6924 28.7218 11.9753 26.8953 13.5935 25.2772C15.2116 23.6591 17.0381 22.3762 18.9865 21.4285C19.1995 21.3249 19.4333 21.2711 19.6702 21.2711C19.907 21.2711 20.1408 21.3249 20.3539 21.4285C22.3023 22.3762 24.1287 23.6591 25.7469 25.2772Z" fill="#D12898"/>
<path d="M17.7086 33.3156C19.3267 34.9337 20.6096 36.7602 21.5573 38.7086C21.6609 38.9216 21.7147 39.1554 21.7147 39.3923C21.7147 39.6291 21.6609 39.8629 21.5573 40.0759C21.427 40.3438 21.2907 40.6087 21.1485 40.8705C20.8868 41.0127 20.6219 41.149 20.354 41.2793C20.1409 41.3829 19.9072 41.4367 19.6703 41.4367C19.4334 41.4367 19.1997 41.3829 18.9866 41.2793C17.0382 40.3316 15.2117 39.0488 13.5936 37.4306C11.9755 35.8124 10.6926 33.9859 9.74491 32.0375C9.64134 31.8245 9.58752 31.5907 9.58752 31.3538C9.58752 31.117 9.64134 30.8832 9.74491 30.6702C9.87518 30.4023 10.0115 30.1374 10.1537 29.8756C10.4155 29.7334 10.6804 29.5971 10.9483 29.4668C11.1613 29.3632 11.3951 29.3094 11.6319 29.3094C11.8688 29.3094 12.1026 29.3632 12.3156 29.4668C14.264 30.4145 16.0905 31.6974 17.7086 33.3156Z" fill="#BC157D"/>
<path d="M25.8509 25.1732C27.4691 26.7913 28.7519 28.6178 29.6996 30.5662C29.8032 30.7793 29.857 31.013 29.857 31.2499C29.857 31.4868 29.8032 31.7206 29.6996 31.9336C29.5692 32.2014 29.4329 32.4664 29.2908 32.7281C29.029 32.8704 28.7641 33.0067 28.4962 33.137C28.2832 33.2405 28.0494 33.2943 27.8126 33.2943C27.5757 33.2943 27.3419 33.2405 27.1289 33.137C25.1805 32.1893 23.3541 30.9064 21.7358 29.2883C20.1176 27.6702 18.8348 25.8437 17.8872 23.8952C17.7836 23.6822 17.7297 23.4484 17.7297 23.2116C17.7297 22.9747 17.7836 22.7409 17.8872 22.5279C18.0175 22.26 18.1538 21.9951 18.296 21.7334C18.5584 21.5908 18.8233 21.4545 19.0905 21.3245C19.3036 21.221 19.5373 21.1671 19.7742 21.1671C20.0111 21.1671 20.2449 21.221 20.4579 21.3245C22.4063 22.2722 24.2327 23.5551 25.8509 25.1732Z" fill="#FF2EA6"/>
<path d="M43.6742 37.5434V37.934C43.6742 38.0894 43.6124 38.2384 43.5025 38.3483C43.3927 38.4582 43.2436 38.5199 43.0882 38.5199H36.5523C36.3969 38.5199 36.2478 38.4582 36.138 38.3483C36.0281 38.2384 35.9663 38.0894 35.9663 37.934V37.5434C35.9663 37.388 36.0281 37.2389 36.138 37.129C36.2478 37.0192 36.3969 36.9574 36.5523 36.9574H43.0882C43.2436 36.9574 43.3927 37.0192 43.5025 37.129C43.6124 37.2389 43.6742 37.388 43.6742 37.5434ZM33.2452 39.4787C33.1908 39.4243 33.1262 39.3811 33.0551 39.3516C32.984 39.3222 32.9078 39.307 32.8308 39.307C32.7539 39.307 32.6777 39.3222 32.6066 39.3516C32.5355 39.3811 32.4709 39.4243 32.4165 39.4787L27.7949 44.1002C27.6851 44.2101 27.6233 44.3591 27.6233 44.5145C27.6233 44.6699 27.6851 44.8189 27.7949 44.9288L28.0712 45.2051C28.1256 45.2595 28.1902 45.3027 28.2613 45.3321C28.3324 45.3616 28.4086 45.3767 28.4855 45.3767C28.5625 45.3767 28.6387 45.3616 28.7098 45.3321C28.7809 45.3027 28.8455 45.2595 28.8999 45.2051L33.5214 40.5835C33.6313 40.4736 33.693 40.3246 33.693 40.1692C33.693 40.0138 33.6313 39.8648 33.5214 39.7549L33.2452 39.4787ZM48.9999 22.1993C48.9999 24.5039 48.6217 26.767 47.8758 28.9255C47.6588 29.5534 47.1743 30.0379 46.5464 30.2549C44.3878 31.0009 42.1248 31.3791 39.8202 31.3791C37.5156 31.3791 35.2525 31.0009 33.0939 30.2549C32.466 30.038 31.9816 29.5534 31.7645 28.9255C31.0188 26.767 30.6406 24.5039 30.6406 22.1993C30.6406 19.8947 31.0188 17.6316 31.7647 15.473C31.9817 14.8452 32.4662 14.3607 33.0941 14.1437C35.2527 13.3977 37.5157 13.0195 39.8203 13.0195C42.1249 13.0195 44.388 13.3977 46.5466 14.1437C47.1745 14.3606 47.6589 14.8452 47.876 15.473C48.6217 17.6317 48.9999 19.8947 48.9999 22.1993ZM47.8281 22.1993C47.8281 20.0252 47.4715 17.891 46.7682 15.8558C46.7203 15.7156 46.6409 15.5883 46.5361 15.4835C46.4313 15.3788 46.304 15.2994 46.1638 15.2514C44.1286 14.5481 41.9944 14.1916 39.8203 14.1916C37.6463 14.1916 35.512 14.5481 33.4768 15.2514C33.3366 15.2994 33.2093 15.3788 33.1046 15.4835C32.9998 15.5883 32.9204 15.7156 32.8724 15.8558C32.169 17.891 31.8124 20.0252 31.8124 22.1993C31.8124 24.3734 32.169 26.5076 32.8723 28.5428C32.9202 28.683 32.9996 28.8103 33.1044 28.9151C33.2092 29.0198 33.3365 29.0992 33.4767 29.1472C35.5119 29.8505 37.6461 30.207 39.8202 30.207C41.9942 30.207 44.1285 29.8505 46.1637 29.1472C46.3039 29.0992 46.4312 29.0198 46.5359 28.9151C46.6407 28.8103 46.7201 28.683 46.7681 28.5428C47.4715 26.5077 47.8281 24.3734 47.8281 22.1993ZM30.1225 30.4139C30.4131 31.0113 30.4131 31.6965 30.1225 32.2939C29.1236 34.3477 27.7908 36.2153 26.1612 37.8449C24.5316 39.4745 22.6639 40.8073 20.6102 41.8062C20.0128 42.0968 19.3276 42.0968 18.7302 41.8062C16.6763 40.8073 14.8088 39.4745 13.1792 37.8449C11.5496 36.2153 10.2167 34.3477 9.21791 32.2939C8.92736 31.6965 8.92736 31.0113 9.21791 30.4139C10.2168 28.3601 11.5496 26.4925 13.1792 24.8629C14.8088 23.2333 16.6764 21.9005 18.7302 20.9016C19.3276 20.6111 20.0128 20.6111 20.6102 20.9016C22.664 21.9005 24.5316 23.2333 26.1612 24.8629C27.7908 26.4925 29.1236 28.3602 30.1225 30.4139ZM29.0687 30.9266C28.1269 28.9902 26.8699 27.2288 25.3326 25.6916C23.7953 24.1543 22.034 22.8973 20.0976 21.9555C19.9646 21.8903 19.8184 21.8564 19.6702 21.8564C19.5221 21.8564 19.3759 21.8903 19.2428 21.9555C17.3064 22.8973 15.5451 24.1543 14.0078 25.6916C12.4706 27.2288 11.2135 28.9902 10.2717 30.9266C10.2065 31.0596 10.1727 31.2058 10.1727 31.3539C10.1727 31.5021 10.2065 31.6483 10.2717 31.7813C11.2135 33.7177 12.4706 35.4791 14.0078 37.0163C15.5451 38.5536 17.3064 39.8106 19.2428 40.7524C19.3759 40.8176 19.5221 40.8515 19.6702 40.8515C19.8184 40.8515 19.9646 40.8176 20.0976 40.7524C22.034 39.8106 23.7953 38.5536 25.3326 37.0163C26.8699 35.4791 28.1269 33.7177 29.0687 31.7813C29.1339 31.6483 29.1678 31.5021 29.1678 31.3539C29.1678 31.2058 29.1339 31.0596 29.0687 30.9266Z" fill="#FFC14F"/>
<path d="M32.4348 27.095C32.4542 27.1695 32.4588 27.247 32.4482 27.3232C32.4376 27.3994 32.4121 27.4728 32.3732 27.5392C32.3342 27.6055 32.2826 27.6636 32.2212 27.71C32.1598 27.7564 32.0899 27.7902 32.0154 27.8096C31.9671 27.8222 31.9174 27.8286 31.8674 27.8287C31.7378 27.8285 31.6118 27.7854 31.5093 27.7061C31.4068 27.6268 31.3334 27.5157 31.3008 27.3902L31.28 27.3098C31.2417 27.1592 31.2647 26.9995 31.3441 26.8659C31.4235 26.7323 31.5527 26.6357 31.7033 26.5974C31.8539 26.5591 32.0136 26.5822 32.1472 26.6616C32.2808 26.741 32.3774 26.8702 32.4157 27.0208L32.4348 27.095ZM36.4821 14.4774L36.5576 14.4644C36.8766 14.4107 37.0917 14.1084 37.0379 13.7892C36.984 13.4701 36.6819 13.2547 36.3626 13.3089L36.2806 13.323C36.2039 13.3352 36.1304 13.3625 36.0643 13.4034C35.9983 13.4443 35.941 13.498 35.8959 13.5612C35.8507 13.6244 35.8186 13.696 35.8014 13.7717C35.7842 13.8475 35.7822 13.9259 35.7955 14.0024C35.8089 14.079 35.8373 14.1521 35.8792 14.2175C35.9211 14.2829 35.9755 14.3394 36.0394 14.3836C36.1033 14.4278 36.1753 14.4589 36.2513 14.475C36.3273 14.4911 36.4058 14.4919 36.4821 14.4774ZM33.7514 29.2399L33.6778 29.2155C33.3705 29.1129 33.0389 29.2791 32.9366 29.5861C32.8344 29.8931 33.0001 30.225 33.3072 30.3273L33.3849 30.353C33.4441 30.3725 33.506 30.3825 33.5683 30.3825C33.7076 30.3825 33.8424 30.3329 33.9485 30.2425C34.0545 30.1521 34.1249 30.0269 34.147 29.8893C34.169 29.7517 34.1413 29.6107 34.0688 29.4917C33.9963 29.3727 33.8838 29.2834 33.7514 29.2399ZM33.2108 15.3116C33.075 15.3116 32.9434 15.2643 32.8385 15.178C32.7336 15.0916 32.662 14.9715 32.6359 14.8382C32.6098 14.7048 32.6308 14.5666 32.6954 14.447C32.7599 14.3275 32.864 14.2341 32.9898 14.1828C33.0286 14.1671 33.0678 14.1525 33.1074 14.1391C33.1804 14.1148 33.2575 14.1053 33.3343 14.1109C33.411 14.1164 33.4859 14.1371 33.5547 14.1716C33.6235 14.2062 33.6847 14.2539 33.7351 14.3121C33.7854 14.3703 33.8237 14.4379 33.8479 14.5109C33.8722 14.584 33.8817 14.6611 33.8761 14.7378C33.8706 14.8146 33.8499 14.8895 33.8154 14.9582C33.7808 15.027 33.7331 15.0883 33.6749 15.1386C33.6167 15.1889 33.5491 15.2273 33.4761 15.2515C33.461 15.2567 33.4461 15.2623 33.4313 15.2683C33.3613 15.2969 33.2864 15.3116 33.2108 15.3116ZM33.2928 14.695L33.3029 14.7252L33.3032 14.7261L33.2928 14.695ZM31.6401 18.0929C31.7912 18.1289 31.9505 18.1035 32.0829 18.0222C32.2153 17.9408 32.31 17.8103 32.3461 17.6591L32.3643 17.5836C32.3825 17.5088 32.3857 17.4312 32.3739 17.3551C32.362 17.2791 32.3353 17.2062 32.2952 17.1405C32.2552 17.0748 32.2026 17.0176 32.1404 16.9722C32.0783 16.9268 32.0078 16.8941 31.933 16.876C31.8582 16.8578 31.7806 16.8546 31.7046 16.8664C31.6285 16.8782 31.5556 16.905 31.4898 16.945C31.4241 16.9851 31.3669 17.0377 31.3216 17.0998C31.2762 17.162 31.2435 17.2325 31.2254 17.3073L31.2062 17.3868C31.1702 17.5379 31.1956 17.6972 31.277 17.8296C31.3583 17.9621 31.4889 18.0567 31.6401 18.0929ZM31.3605 24.6055C31.5153 24.5917 31.6583 24.5169 31.7579 24.3977C31.8576 24.2785 31.9059 24.1246 31.8921 23.9698L31.8852 23.8919C31.8786 23.8153 31.8569 23.7407 31.8215 23.6724C31.7861 23.6041 31.7375 23.5434 31.6786 23.4939C31.6197 23.4444 31.5517 23.4069 31.4783 23.3837C31.4049 23.3604 31.3277 23.3519 31.2511 23.3585C31.1744 23.3651 31.0998 23.3868 31.0315 23.4222C30.9632 23.4577 30.9025 23.5062 30.853 23.5651C30.8035 23.624 30.766 23.6921 30.7428 23.7654C30.7196 23.8388 30.711 23.916 30.7176 23.9926L30.7248 24.074C30.7386 24.2288 30.8134 24.3717 30.9326 24.4714C31.0518 24.5711 31.2057 24.6193 31.3605 24.6055ZM31.2361 21.3376C31.3911 21.3487 31.5441 21.2978 31.6616 21.196C31.779 21.0943 31.8513 20.9501 31.8625 20.7951L31.8683 20.7175C31.874 20.6408 31.8646 20.5636 31.8405 20.4905C31.8165 20.4174 31.7783 20.3498 31.7281 20.2915C31.6779 20.2331 31.6167 20.1853 31.548 20.1506C31.4793 20.1159 31.4044 20.0951 31.3277 20.0894C31.2509 20.0835 31.1738 20.0928 31.1006 20.1168C31.0275 20.1408 30.9598 20.1791 30.9015 20.2293C30.8431 20.2795 30.7952 20.3407 30.7606 20.4095C30.726 20.4782 30.7052 20.5531 30.6996 20.6299L30.6936 20.7112C30.6825 20.8662 30.7334 21.0193 30.8352 21.1367C30.9369 21.2542 31.0811 21.3264 31.2361 21.3376ZM48.2803 19.7969C48.1255 19.8107 47.9825 19.8855 47.8829 20.0047C47.7832 20.1239 47.7349 20.2779 47.7487 20.4326L47.7556 20.5105C47.769 20.6653 47.8433 20.8085 47.9622 20.9085C48.0811 21.0086 48.2349 21.0573 48.3897 21.0439C48.5446 21.0305 48.6878 20.9562 48.7878 20.8373C48.8878 20.7184 48.9365 20.5646 48.9232 20.4098L48.916 20.3284C48.8872 20.0061 48.6026 19.7691 48.2803 19.7969ZM36.8358 29.9792L36.7587 29.9672C36.4389 29.9169 36.1392 30.1355 36.089 30.4551C36.0389 30.7748 36.2573 31.0747 36.577 31.1248L36.6574 31.1373C36.811 31.161 36.9676 31.1226 37.0929 31.0308C37.2182 30.9389 37.3019 30.801 37.3256 30.6475C37.3373 30.5714 37.334 30.4938 37.3157 30.4191C37.2974 30.3443 37.2646 30.2739 37.2191 30.2119C37.1736 30.1498 37.1164 30.0973 37.0506 30.0574C36.9848 30.0175 36.9118 29.9909 36.8358 29.9792ZM47.7932 17.8233C47.8825 17.8233 47.9706 17.803 48.0508 17.7638C48.1311 17.7246 48.2013 17.6676 48.2561 17.5971C48.311 17.5266 48.349 17.4445 48.3672 17.3571C48.3855 17.2697 48.3835 17.1793 48.3615 17.0927L48.3407 17.0123C48.3213 16.9378 48.2875 16.8678 48.2411 16.8065C48.1947 16.7451 48.1367 16.6934 48.0703 16.6545C48.0039 16.6155 47.9305 16.59 47.8543 16.5795C47.7781 16.5689 47.7005 16.5735 47.6261 16.5929C47.5516 16.6123 47.4817 16.6461 47.4203 16.6925C47.3589 16.7389 47.3073 16.7969 47.2683 16.8633C47.2294 16.9297 47.2039 17.0031 47.1933 17.0793C47.1828 17.1555 47.1873 17.233 47.2067 17.3075L47.2258 17.3817C47.2579 17.5079 47.3311 17.6198 47.4338 17.6997C47.5366 17.7797 47.663 17.8231 47.7932 17.8233ZM46.2084 29.1306C46.1939 29.1364 46.1793 29.1419 46.1644 29.147C46.0173 29.1971 45.8961 29.3035 45.8274 29.4429C45.7588 29.5824 45.7484 29.7433 45.7984 29.8905C45.8485 30.0376 45.9549 30.1588 46.0943 30.2274C46.2337 30.2961 46.3947 30.3065 46.5419 30.2565L46.5473 30.2546C46.5799 30.2433 46.6122 30.2312 46.6441 30.2184C46.7156 30.1898 46.7807 30.1474 46.8357 30.0937C46.8908 30.0399 46.9347 29.9758 46.965 29.9051C46.9952 29.8343 47.0113 29.7583 47.0122 29.6814C47.013 29.6044 46.9988 29.5281 46.9701 29.4566C46.8499 29.1562 46.5085 29.0105 46.2084 29.1306ZM47.9996 26.3096C47.6847 26.2348 47.3687 26.4286 47.2935 26.7434L47.2756 26.8173C47.2572 26.892 47.2538 26.9696 47.2654 27.0456C47.277 27.1217 47.3036 27.1947 47.3434 27.2605C47.3833 27.3264 47.4357 27.3837 47.4977 27.4292C47.5597 27.4748 47.6301 27.5077 47.7048 27.526C47.7507 27.5373 47.7978 27.543 47.8451 27.5431C47.9761 27.543 48.1033 27.4989 48.2063 27.418C48.3094 27.3371 48.3823 27.224 48.4136 27.0967L48.4333 27.0157C48.4512 26.9409 48.4541 26.8632 48.442 26.7872C48.4299 26.7112 48.403 26.6384 48.3627 26.5728C48.3224 26.5072 48.2696 26.4503 48.2073 26.4051C48.145 26.3599 48.0744 26.3275 47.9996 26.3096ZM48.4042 23.0651C48.0822 23.041 47.801 23.2848 47.7778 23.6075L47.772 23.6851C47.7604 23.8401 47.8108 23.9934 47.9122 24.1112C48.0135 24.229 48.1575 24.3017 48.3125 24.3133C48.4675 24.3249 48.6207 24.2745 48.7385 24.1732C48.8563 24.0718 48.9291 23.9278 48.9407 23.7728L48.9466 23.6915C48.9577 23.5365 48.9069 23.3834 48.8051 23.2659C48.7034 23.1485 48.5592 23.0762 48.4042 23.0651ZM45.9665 15.1844C46.0263 15.2043 46.0889 15.2146 46.1519 15.2146C46.291 15.2145 46.4255 15.1649 46.5314 15.0747C46.6373 14.9845 46.7076 14.8596 46.7299 14.7224C46.7522 14.5851 46.7249 14.4443 46.6529 14.3253C46.581 14.2063 46.4691 14.1167 46.3372 14.0726L46.2594 14.0469C45.9517 13.9457 45.6208 14.1128 45.5196 14.4201C45.4184 14.7275 45.5855 15.0587 45.8929 15.16L45.9665 15.1844ZM40.0075 30.2063H40.004L39.924 30.2069C39.8471 30.2073 39.771 30.2229 39.7001 30.2528C39.6291 30.2826 39.5648 30.3261 39.5107 30.3809C39.4566 30.4356 39.4138 30.5004 39.3848 30.5717C39.3557 30.6429 39.341 30.7192 39.3415 30.7962C39.3423 30.951 39.4045 31.0991 39.5142 31.2083C39.624 31.3174 39.7725 31.3787 39.9273 31.3787H39.9308L40.0108 31.3782C40.0877 31.3778 40.1638 31.3622 40.2347 31.3323C40.3057 31.3025 40.37 31.2589 40.4241 31.2042C40.4782 31.1495 40.521 31.0846 40.55 31.0134C40.5791 30.9421 40.5938 30.8658 40.5933 30.7889C40.5924 30.6341 40.5303 30.4859 40.4206 30.3768C40.3108 30.2676 40.1623 30.2063 40.0075 30.2063ZM43.1623 29.9206L43.0868 29.9336C42.9361 29.9621 42.8026 30.0487 42.715 30.1745C42.6273 30.3004 42.5925 30.4557 42.618 30.6069C42.6436 30.7582 42.7274 30.8934 42.8514 30.9836C42.9755 31.0737 43.13 31.1117 43.2818 31.0892L43.3638 31.0751C43.5157 31.0472 43.6505 30.9604 43.7387 30.8336C43.8269 30.7068 43.8615 30.5503 43.835 30.3981C43.8084 30.2459 43.7229 30.1104 43.5969 30.021C43.4709 29.9315 43.3147 29.8955 43.1623 29.9206ZM42.8842 14.4319C43.0364 14.4538 43.1912 14.4149 43.315 14.3237C43.4388 14.2325 43.5219 14.0963 43.5461 13.9444C43.5704 13.7925 43.534 13.6372 43.4448 13.5119C43.3556 13.3866 43.2207 13.3015 43.0692 13.2748L42.9871 13.2619C42.6677 13.2119 42.368 13.432 42.3188 13.7519C42.3071 13.8279 42.3104 13.9055 42.3287 13.9803C42.347 14.055 42.3798 14.1255 42.4253 14.1875C42.4708 14.2496 42.5281 14.3021 42.5939 14.342C42.6597 14.3819 42.7327 14.4085 42.8087 14.4201L42.8842 14.4319ZM39.6422 14.1923L39.7205 14.1917C39.7975 14.1913 39.8736 14.1757 39.9445 14.1458C40.0154 14.116 40.0798 14.0724 40.1339 14.0177C40.188 13.963 40.2307 13.8982 40.2598 13.8269C40.2888 13.7556 40.3035 13.6794 40.3031 13.6024C40.3022 13.4476 40.2401 13.2994 40.1303 13.1903C40.0206 13.0811 39.872 13.0199 39.7172 13.0198H39.7138L39.6321 13.0204C39.4783 13.0235 39.3319 13.0869 39.2244 13.1969C39.117 13.307 39.0571 13.4549 39.0578 13.6087C39.0584 13.7626 39.1195 13.91 39.2279 14.0191C39.3363 14.1283 39.4832 14.1905 39.637 14.1923H39.6422ZM13.1065 24.9359L13.104 24.9384L13.0466 24.9965C12.9374 25.1069 12.8765 25.2561 12.8773 25.4114C12.878 25.5666 12.9404 25.7153 13.0506 25.8246C13.1609 25.9339 13.31 25.995 13.4653 25.9945C13.6206 25.9939 13.7693 25.9318 13.8787 25.8216L13.8823 25.818L13.9373 25.7623C14.045 25.6517 14.1048 25.5031 14.1036 25.3488C14.1023 25.1944 14.0403 25.0468 13.9308 24.9379C13.8214 24.8291 13.6734 24.7678 13.519 24.7674C13.3647 24.7671 13.2164 24.8276 13.1065 24.9359ZM15.6569 22.7459L15.5898 22.7948C15.3286 22.9853 15.2723 23.3528 15.4636 23.6137C15.5091 23.6758 15.5664 23.7283 15.6322 23.7682C15.6979 23.8082 15.7709 23.8348 15.847 23.8465C15.923 23.8582 16.0006 23.8548 16.0754 23.8365C16.1501 23.8182 16.2205 23.7853 16.2826 23.7398L16.3443 23.695C16.4701 23.6038 16.5546 23.4664 16.5791 23.3129C16.6036 23.1595 16.5662 23.0026 16.4751 22.8767C16.384 22.7509 16.2466 22.6664 16.0931 22.6418C15.9397 22.6173 15.7828 22.6547 15.6569 22.7459ZM15.316 38.2119L15.2561 38.1618C15.0085 37.9535 14.6395 37.9855 14.4305 38.233C14.3305 38.3519 14.2818 38.5057 14.2952 38.6605C14.3085 38.8154 14.3828 38.9585 14.5018 39.0586L14.5644 39.111C14.6836 39.2101 14.8373 39.2578 14.9918 39.2438C15.1462 39.2298 15.2888 39.1551 15.3883 39.0361C15.4877 38.9171 15.536 38.7636 15.5224 38.6091C15.5089 38.4546 15.4346 38.3118 15.316 38.2119ZM17.9097 40.038L17.8436 39.9991C17.7101 39.9197 17.5504 39.8966 17.3998 39.9349C17.2492 39.9733 17.12 40.0698 17.0406 40.2034C16.9612 40.337 16.9381 40.4967 16.9765 40.6473C17.0148 40.7979 17.1114 40.9271 17.245 41.0065L17.3165 41.0487C17.4283 41.1144 17.5588 41.141 17.6873 41.1246C17.8159 41.1083 17.9355 41.0497 18.0272 40.9581C18.0625 40.9228 18.0932 40.8831 18.1184 40.84C18.1574 40.7736 18.1829 40.7002 18.1935 40.624C18.2041 40.5478 18.1996 40.4702 18.1802 40.3958C18.1608 40.3213 18.1269 40.2514 18.0805 40.19C18.0341 40.1286 17.976 40.077 17.9097 40.038ZM10.1263 31.1572C10.0302 31.2532 9.9037 31.3128 9.76849 31.3258C9.63329 31.3389 9.49774 31.3046 9.38503 31.2288C9.27231 31.153 9.18942 31.0404 9.15052 30.9102C9.11163 30.7801 9.11914 30.6405 9.17177 30.5152C9.18805 30.4767 9.20548 30.4386 9.22404 30.4011C9.29354 30.2628 9.41491 30.1577 9.56166 30.1086C9.70841 30.0595 9.86862 30.0705 10.0073 30.1391C10.146 30.2077 10.252 30.3283 10.302 30.4748C10.352 30.6212 10.3421 30.7815 10.2744 30.9206L10.2714 30.927C10.2644 30.9414 10.2577 30.9559 10.2516 30.9705C10.2223 31.0403 10.1798 31.1037 10.1263 31.1572ZM9.77748 30.6778L9.74818 30.6632L9.77669 30.6774L9.77748 30.6778ZM11.1343 33.3622C11.0942 33.2965 11.0416 33.2393 10.9795 33.1939C10.9173 33.1486 10.8468 33.1159 10.7721 33.0977C10.6973 33.0796 10.6197 33.0764 10.5436 33.0882C10.4676 33.1001 10.3947 33.1268 10.329 33.1669C10.2632 33.2069 10.206 33.2595 10.1606 33.3216C10.1153 33.3838 10.0825 33.4542 10.0644 33.529C10.0462 33.6038 10.043 33.6814 10.0549 33.7575C10.0667 33.8335 10.0934 33.9065 10.1335 33.9722L10.1761 34.0419C10.2575 34.1744 10.3881 34.2691 10.5392 34.3052C10.6904 34.3413 10.8497 34.3159 10.9821 34.2346C11.1145 34.1532 11.2092 34.0226 11.2454 33.8715C11.2815 33.7203 11.2561 33.561 11.1747 33.4286L11.1343 33.3622ZM12.9994 35.929C12.898 35.8112 12.754 35.7385 12.5991 35.7269C12.4441 35.7153 12.2908 35.7657 12.173 35.867C12.1146 35.9171 12.0666 35.9783 12.0319 36.047C11.9971 36.1157 11.9763 36.1906 11.9705 36.2674C11.9648 36.3441 11.9742 36.4213 11.9983 36.4944C12.0224 36.5675 12.0608 36.6352 12.1111 36.6934L12.1644 36.7551C12.2145 36.8141 12.2758 36.8625 12.3448 36.8976C12.4137 36.9327 12.489 36.9538 12.5661 36.9597C12.6433 36.9656 12.7208 36.9561 12.7943 36.9318C12.8678 36.9076 12.9357 36.869 12.9942 36.8184C13.0527 36.7677 13.1006 36.7059 13.1351 36.6367C13.1696 36.5674 13.19 36.492 13.1952 36.4148C13.2004 36.3376 13.1903 36.2601 13.1654 36.1869C13.1405 36.1136 13.1013 36.046 13.0501 35.988L12.9994 35.929ZM11.7559 27.3745C11.4922 27.1869 11.1262 27.2483 10.9388 27.5123L10.8908 27.5802C10.8014 27.7074 10.7662 27.8648 10.7929 28.0179C10.8196 28.171 10.906 28.3072 11.0332 28.3966C11.1603 28.4859 11.3177 28.5211 11.4708 28.4944C11.6239 28.4677 11.7601 28.3813 11.8495 28.2541L11.8937 28.1916C11.9838 28.065 12.0199 27.9078 11.994 27.7545C11.9682 27.6013 11.8825 27.4646 11.7559 27.3745ZM27.2319 26.0174L27.1786 25.9557C27.0769 25.8382 26.9327 25.766 26.7777 25.7548C26.6227 25.7437 26.4696 25.7946 26.3522 25.8963C26.1075 26.107 26.081 26.4782 26.2928 26.7228L26.3436 26.7818C26.3963 26.8429 26.461 26.8926 26.5337 26.9275C26.6064 26.9625 26.6855 26.9821 26.7662 26.9851C26.8468 26.9881 26.9272 26.9744 27.0023 26.9448C27.0774 26.9153 27.1455 26.8706 27.2026 26.8135C27.3069 26.7089 27.3678 26.5688 27.3733 26.4212C27.3787 26.2736 27.3282 26.1294 27.2319 26.0174ZM25.4643 36.8834L25.4619 36.8858L25.4057 36.9427C25.2967 37.0531 25.2359 37.2021 25.2366 37.3571C25.2373 37.5122 25.2995 37.6607 25.4094 37.77C25.5194 37.8793 25.6682 37.9406 25.8233 37.9404C25.9783 37.9402 26.127 37.8786 26.2367 37.769L26.2391 37.7666L26.2953 37.7096C26.403 37.599 26.4627 37.4504 26.4615 37.2961C26.4603 37.1417 26.3982 36.9941 26.2887 36.8853C26.1793 36.7764 26.0313 36.7152 25.8769 36.7148C25.7226 36.7145 25.5743 36.775 25.4643 36.8834ZM28.3095 34.3081C28.2466 34.2638 28.1755 34.2324 28.1004 34.2156C28.0253 34.1988 27.9476 34.197 27.8718 34.2102C27.796 34.2234 27.7236 34.2515 27.6586 34.2927C27.5936 34.3339 27.5374 34.3876 27.4932 34.4505L27.449 34.513C27.4035 34.5757 27.3709 34.6467 27.3531 34.7221C27.3352 34.7974 27.3325 34.8755 27.345 34.9519C27.3575 35.0283 27.385 35.1014 27.426 35.1671C27.4669 35.2328 27.5205 35.2897 27.5835 35.3346C27.6466 35.3795 27.718 35.4114 27.7934 35.4285C27.8689 35.4457 27.9471 35.4477 28.0233 35.4345C28.0996 35.4212 28.1725 35.393 28.2378 35.3515C28.3031 35.3099 28.3595 35.2558 28.4038 35.1923L28.4518 35.1244C28.4961 35.0615 28.5276 34.9905 28.5444 34.9154C28.5612 34.8403 28.563 34.7626 28.5498 34.6868C28.5366 34.611 28.5086 34.5385 28.4673 34.4735C28.4261 34.4086 28.3725 34.3524 28.3095 34.3081ZM29.1233 29.4581C29.2158 29.3654 29.2746 29.2443 29.2902 29.1142C29.3059 28.9841 29.2775 28.8525 29.2097 28.7405L29.1663 28.6693C29.0841 28.5387 28.9537 28.4458 28.8034 28.4107C28.6531 28.3757 28.4951 28.4013 28.3636 28.4821C28.2321 28.5629 28.1378 28.6923 28.1011 28.8422C28.0644 28.9921 28.0884 29.1504 28.1677 29.2827L28.2074 29.3476C28.2534 29.4237 28.3161 29.4883 28.3908 29.5365C28.4655 29.5847 28.5502 29.6153 28.6384 29.626C28.7267 29.6366 28.8162 29.627 28.9002 29.5979C28.9842 29.5689 29.0605 29.521 29.1233 29.4581ZM29.8576 31.4298C29.7148 31.3688 29.5535 31.3669 29.4092 31.4247C29.265 31.4825 29.1496 31.5951 29.0884 31.738C29.0822 31.7523 29.0758 31.7666 29.069 31.7806C29.3879 32.0205 29.768 32.1655 30.1657 32.1989C30.196 32.1282 30.212 32.0522 30.213 31.9753C30.2139 31.8983 30.1996 31.822 30.171 31.7505C30.1424 31.6791 30.1 31.614 30.0462 31.559C29.9925 31.504 29.9284 31.4601 29.8576 31.4298ZM22.0988 21.7034L22.0272 21.6612C21.9608 21.6222 21.8874 21.5967 21.8112 21.5861C21.735 21.5754 21.6574 21.58 21.583 21.5994C21.5085 21.6187 21.4386 21.6526 21.3772 21.699C21.3158 21.7455 21.2642 21.8035 21.2253 21.8699C21.1863 21.9363 21.1608 22.0097 21.1502 22.0859C21.1397 22.1621 21.1442 22.2396 21.1636 22.3141C21.183 22.3886 21.2168 22.4585 21.2632 22.5198C21.3096 22.5812 21.3677 22.6328 21.434 22.6718L21.5001 22.7108C21.6337 22.7901 21.7933 22.8132 21.9439 22.7748C22.0945 22.7365 22.2237 22.64 22.3031 22.5064C22.3424 22.4403 22.3683 22.367 22.3793 22.2909C22.3903 22.2147 22.3862 22.1372 22.3673 22.0626C22.3483 21.988 22.3148 21.9179 22.2688 21.8563C22.2227 21.7947 22.1649 21.7427 22.0988 21.7034ZM20.3573 40.6237L20.288 40.6585C20.2192 40.6929 20.1578 40.7405 20.1073 40.7986C20.0569 40.8567 20.0184 40.9242 19.994 40.9972C19.9697 41.0702 19.96 41.1473 19.9655 41.2241C19.9709 41.3009 19.9915 41.3758 20.0259 41.4446C20.0954 41.5836 20.2173 41.6893 20.3647 41.7385C20.5122 41.7876 20.6731 41.7762 20.8121 41.7067L20.8852 41.6699C20.9408 41.6419 20.9916 41.6052 21.0358 41.5612C21.1341 41.4626 21.1942 41.3322 21.2052 41.1934C21.2162 41.0546 21.1774 40.9163 21.0957 40.8035C21.0141 40.6907 20.8949 40.6106 20.7596 40.5777C20.6243 40.5447 20.4817 40.561 20.3573 40.6237ZM24.8415 23.6517L24.779 23.5993C24.5306 23.3917 24.1618 23.4255 23.9536 23.673C23.8539 23.7922 23.8057 23.9461 23.8195 24.1009C23.8333 24.2557 23.908 24.3986 24.0272 24.4984L24.0871 24.5485C24.146 24.598 24.214 24.6355 24.2874 24.6587C24.3608 24.682 24.438 24.6905 24.5146 24.6839C24.5913 24.6773 24.6659 24.6557 24.7342 24.6202C24.8025 24.5848 24.8632 24.5362 24.9127 24.4773C25.0127 24.3584 25.0614 24.2046 25.0481 24.0498C25.0347 23.895 24.9604 23.7518 24.8415 23.6517ZM18.5319 20.9994L18.4587 21.0361C18.1696 21.1822 18.0537 21.5343 18.1996 21.8232C18.3454 22.1121 18.6977 22.2281 18.9867 22.0823L19.056 22.0476C19.1248 22.0132 19.1862 21.9656 19.2367 21.9074C19.2871 21.8493 19.3256 21.7818 19.3499 21.7088C19.3742 21.6358 19.3839 21.5587 19.3785 21.4819C19.373 21.4052 19.3525 21.3302 19.318 21.2614C19.2485 21.1224 19.1267 21.0167 18.9792 20.9676C18.8318 20.9184 18.6709 20.9299 18.5319 20.9994ZM23.0611 38.9655L22.9981 39.0115C22.9353 39.0566 22.8821 39.1136 22.8414 39.1794C22.8008 39.2451 22.7736 39.3182 22.7613 39.3945C22.7491 39.4709 22.752 39.5488 22.77 39.624C22.788 39.6992 22.8207 39.77 22.8663 39.8325C22.9118 39.895 22.9692 39.9478 23.0352 39.988C23.1013 40.0282 23.1746 40.0549 23.251 40.0666C23.3274 40.0783 23.4053 40.0748 23.4804 40.0563C23.5554 40.0377 23.626 40.0045 23.6882 39.9586L23.7539 39.9105C23.8755 39.8173 23.9557 39.6801 23.9774 39.5285C23.999 39.3768 23.9605 39.2226 23.8699 39.0991C23.7793 38.9755 23.6439 38.8923 23.4927 38.8673C23.3415 38.8424 23.1866 38.8776 23.0611 38.9655Z" fill="#FFD993"/>
<path d="M44.4388 22.1993C44.4388 23.2881 44.2769 24.3391 43.9758 25.3295C43.9024 25.5715 43.7704 25.7917 43.5915 25.9706C43.4127 26.1494 43.1925 26.2814 42.9505 26.3548C41.9601 26.6559 40.9091 26.8178 39.8203 26.8178C38.7314 26.8178 37.6804 26.6559 36.69 26.3548C36.448 26.2814 36.2278 26.1494 36.049 25.9706C35.8702 25.7917 35.7382 25.5715 35.6647 25.3295C35.3637 24.3391 35.2017 23.288 35.2017 22.1993C35.2017 21.1105 35.3636 20.0595 35.6647 19.0691C35.7382 18.827 35.8702 18.6069 36.049 18.428C36.2278 18.2492 36.448 18.1172 36.69 18.0437C37.6804 17.7427 38.7314 17.5808 39.8203 17.5808C40.9091 17.5808 41.9601 17.7427 42.9505 18.0437C43.1925 18.1172 43.4127 18.2492 43.5915 18.428C43.7704 18.6069 43.9024 18.827 43.9758 19.0691C44.2769 20.0595 44.4388 21.1105 44.4388 22.1993ZM22.936 28.0881C23.7432 28.8954 24.3953 29.7991 24.8921 30.7623C24.9863 30.9452 25.0354 31.1481 25.0354 31.3539C25.0354 31.5597 24.9863 31.7626 24.8921 31.9455C24.3953 32.9087 23.7433 33.8124 22.936 34.6197C22.1287 35.427 21.225 36.079 20.2618 36.5758C20.0788 36.67 19.876 36.7192 19.6702 36.7192C19.4644 36.7192 19.2615 36.67 19.0785 36.5758C18.1154 36.079 17.2117 35.427 16.4044 34.6197C15.5971 33.8124 14.9451 32.9087 14.4483 31.9455C14.3541 31.7626 14.3049 31.5597 14.3049 31.3539C14.3049 31.1481 14.3541 30.9452 14.4483 30.7623C14.9451 29.7991 15.5971 28.8954 16.4044 28.0881C17.2117 27.2809 18.1154 26.6288 19.0785 26.132C19.2615 26.0378 19.4644 25.9886 19.6702 25.9886C19.876 25.9886 20.0788 26.0378 20.2618 26.132C21.225 26.6288 22.1287 27.2809 22.936 28.0881Z" fill="#FF2EA6"/>
<path d="M44.4388 22.1993C44.4388 23.2599 44.2852 24.2846 43.999 25.2525C43.92 25.519 43.7757 25.7616 43.5791 25.9582C43.3825 26.1548 43.1399 26.2991 42.8734 26.3781C41.9056 26.6642 40.8809 26.8179 39.8203 26.8179C39.7269 26.8179 39.6337 26.8167 39.5408 26.8143C39.1582 25.3685 38.9501 23.8158 38.9501 22.1994C38.9501 20.583 39.1581 19.0302 39.5408 17.5845C39.634 17.5821 39.7271 17.5809 39.8203 17.5809C40.8809 17.5809 41.9057 17.7345 42.8735 18.0207C43.14 18.0997 43.3826 18.244 43.5791 18.4406C43.7757 18.6371 43.92 18.8797 43.999 19.1463C44.2852 20.114 44.4388 21.1388 44.4388 22.1993ZM22.936 28.0881C23.7831 28.9352 24.4592 29.8885 24.9643 30.9052C25.0338 31.0446 25.07 31.1982 25.07 31.354C25.07 31.5097 25.0338 31.6633 24.9643 31.8027C24.4592 32.8194 23.783 33.7727 22.936 34.6197C22.8699 34.6858 22.8032 34.7508 22.7358 34.8148C21.4429 34.0631 20.1979 33.1121 19.0549 31.9692C17.9119 30.8263 16.9611 29.5813 16.2094 28.2883C16.2735 28.2208 16.3385 28.154 16.4044 28.0881C17.257 27.2355 18.2174 26.556 19.2415 26.0498C19.3748 25.9841 19.5215 25.9499 19.6701 25.9499C19.8187 25.9499 19.9653 25.9841 20.0986 26.0498C21.123 26.5559 22.0833 27.2355 22.936 28.0881Z" fill="#FF50B5"/>
<path d="M41.4558 37.7387C41.4558 38.642 40.7236 39.3743 39.8202 39.3743C38.9168 39.3743 38.1846 38.642 38.1846 37.7387C38.1846 36.8353 38.9168 36.1031 39.8202 36.1031C40.7236 36.1031 41.4558 36.8353 41.4558 37.7387ZM31.8146 41.1853C32.4534 41.8241 32.4534 42.8597 31.8146 43.4984C31.1759 44.1372 30.1403 44.1372 29.5015 43.4984C28.8628 42.8597 28.8628 41.8241 29.5015 41.1853C30.1403 40.5466 31.1759 40.5466 31.8146 41.1853Z" fill="#FFCD71"/>
<path d="M40.6015 37.7387C40.6015 38.1702 40.2518 38.5199 39.8203 38.5199C39.3888 38.5199 39.039 38.1702 39.039 37.7387C39.039 37.3072 39.3888 36.9574 39.8203 36.9574C40.2518 36.9574 40.6015 37.3072 40.6015 37.7387ZM31.2106 41.7895C31.5157 42.0945 31.5157 42.5892 31.2106 42.8943C30.9055 43.1994 30.4108 43.1994 30.1058 42.8943C29.8007 42.5892 29.8007 42.0945 30.1058 41.7895C30.4108 41.4844 30.9055 41.4844 31.2106 41.7895Z" fill="#FFC14F"/>
<path d="M41.6728 22.1993C41.6734 22.7333 41.5746 23.2627 41.3815 23.7605C40.8974 23.9486 40.3708 24.0518 39.8203 24.0518C39.2697 24.0518 38.7432 23.9486 38.2591 23.7605C38.0659 23.2627 37.9671 22.7333 37.9678 22.1993C37.9671 21.6653 38.0659 21.1359 38.2591 20.6381C38.7432 20.45 39.2697 20.3468 39.8203 20.3468C40.3708 20.3468 40.8974 20.45 41.3815 20.6381C41.5746 21.1359 41.6734 21.6653 41.6728 22.1993ZM20.98 30.0439C21.3581 30.421 21.6626 30.8653 21.8779 31.3539C21.6686 31.8292 21.3693 32.2745 20.98 32.6639C20.5908 33.0533 20.1454 33.3526 19.67 33.5618C19.1814 33.3464 18.7372 33.0419 18.36 32.6639C17.982 32.2868 17.6775 31.8425 17.4622 31.3539C17.6715 30.8786 17.9708 30.4333 18.36 30.044C18.7493 29.6547 19.1947 29.3553 19.67 29.1461C20.1586 29.3614 20.6029 29.6659 20.98 30.0439Z" fill="#BC157D"/>
<path d="M19.8729 26.7276L21.6407 28.4953C21.6697 28.5243 21.6927 28.5588 21.7084 28.5967C21.7241 28.6346 21.7322 28.6752 21.7322 28.7163C21.7322 28.7573 21.7241 28.798 21.7084 28.8359C21.6927 28.8738 21.6697 28.9082 21.6407 28.9373L19.8729 30.705C19.8439 30.734 19.8095 30.757 19.7716 30.7727C19.7336 30.7884 19.693 30.7965 19.652 30.7965C19.6109 30.7965 19.5703 30.7884 19.5324 30.7727C19.4945 30.757 19.46 30.734 19.431 30.705L17.6633 28.9373C17.6342 28.9082 17.6112 28.8738 17.5955 28.8359C17.5798 28.798 17.5717 28.7573 17.5717 28.7163C17.5717 28.6752 17.5798 28.6346 17.5955 28.5967C17.6112 28.5588 17.6342 28.5243 17.6633 28.4953L19.431 26.7276C19.46 26.6985 19.4945 26.6755 19.5324 26.6598C19.5703 26.6441 19.6109 26.636 19.652 26.636C19.693 26.636 19.7337 26.6441 19.7716 26.6598C19.8095 26.6755 19.8439 26.6985 19.8729 26.7276ZM16.0387 33.5724L15.3758 34.2353C15.3468 34.2643 15.3238 34.2988 15.3081 34.3367C15.2924 34.3746 15.2843 34.4152 15.2843 34.4563C15.2843 34.4973 15.2924 34.538 15.3081 34.5759C15.3238 34.6138 15.3468 34.6482 15.3758 34.6773L16.0387 35.3401C16.0677 35.3692 16.1022 35.3922 16.1401 35.4079C16.178 35.4236 16.2187 35.4317 16.2597 35.4317C16.3007 35.4317 16.3414 35.4236 16.3793 35.4079C16.4172 35.3922 16.4517 35.3692 16.4807 35.3401L17.1436 34.6773C17.1726 34.6482 17.1956 34.6138 17.2113 34.5759C17.227 34.538 17.2351 34.4973 17.2351 34.4563C17.2351 34.4152 17.227 34.3746 17.2113 34.3367C17.1956 34.2988 17.1726 34.2643 17.1436 34.2353L16.4807 33.5724C16.4517 33.5434 16.4172 33.5204 16.3793 33.5046C16.3414 33.4889 16.3007 33.4808 16.2597 33.4808C16.2187 33.4808 16.178 33.4889 16.1401 33.5046C16.1022 33.5204 16.0677 33.5434 16.0387 33.5724ZM33.2704 28.8183L32.6076 29.4812C32.5785 29.5102 32.5555 29.5446 32.5398 29.5825C32.5241 29.6205 32.516 29.6611 32.516 29.7021C32.516 29.7432 32.5241 29.7838 32.5398 29.8217C32.5555 29.8596 32.5785 29.8941 32.6076 29.9231L33.2704 30.586C33.2995 30.615 33.3339 30.638 33.3718 30.6538C33.4097 30.6695 33.4504 30.6775 33.4914 30.6775C33.5325 30.6775 33.5731 30.6695 33.611 30.6538C33.6489 30.638 33.6834 30.615 33.7124 30.586L34.3753 29.9231C34.4043 29.8941 34.4273 29.8596 34.443 29.8217C34.4587 29.7838 34.4668 29.7432 34.4668 29.7021C34.4668 29.6611 34.4587 29.6205 34.443 29.5825C34.4273 29.5446 34.4043 29.5102 34.3753 29.4812L33.7124 28.8183C33.6834 28.7893 33.6489 28.7662 33.611 28.7505C33.5731 28.7348 33.5325 28.7267 33.4914 28.7267C33.4504 28.7267 33.4097 28.7348 33.3718 28.7505C33.3339 28.7662 33.2995 28.7893 33.2704 28.8183ZM41.5086 18.8271L43.2763 20.5948C43.3053 20.6239 43.3283 20.6583 43.3441 20.6962C43.3598 20.7341 43.3678 20.7748 43.3678 20.8158C43.3678 20.8569 43.3598 20.8975 43.3441 20.9354C43.3283 20.9733 43.3053 21.0078 43.2763 21.0368L41.5086 22.8045C41.4796 22.8335 41.4451 22.8566 41.4072 22.8723C41.3693 22.888 41.3286 22.8961 41.2876 22.8961C41.2466 22.8961 41.2059 22.888 41.168 22.8723C41.1301 22.8566 41.0956 22.8335 41.0666 22.8045L39.2989 21.0368C39.2699 21.0078 39.2468 20.9733 39.2311 20.9354C39.2154 20.8975 39.2074 20.8569 39.2074 20.8158C39.2074 20.7748 39.2154 20.7341 39.2311 20.6962C39.2468 20.6583 39.2699 20.6239 39.2989 20.5948L41.0666 18.8271C41.0956 18.7981 41.1301 18.7751 41.168 18.7594C41.2059 18.7436 41.2466 18.7356 41.2876 18.7356C41.3286 18.7356 41.3693 18.7436 41.4072 18.7594C41.4451 18.7751 41.4796 18.7981 41.5086 18.8271Z" fill="white"/>
<path d="M23.1542 14.2005L22.4913 14.8634C22.4623 14.8924 22.4393 14.9268 22.4236 14.9648C22.4079 15.0027 22.3998 15.0433 22.3998 15.0843C22.3998 15.1254 22.4079 15.166 22.4236 15.2039C22.4393 15.2419 22.4623 15.2763 22.4913 15.3053L23.1542 15.9682C23.1832 15.9972 23.2177 16.0203 23.2556 16.036C23.2935 16.0517 23.3341 16.0598 23.3752 16.0598C23.4162 16.0598 23.4569 16.0517 23.4948 16.036C23.5327 16.0203 23.5671 15.9972 23.5962 15.9682L24.259 15.3053C24.2881 15.2763 24.3111 15.2419 24.3268 15.2039C24.3425 15.166 24.3506 15.1254 24.3506 15.0843C24.3506 15.0433 24.3425 15.0027 24.3268 14.9648C24.3111 14.9268 24.2881 14.8924 24.259 14.8634L23.5962 14.2005C23.5671 14.1715 23.5327 14.1484 23.4948 14.1327C23.4569 14.117 23.4162 14.1089 23.3752 14.1089C23.3341 14.1089 23.2935 14.117 23.2556 14.1327C23.2177 14.1484 23.1832 14.1715 23.1542 14.2005ZM23.1542 43.7818L22.4913 44.4447C22.4623 44.4737 22.4393 44.5082 22.4236 44.5461C22.4079 44.584 22.3998 44.6246 22.3998 44.6657C22.3998 44.7067 22.4079 44.7474 22.4236 44.7853C22.4393 44.8232 22.4623 44.8576 22.4913 44.8867L23.1542 45.5495C23.1832 45.5786 23.2177 45.6016 23.2556 45.6173C23.2935 45.633 23.3341 45.6411 23.3752 45.6411C23.4162 45.6411 23.4569 45.633 23.4948 45.6173C23.5327 45.6016 23.5671 45.5786 23.5962 45.5495L24.259 44.8867C24.2881 44.8576 24.3111 44.8232 24.3268 44.7853C24.3425 44.7474 24.3506 44.7067 24.3506 44.6657C24.3506 44.6246 24.3425 44.584 24.3268 44.5461C24.3111 44.5082 24.2881 44.4737 24.259 44.4447L23.5962 43.7818C23.5671 43.7528 23.5327 43.7298 23.4948 43.7141C23.4569 43.6984 23.4162 43.6903 23.3752 43.6903C23.3341 43.6903 23.2935 43.6984 23.2556 43.7141C23.2177 43.7298 23.1832 43.7528 23.1542 43.7818Z" fill="#FFC7E7"/>
<path d="M27.2475 20.0507L26.5846 20.7136C26.5556 20.7426 26.5325 20.7771 26.5168 20.815C26.5011 20.8529 26.493 20.8935 26.493 20.9346C26.493 20.9756 26.5011 21.0162 26.5168 21.0542C26.5325 21.0921 26.5556 21.1265 26.5846 21.1555L27.2475 21.8184C27.2765 21.8475 27.3109 21.8705 27.3489 21.8862C27.3868 21.9019 27.4274 21.91 27.4684 21.91C27.5095 21.91 27.5501 21.9019 27.588 21.8862C27.626 21.8705 27.6604 21.8475 27.6894 21.8184L28.3523 21.1555C28.3813 21.1265 28.4044 21.0921 28.4201 21.0542C28.4358 21.0162 28.4438 20.9756 28.4438 20.9346C28.4438 20.8935 28.4358 20.8529 28.4201 20.815C28.4044 20.7771 28.3813 20.7426 28.3523 20.7136L27.6894 20.0507C27.6604 20.0217 27.626 19.9987 27.588 19.983C27.5501 19.9673 27.5095 19.9592 27.4684 19.9592C27.4274 19.9592 27.3868 19.9673 27.3489 19.983C27.3109 19.9987 27.2765 20.0217 27.2475 20.0507ZM36.1997 44.363L35.5368 45.0259C35.5078 45.055 35.4848 45.0894 35.4691 45.1273C35.4534 45.1652 35.4453 45.2059 35.4453 45.2469C35.4453 45.288 35.4534 45.3286 35.4691 45.3665C35.4848 45.4044 35.5078 45.4389 35.5368 45.4679L36.1997 46.1308C36.2288 46.1598 36.2632 46.1828 36.3011 46.1985C36.339 46.2142 36.3797 46.2223 36.4207 46.2223C36.4617 46.2223 36.5024 46.2142 36.5403 46.1985C36.5782 46.1828 36.6127 46.1598 36.6417 46.1308L37.3046 45.4679C37.3336 45.4389 37.3566 45.4044 37.3723 45.3665C37.388 45.3286 37.3961 45.288 37.3961 45.2469C37.3961 45.2059 37.388 45.1652 37.3723 45.1273C37.3566 45.0894 37.3336 45.055 37.3046 45.0259L36.6417 44.363C36.6127 44.334 36.5782 44.311 36.5403 44.2953C36.5024 44.2796 36.4617 44.2715 36.4207 44.2715C36.3797 44.2715 36.339 44.2796 36.3011 44.2953C36.2632 44.311 36.2288 44.334 36.1997 44.363Z" fill="#958FCA"/>
<defs>
<filter id="filter0_bi_25_407" x="-24" y="-24" width="108" height="108" filterUnits="userSpaceOnUse" color-interpolation-filters="sRGB">
<feFlood flood-opacity="0" result="BackgroundImageFix"/>
<feGaussianBlur in="BackgroundImageFix" stdDeviation="12"/>
<feComposite in2="SourceAlpha" operator="in" result="effect1_backgroundBlur_25_407"/>
<feBlend mode="normal" in="SourceGraphic" in2="effect1_backgroundBlur_25_407" result="shape"/>
<feColorMatrix in="SourceAlpha" type="matrix" values="0 0 0 0 0 0 0 0 0 0 0 0 0 0 0 0 0 0 127 0" result="hardAlpha"/>
<feOffset/>
<feGaussianBlur stdDeviation="8"/>
<feComposite in2="hardAlpha" operator="arithmetic" k2="-1" k3="1"/>
<feColorMatrix type="matrix" values="0 0 0 0 0 0 0 0 0 0 0 0 0 0 0 0 0 0 1 0"/>
<feBlend mode="normal" in2="shape" result="effect2_innerShadow_25_407"/>
</filter>
<linearGradient id="paint0_linear_25_407" x1="30" y1="0" x2="30" y2="60" gradientUnits="userSpaceOnUse">
<stop stop-opacity="0"/>
<stop offset="1" stop-color="white"/>
</linearGradient>
</defs>
</svg>
