<svg width="60" height="60" viewBox="0 0 60 60" fill="none" xmlns="http://www.w3.org/2000/svg">
<g filter="url(#filter0_bi_25_484)">
<rect width="60" height="60" rx="30" fill="black" fill-opacity="0.24"/>
<rect x="0.5" y="0.5" width="59" height="59" rx="29.5" stroke="url(#paint0_linear_25_484)" stroke-opacity="0.4"/>
</g>
<path d="M14.1229 23.801C14.1229 23.801 14.1049 23.344 14.5439 23.016C14.9169 22.738 15.1199 22.259 15.0919 21.99C15.0639 21.721 15.8979 21.927 15.9399 22.184C15.9819 22.441 15.4129 23.216 15.3479 23.274C15.2839 23.332 14.1229 23.801 14.1229 23.801ZM19.4899 16.467C18.3719 17.057 18.3819 17.542 18.1859 18.241L20.5259 18.53" fill="#F3A250"/>
<path d="M18.6219 36.952C18.3609 36.67 18.6709 36.345 19.0389 36.429C19.1389 36.594 19.1689 36.725 19.1339 36.812C19.7299 36.954 20.1929 36.917 20.4919 36.849C20.6149 36.828 20.6299 36.664 20.5119 36.616C19.7939 36.347 18.8839 35.591 18.6019 34.861C18.4459 34.511 18.6739 34.261 18.9579 34.356C18.9579 34.356 19.6779 34.996 20.3919 35.041C23.7389 35.218 24.7719 31.436 24.7719 31.436C26.3589 31.92 27.7519 32.402 27.5419 34.372C24.9619 39.018 20.5979 38.959 18.6219 36.952Z" fill="#CC104A"/>
<path d="M27.18 34.05C24.69 38.43 21.02 38.54 18.91 36.68C18.788 36.578 18.899 36.393 19.03 36.43C19.83 36.62 20.42 36.55 20.77 36.44C20.89 36.41 20.89 36.25 20.77 36.21C20.03 35.991 19.08 35.31 18.73 34.6C18.66 34.45 18.82 34.29 18.96 34.36C19.29 34.491 19.82 34.66 20.54 34.64C23.881 34.579 24.567 30.841 24.63 30.741C26.25 31.101 27.25 32.081 27.18 34.051V34.05Z" fill="#FA5F7F"/>
<path d="M27.18 34.05C24.69 38.43 21.02 38.54 18.91 36.68C18.85 36.63 18.84 36.56 18.88 36.5C21.832 37.84 24.45 36.704 25.36 34.92C25.53 34.6 25.54 34.39 25.43 34.04C25.15 33.216 24.355 32.997 23.79 32.741C24.438 31.77 24.59 30.841 24.63 30.741C26.25 31.101 27.25 32.081 27.18 34.051V34.05Z" fill="#E93565"/>
<path d="M30.5939 22.797L22.8239 31.477C20.5939 31.274 16.1929 32.597 15.1039 30.737C14.5239 29.727 14.1939 28.567 14.0739 27.297C13.9469 26.09 14.0149 24.606 14.1339 23.727C14.1959 23.29 14.8139 23.227 15.1439 22.567C15.4089 22.067 14.3149 21.044 15.0039 20.097C15.6039 19.217 16.2839 18.487 17.1139 18.007C17.2039 17.947 17.3139 17.937 17.4139 17.967C17.7439 18.057 18.5339 18.367 18.5939 18.067C18.7769 17.412 18.8539 16.801 19.5439 16.437C22.2639 14.947 25.2539 15.727 26.6439 16.207C27.1739 16.397 27.6039 16.767 27.8739 17.247C28.9439 19.207 29.1739 20.727 30.0239 22.047C30.0439 22.077 30.0539 22.097 30.0839 22.127C30.2239 22.357 30.3939 22.587 30.5939 22.797Z" fill="#FFD475"/>
<path d="M20.3909 29.807C21.7249 29.722 23.0909 29.556 24.3999 29.719L22.8199 31.479C20.0149 31.304 18.4589 32.148 16.1859 31.531C15.7519 31.411 15.3379 31.146 15.1059 30.741C14.5219 29.731 14.1939 28.572 14.0759 27.295C15.1039 29.675 17.8099 29.98 20.3909 29.807Z" fill="#FFB961"/>
<path d="M30.5939 22.797L22.8239 31.477C22.7139 31.467 22.6039 31.467 22.4939 31.467C22.4379 31.2983 22.401 31.1239 22.3839 30.947C22.0379 27.701 26.4699 21.995 30.0839 22.127C30.2239 22.357 30.3939 22.587 30.5939 22.797Z" fill="#F3A250"/>
<path d="M33.474 23.817L31.244 24.537C31.244 24.537 29.694 25.187 27.144 28.497C24.604 31.807 26.094 33.627 26.094 33.627L25.734 33.607C25.734 33.607 24.794 32.457 24.124 32.437C23.444 32.417 23.344 32.417 23.134 32.297C22.894 32.167 22.634 31.797 22.564 31.127C22.514 30.717 22.554 30.207 22.694 29.617V29.607C22.974 28.427 23.684 26.937 25.024 25.327C27.044 22.907 29.644 21.937 30.894 22.417C31.024 22.467 31.144 22.517 31.234 22.597C31.604 22.977 32.454 23.557 33.474 23.817Z" fill="#FA5F7F"/>
<path d="M33.404 23.837L31.244 24.537C31.244 24.537 29.694 25.187 27.144 28.497C24.604 31.807 26.094 33.627 26.094 33.627L25.734 33.607C25.734 33.607 24.794 32.457 24.124 32.437C23.444 32.417 23.344 32.417 23.134 32.297C22.894 32.167 22.634 31.797 22.564 31.127C22.514 30.717 22.554 30.207 22.694 29.617C22.574 30.965 23.06 31.32 24.004 31.577C24.876 31.835 25.114 31.54 25.284 30.667C26.174 25.844 31.211 23.194 33.404 23.837Z" fill="#F45170"/>
<path d="M26.042 33.849L25.902 33.758C25.684 33.591 25.408 33.252 25.334 32.585C25.199 31.365 25.774 29.2 27.794 26.781C29.812 24.366 32.416 23.393 33.671 23.875C33.795 23.923 33.907 23.985 34.005 24.06C34.205 24.213 34.327 24.43 34.357 24.689C34.454 25.506 33.581 26.648 32.134 28.431C31.834 28.802 31.541 29.161 31.29 29.491C27.03 35.05 26.142 33.809 26.042 33.849Z" fill="#CC104A"/>
<path d="M45.3939 27.417L45.2439 27.817C45.2439 27.817 39.4439 28.027 37.0739 30.237C34.7039 32.437 31.9339 33.227 31.9639 38.617C31.9739 44.017 35.6539 42.017 35.6539 42.017L34.6639 43.797C34.6639 43.797 30.6039 42.577 29.0439 37.527C28.1539 34.657 26.2639 33.297 26.2639 33.297C25.5819 32.701 26.0009 31.085 26.3339 30.237C27.7769 26.649 30.9489 24.379 32.8639 24.327C33.2039 24.327 33.4739 24.387 33.6439 24.517C33.6439 24.517 35.9239 25.417 39.1539 25.377C42.3469 25.351 45.2939 27.377 45.3939 27.417Z" fill="#FFD475"/>
<path d="M45.3919 27.418L45.2419 27.818C45.2419 27.818 39.4419 28.028 37.0819 30.238C34.7019 32.438 31.9419 33.228 31.9619 38.618C31.9719 44.018 35.6519 42.018 35.6519 42.018L34.6619 43.798C34.6619 43.798 30.6019 42.578 29.0419 37.528C28.1519 34.658 26.2619 33.298 26.2619 33.298C25.5919 32.628 25.9959 31.117 26.3319 30.238C27.6159 30.737 30.0949 32.453 32.2119 31.648C33.3619 31.198 34.1119 30.098 34.9719 29.198C36.9219 27.148 39.7619 25.988 42.5819 26.028C44.2319 26.618 45.3919 27.418 45.3919 27.418Z" fill="#FFB961"/>
<path d="M32.8639 24.327C29.1889 25.284 26.5869 29.664 26.2639 33.297C25.5819 32.701 26.0009 31.085 26.3339 30.237C27.7769 26.649 30.9489 24.379 32.8639 24.327Z" fill="#F3A250"/>
<path d="M43.6699 31.163C43.6699 31.163 46.5579 33.453 45.5669 36.896C44.5759 40.339 42.3299 43.119 39.9969 43.766C37.6639 44.413 34.0339 43.791 33.2899 42.604C32.5459 41.418 31.0579 38.93 32.5159 35.578C33.9739 32.226 39.9029 29.314 41.0349 29.624C42.1659 29.934 43.6699 31.163 43.6699 31.163Z" fill="#FFB961"/>
<path d="M36.7389 34.52C36.7389 34.52 38.4609 31.783 40.7339 32.799C43.0079 33.815 43.2999 35.813 42.9739 37.087C42.6479 38.361 40.7689 40.204 39.2019 40.755C37.6339 41.306 38.0189 41.065 38.0189 41.065C34.2499 42.063 33.4939 39.863 34.3069 35.995L36.7389 34.52Z" fill="#F3A250"/>
<path d="M35.88 39.154C35.573 34.765 37.628 31.034 42.272 33.264C41.3539 32.4294 40.4031 31.6315 39.422 30.872C39.422 30.872 36.691 31.343 35.222 33.931C33.753 36.519 34.272 36.16 34.272 36.16C34.842 37.316 35.395 38.389 35.88 39.154Z" fill="#FFD475"/>
<path d="M39.8129 38.239C39.8129 38.239 40.3579 36.319 39.9539 36.027C39.5499 35.734 36.6349 34.765 36.6349 34.765L35.9349 36.956L39.8129 38.239Z" fill="#FFB961"/>
<path d="M39.587 36.16L36.505 35.061L36.809 34.37C37.656 34.679 39.863 35.459 40.076 35.664C40.323 35.896 39.587 36.16 39.587 36.16Z" fill="#FFDE9B"/>
<path d="M37.397 34.584C37.307 34.72 37.13 35.071 37.073 35.267L36.505 35.061L36.809 34.37C36.809 34.37 37.051 34.45 37.397 34.584Z" fill="#FFD475"/>
<path d="M31.958 38.624C31.958 38.624 33.855 41.895 36.015 41.818L35.635 41.244C35.635 41.244 34.577 41.282 34.012 39.698C33.748 38.958 33.76 38.15 33.948 37.388C34.421 35.474 35.036 33.298 36.52 32.302C38.253 31.138 42.458 29.725 44.05 31.509L44.807 31.799C44.177 30.899 43.008 29.827 40.583 28.702C36.186 29.367 31.798 33.972 31.958 38.624Z" fill="#FFB961"/>
<path d="M41.312 29.058C39.872 29.498 38.202 30.218 36.492 31.388C33.512 33.408 32.362 36.788 32.522 39.268C32.532 39.348 32.532 39.428 32.552 39.508C32.182 39.008 31.962 38.628 31.962 38.628C31.859 35.575 33.779 32.409 36.102 30.808C37.362 29.948 38.592 29.328 39.732 28.878C39.752 28.868 39.762 28.858 39.772 28.868C40.042 28.798 40.312 28.738 40.582 28.698C40.842 28.818 41.082 28.938 41.312 29.058Z" fill="#DD8536"/>
<path d="M39.8539 37.967C39.8539 37.967 39.4739 39.287 37.4439 39.607C35.4239 39.927 36.1339 36.717 36.1339 36.717L39.8539 37.967Z" fill="#FFB961"/>
<path d="M45.355 28.113C45.318 28.111 40.924 27.937 36.225 31.138C33.247 33.161 32.095 36.546 32.261 39.021C32.4 40.889 33.248 42.334 34.595 43.001C35.865 43.639 38.107 44.078 40.262 43.291C42.118 42.601 43.542 41.161 44.459 39.003C46.768 33.664 43.942 30.467 40.644 30.924C38.674 31.198 36.086 32.178 34.87 35.339C33.741 38.273 34.172 39.706 34.724 40.403C35.291 41.093 36.102 41.182 36.487 41.119C39.7 40.615 41.723 39.33 42.502 37.306C43.944 33.556 38.723 30.854 36.865 34.74C36.035 36.446 35.924 38.317 36.625 38.984C37.159 39.501 38.051 39.185 38.71 38.829C40.142 38.047 40.211 36.794 39.587 36.159C39.439 36.013 39.927 35.517 40.077 35.664C41.027 36.609 40.911 38.43 39.045 39.444C35.661 41.258 34.562 37.861 36.237 34.436C38.562 29.692 44.884 33.051 43.152 37.556C42.282 39.818 40.075 41.256 36.595 41.806C35.881 41.917 34.861 41.662 34.183 40.841C33.513 39.999 32.971 38.337 34.22 35.089C35.628 31.43 38.788 30.483 40.551 30.229C44.321 29.696 47.651 33.369 45.096 39.285C43.102 43.945 38.675 45.341 34.856 43.872C29.853 41.947 30.808 33.986 35.836 30.566C40.736 27.231 45.203 27.408 45.397 27.421C45.6 27.433 45.711 28.127 45.355 28.113Z" fill="#FFDE9B"/>
<path d="M22.468 17.45C21.082 17.57 20.035 17.932 19.96 17.388C19.885 16.848 20.953 16.291 22.338 16.17C23.724 16.05 24.751 16.505 24.826 17.044C24.901 17.588 23.853 17.329 22.468 17.45ZM26.77 17.201C26.69 17.478 26.31 17.611 25.93 17.503C25.548 17.396 25.304 17.089 25.385 16.812C25.465 16.541 25.837 16.407 26.219 16.514C26.6 16.621 26.849 16.93 26.77 17.201Z" fill="white" fill-opacity="0.376471"/>
<path d="M20.61 24.283C20.511 24.305 20.433 24.203 20.48 24.116C21.062 23.032 21.016 22.992 20.337 24.03C20.3246 24.0486 20.3072 24.0632 20.2869 24.0724C20.2665 24.0816 20.244 24.0848 20.2219 24.0818C20.1998 24.0788 20.179 24.0696 20.1618 24.0553C20.1447 24.041 20.1319 24.0222 20.125 24.001C19.362 21.536 19.261 21.595 19.835 24.077C19.858 24.173 19.755 24.25 19.665 24.204C18.58 23.637 18.507 23.663 19.583 24.346C19.6015 24.3579 19.6162 24.3748 19.6254 24.3948C19.6346 24.4148 19.6379 24.437 19.6348 24.4588C19.6318 24.4806 19.6225 24.5011 19.6082 24.5178C19.5939 24.5344 19.575 24.5467 19.554 24.553C17.054 25.289 17.105 25.39 19.634 24.838C19.731 24.817 19.809 24.918 19.763 25.006C19.159 26.129 19.258 26.086 19.905 25.088C19.9174 25.0697 19.9346 25.0552 19.9548 25.0462C19.9749 25.0372 19.9972 25.0339 20.0191 25.0368C20.041 25.0397 20.0617 25.0487 20.0788 25.0627C20.0959 25.0766 20.1088 25.0951 20.116 25.116C20.859 27.513 20.997 27.594 20.406 25.041C20.384 24.945 20.486 24.868 20.576 24.914C21.73 25.514 21.681 25.414 20.66 24.776C20.6411 24.7643 20.626 24.7474 20.6166 24.7274C20.6071 24.7073 20.6036 24.6849 20.6066 24.6629C20.6096 24.641 20.6188 24.6203 20.6333 24.6035C20.6477 24.5866 20.6667 24.5743 20.688 24.568C23.099 23.858 23.234 23.709 20.61 24.283Z" fill="white"/>
<defs>
<filter id="filter0_bi_25_484" x="-24" y="-24" width="108" height="108" filterUnits="userSpaceOnUse" color-interpolation-filters="sRGB">
<feFlood flood-opacity="0" result="BackgroundImageFix"/>
<feGaussianBlur in="BackgroundImageFix" stdDeviation="12"/>
<feComposite in2="SourceAlpha" operator="in" result="effect1_backgroundBlur_25_484"/>
<feBlend mode="normal" in="SourceGraphic" in2="effect1_backgroundBlur_25_484" result="shape"/>
<feColorMatrix in="SourceAlpha" type="matrix" values="0 0 0 0 0 0 0 0 0 0 0 0 0 0 0 0 0 0 127 0" result="hardAlpha"/>
<feOffset/>
<feGaussianBlur stdDeviation="8"/>
<feComposite in2="hardAlpha" operator="arithmetic" k2="-1" k3="1"/>
<feColorMatrix type="matrix" values="0 0 0 0 0 0 0 0 0 0 0 0 0 0 0 0 0 0 1 0"/>
<feBlend mode="normal" in2="shape" result="effect2_innerShadow_25_484"/>
</filter>
<linearGradient id="paint0_linear_25_484" x1="30" y1="0" x2="30" y2="60" gradientUnits="userSpaceOnUse">
<stop stop-opacity="0"/>
<stop offset="1" stop-color="white"/>
</linearGradient>
</defs>
</svg>
