<svg width="60" height="60" viewBox="0 0 60 60" fill="none" xmlns="http://www.w3.org/2000/svg">
<g filter="url(#filter0_bi_25_514)">
<rect width="60" height="60" rx="30" fill="black" fill-opacity="0.24"/>
<rect x="0.5" y="0.5" width="59" height="59" rx="29.5" stroke="url(#paint0_linear_25_514)" stroke-opacity="0.4"/>
</g>
<g clip-path="url(#clip0_25_514)">
<path d="M47.3596 27.2317C47.3343 27.0886 47.3064 26.9455 47.2773 26.8023C47.0468 25.6763 46.7035 24.5692 46.2551 23.5103C46.1132 23.1733 45.9587 22.8402 45.7953 22.5121C45.4533 21.8281 45.067 21.1657 44.6388 20.5323C44.0118 19.6039 43.2924 18.7324 42.4994 17.9395C41.7065 17.1465 40.8338 16.4271 39.9066 15.8001C38.9692 15.1667 37.9673 14.6233 36.9286 14.1838C35.871 13.7367 34.7626 13.3921 33.6366 13.1616C33.4618 13.1261 33.287 13.0932 33.1109 13.0628C32.1229 12.8918 31.1134 12.8057 30.1051 12.8057C29.1526 12.8057 28.2013 12.8829 27.2665 13.0349C27.0347 13.0729 26.8029 13.1147 26.5736 13.1616C25.4476 13.3921 24.3405 13.7354 23.2816 14.1838C22.2429 14.6233 21.241 15.1667 20.3036 15.8001C19.3752 16.4271 18.5037 17.1465 17.7108 17.9395C16.9178 18.7324 16.1996 19.6051 15.5726 20.5323C15.0432 21.3151 14.577 22.1435 14.1818 23.0011C14.1046 23.1695 14.0286 23.3393 13.9564 23.5103C13.5092 24.5679 13.1647 25.6763 12.9342 26.8023C12.8822 27.0582 12.8354 27.3141 12.7948 27.5725C12.6504 28.4819 12.5782 29.4079 12.5782 30.3338C12.5782 31.5219 12.6986 32.7101 12.9342 33.8653C13.1647 34.9913 13.508 36.0984 13.9564 37.1573C14.3959 38.196 14.9393 39.1979 15.5726 40.1353C16.1984 41.0612 16.9166 41.9327 17.707 42.7231L17.712 42.7281C18.505 43.5211 19.3777 44.2405 20.3049 44.8675C20.7609 45.1753 21.2321 45.4616 21.7147 45.7263C22.2252 46.005 22.7483 46.2583 23.2828 46.4838C24.3405 46.9309 25.4488 47.2755 26.5749 47.506C27.7301 47.7429 28.9182 47.8619 30.1064 47.8619C31.2945 47.8619 32.4826 47.7416 33.6378 47.506C34.7639 47.2755 35.871 46.9322 36.9299 46.4838C37.4404 46.2685 37.9407 46.0278 38.4296 45.7631C38.9363 45.4895 39.4303 45.1893 39.9078 44.8675C40.8363 44.2405 41.7078 43.5211 42.5007 42.7281C42.5704 42.6585 42.64 42.5875 42.7084 42.5166C43.4203 41.7807 44.0688 40.9814 44.6401 40.1353C45.2734 39.1979 45.8168 38.196 46.2564 37.1573C46.7035 36.0997 47.048 34.9913 47.2786 33.8653C47.5154 32.7101 47.6345 31.5219 47.6345 30.3338C47.6332 29.2913 47.5408 28.2501 47.3596 27.2317ZM44.1828 36.277C43.8003 37.1814 43.3266 38.0554 42.7743 38.8711C42.54 39.2182 42.2904 39.5564 42.027 39.8845C41.6774 40.3202 41.3024 40.7382 40.9085 41.1321C40.2169 41.8237 39.4556 42.452 38.6462 42.9979C37.904 43.4995 37.1136 43.9365 36.2966 44.3001C36.2155 44.3368 36.1332 44.371 36.0521 44.4065C34.1698 45.2032 32.1685 45.606 30.1051 45.606C28.0417 45.606 26.0416 45.2019 24.1581 44.4065C24.1201 44.39 24.0821 44.3748 24.0454 44.3583C23.1802 43.9847 22.3468 43.5274 21.564 42.9979C20.7546 42.4507 19.9933 41.8237 19.3017 41.1321C19.0319 40.8623 18.771 40.5811 18.5214 40.2911C18.1313 39.8389 17.769 39.3626 17.4359 38.8699C16.8836 38.0529 16.4099 37.1801 16.0274 36.2757C15.2306 34.3935 14.8278 32.3921 14.8278 30.3287C14.8278 29.9449 14.8418 29.5637 14.8696 29.1849C14.9912 27.5256 15.3801 25.9144 16.0274 24.3817C16.2478 23.8599 16.4998 23.3481 16.7785 22.8516C16.9824 22.4881 17.2028 22.1321 17.4359 21.7863C17.9831 20.9769 18.6101 20.2157 19.3017 19.5241C19.9933 18.8325 20.7546 18.2042 21.564 17.6583C22.381 17.106 23.2537 16.6323 24.1581 16.2497C24.8763 15.9457 25.611 15.7 26.3608 15.5113C27.5768 15.2047 28.8283 15.0502 30.1051 15.0502C31.4617 15.0502 32.7917 15.225 34.0786 15.5708C34.7487 15.7507 35.4061 15.9774 36.0508 16.2497C36.9552 16.6323 37.8292 17.106 38.645 17.6583C39.4544 18.2055 40.2156 18.8325 40.9072 19.5241C41.5988 20.2157 42.2271 20.9769 42.773 21.7863C42.9491 22.0473 43.1176 22.3133 43.2759 22.5843C43.6166 23.1632 43.9206 23.7649 44.1803 24.3817C44.8187 25.8903 45.2038 27.4737 45.333 29.1039C45.3646 29.5092 45.3811 29.9171 45.3811 30.3275C45.3836 32.3934 44.9796 34.3935 44.1828 36.277Z" fill="#F6C20B"/>
<path d="M34.08 15.5784C32.7931 15.2326 31.4631 15.0578 30.1065 15.0578C28.8309 15.0578 27.5782 15.2123 26.3635 15.5189L27.2691 13.0349C28.2039 12.8829 29.1552 12.8057 30.1077 12.8057C31.1173 12.8057 32.1255 12.8918 33.1135 13.0628L34.08 15.5784ZM47.3597 27.2317L45.3343 29.1102C45.2064 27.48 44.8201 25.8954 44.1829 24.3881C43.922 23.7712 43.6193 23.1708 43.2785 22.5907L45.7979 22.5121C45.9613 22.8402 46.1159 23.1733 46.2577 23.5103C46.7049 24.5679 47.0494 25.6763 47.2799 26.8023C47.3065 26.9442 47.3344 27.0873 47.3597 27.2317ZM42.7073 42.5153C42.6389 42.5863 42.5692 42.6572 42.4995 42.7269C41.7066 43.5198 40.8339 44.2393 39.9067 44.8663C39.4291 45.1893 38.9351 45.4882 38.4285 45.7618L36.2967 44.3026C37.1137 43.9391 37.9041 43.5021 38.6463 43.0005C39.4557 42.4533 40.2157 41.8263 40.9073 41.1347C41.3025 40.7395 41.6762 40.3227 42.0258 39.887L42.7073 42.5153ZM24.0467 44.3609L21.7161 45.7251C21.2322 45.4616 20.7623 45.1741 20.3063 44.8663C19.3778 44.2393 18.5063 43.5198 17.7134 42.7269L17.7083 42.7218L18.5253 40.2936C18.7749 40.5837 19.0358 40.8649 19.3056 41.1347C19.9972 41.8263 20.7585 42.4545 21.5666 43.0005C22.3481 43.5287 23.1829 43.9859 24.0467 44.3609ZM16.7811 22.8579C16.5025 23.3545 16.2504 23.8662 16.03 24.3881C15.3815 25.9207 14.9939 27.5319 14.8723 29.19L12.7949 27.5725C12.8355 27.3141 12.8823 27.0569 12.9343 26.8023C13.1648 25.6763 13.5081 24.5692 13.9565 23.5103C14.0287 23.3393 14.1034 23.1695 14.1819 23.0011L16.7811 22.8579Z" fill="#F09015" fill-opacity="0.2"/>
<path d="M48.7518 23.9156C48.5985 23.4875 48.1894 23.2037 47.7334 23.2113L37.7318 23.376L35.2833 23.4165L34.46 20.9301L31.116 10.8309C30.9728 10.3952 30.565 10.1013 30.1077 10.1013H30.0988C29.6378 10.1051 29.2312 10.4053 29.0918 10.8449L25.9644 20.754L25.1107 23.4583L22.1695 23.5255L12.254 23.7535C11.7968 23.7636 11.3978 24.0651 11.2622 24.5021C11.1267 24.9391 11.2863 25.4128 11.6562 25.6801L19.7236 31.4877L21.9605 33.0977L21.065 35.5107L17.4233 45.3273C17.2637 45.7593 17.3992 46.2444 17.759 46.5307C18.12 46.8169 18.6228 46.8385 19.0066 46.5839L28.2064 40.4912L30.209 39.165L32.066 40.4443L41.1188 46.6852C41.3012 46.8106 41.5115 46.8727 41.7218 46.8727C41.9485 46.8727 42.1752 46.8005 42.3652 46.6561C42.7313 46.3787 42.877 45.8973 42.7262 45.4629L39.1644 35.1484L38.4424 33.0559L40.293 31.5802L48.4136 25.105C48.7708 24.8225 48.9063 24.3437 48.7518 23.9156ZM40.2816 28.8809L36.5335 31.8703C36.1814 32.1515 36.0446 32.6239 36.1915 33.0495L37.6583 37.2967L39.666 43.1107L34.579 39.6045L30.8259 37.018C30.6448 36.8926 30.4332 36.8305 30.2217 36.8305C30.0178 36.8305 29.8126 36.8888 29.634 37.0079L25.6022 39.678L20.5482 43.0245L22.5888 37.5247L24.2354 33.0875C24.4014 32.6391 24.2481 32.1337 23.8592 31.8538L19.7476 28.8936L15.4688 25.8131L20.7293 25.6927L25.9176 25.5737C26.3723 25.5635 26.77 25.2646 26.9081 24.8301L28.4142 20.0586L30.1292 14.6221L31.9482 20.1156L33.51 24.8339C33.6544 25.2697 34.0622 25.5635 34.5195 25.5635C34.5258 25.5635 34.5309 25.5635 34.5372 25.5673L39.1935 25.4913H44.6516L40.2816 28.8809Z" fill="#F6C20B"/>
<path d="M24.2354 33.0875L22.5887 37.5247C22.0035 36.923 21.4893 36.2504 21.0637 35.5208L21.9592 33.1065L19.721 31.4953C19.6754 31.1027 19.6526 30.7024 19.6526 30.2971C19.6526 29.8208 19.6843 29.3521 19.7476 28.8923L23.8592 31.8525C24.2481 32.1337 24.4013 32.6379 24.2354 33.0875ZM28.4141 20.0586L26.9093 24.8301C26.7725 25.2646 26.3748 25.5635 25.9188 25.5737L20.7305 25.6927C21.1194 24.9112 21.6033 24.1854 22.1669 23.5318L25.1094 23.4647L25.9631 20.7591C26.7371 20.4297 27.5579 20.1916 28.4141 20.0586ZM34.5777 39.6045C33.7924 39.9909 32.9501 40.2797 32.0672 40.457L30.2103 39.1764L28.2077 40.5026C27.2919 40.3417 26.4179 40.0605 25.6034 39.6767L29.6352 37.0066C29.8138 36.8888 30.0177 36.8293 30.2229 36.8293C30.4345 36.8293 30.6447 36.8913 30.8271 37.0167L34.5777 39.6045ZM39.1985 25.4913L34.5372 25.5673H34.5195C34.0609 25.5673 33.6531 25.2735 33.5087 24.8377L31.9443 20.1143C32.8272 20.2815 33.6708 20.5589 34.4599 20.9351L35.2845 23.4267L37.7343 23.3861C38.3055 24.0207 38.7983 24.7288 39.1985 25.4913ZM40.298 31.5891L38.4474 33.0647L39.1707 35.1573C38.7577 35.9337 38.2485 36.6519 37.6583 37.2954L36.1915 33.0483C36.0445 32.6227 36.1813 32.1502 36.5335 31.869L40.2815 28.8797C40.3449 29.3433 40.3778 29.8157 40.3778 30.2971C40.3778 30.7353 40.3499 31.166 40.298 31.5891Z" fill="#F09015" fill-opacity="0.2"/>
<path d="M30.0951 39.7287C35.3103 39.7287 39.5381 35.5009 39.5381 30.2857C39.5381 25.0704 35.3103 20.8427 30.0951 20.8427C24.8799 20.8427 20.6521 25.0704 20.6521 30.2857C20.6521 35.5009 24.8799 39.7287 30.0951 39.7287Z" fill="#F6C20B"/>
<path d="M30.1077 38.3733C34.5464 38.3733 38.1447 34.775 38.1447 30.3363C38.1447 25.8976 34.5464 22.2993 30.1077 22.2993C25.669 22.2993 22.0707 25.8976 22.0707 30.3363C22.0707 34.775 25.669 38.3733 30.1077 38.3733Z" fill="#F09015" fill-opacity="0.2"/>
<path d="M37.7027 30.2844C37.7027 34.4923 34.2916 37.9047 30.0824 37.9047H30.0774C25.8758 37.9021 22.4698 34.4973 22.4622 30.2971V30.2882C22.4622 26.0791 25.8746 22.6667 30.0837 22.6667H30.0875C34.2941 22.6679 37.7027 26.0791 37.7027 30.2844Z" fill="#A866F2"/>
<path d="M37.7039 30.292H30.0887V22.6717C34.2953 22.6743 37.7039 26.0854 37.7039 30.292ZM30.0887 30.3047V37.9148C25.8859 37.9123 22.4798 34.5075 22.4735 30.3047H30.0887Z" fill="#764DBB" fill-opacity="0.266667"/>
<path d="M34.8589 30.2932C34.8589 32.7746 32.9589 34.8127 30.5345 35.0318C30.3914 35.0445 30.247 35.0508 30.1013 35.0508C29.7935 35.0508 29.4921 35.0217 29.2008 34.966C28.689 34.8672 28.2051 34.6873 27.7656 34.439C27.0233 34.0198 26.4052 33.408 25.9796 32.6708C25.5755 31.9716 25.3438 31.1596 25.3438 30.2932C25.3438 27.765 27.3147 25.6978 29.8037 25.5445C29.9025 25.5382 30.0013 25.5356 30.1013 25.5356C30.8803 25.5356 31.6163 25.7231 32.2648 26.055C32.7234 26.2893 33.1388 26.5958 33.496 26.9606C33.8076 27.2786 34.0761 27.6396 34.2889 28.0348C34.6525 28.7074 34.8589 29.4762 34.8589 30.2932Z" fill="#C4ACF5"/>
<path opacity="0.22" d="M32.2636 26.055L27.7644 34.4403C27.0221 34.0211 26.404 33.4093 25.9784 32.6721L29.8025 25.5458C29.9013 25.5395 30.0001 25.5369 30.1001 25.5369C30.8791 25.5357 31.6151 25.7231 32.2636 26.055ZM34.289 28.0348L30.5346 35.0319C30.3915 35.0445 30.2471 35.0509 30.1014 35.0509C29.7936 35.0509 29.4921 35.0217 29.2008 34.966L33.4961 26.9607C33.8077 27.2786 34.0762 27.6396 34.289 28.0348Z" fill="white"/>
</g>
<defs>
<filter id="filter0_bi_25_514" x="-24" y="-24" width="108" height="108" filterUnits="userSpaceOnUse" color-interpolation-filters="sRGB">
<feFlood flood-opacity="0" result="BackgroundImageFix"/>
<feGaussianBlur in="BackgroundImageFix" stdDeviation="12"/>
<feComposite in2="SourceAlpha" operator="in" result="effect1_backgroundBlur_25_514"/>
<feBlend mode="normal" in="SourceGraphic" in2="effect1_backgroundBlur_25_514" result="shape"/>
<feColorMatrix in="SourceAlpha" type="matrix" values="0 0 0 0 0 0 0 0 0 0 0 0 0 0 0 0 0 0 127 0" result="hardAlpha"/>
<feOffset/>
<feGaussianBlur stdDeviation="8"/>
<feComposite in2="hardAlpha" operator="arithmetic" k2="-1" k3="1"/>
<feColorMatrix type="matrix" values="0 0 0 0 0 0 0 0 0 0 0 0 0 0 0 0 0 0 1 0"/>
<feBlend mode="normal" in2="shape" result="effect2_innerShadow_25_514"/>
</filter>
<linearGradient id="paint0_linear_25_514" x1="30" y1="0" x2="30" y2="60" gradientUnits="userSpaceOnUse">
<stop stop-opacity="0"/>
<stop offset="1" stop-color="white"/>
</linearGradient>
<clipPath id="clip0_25_514">
<rect width="38" height="38" fill="white" transform="translate(11 10)"/>
</clipPath>
</defs>
</svg>
