<svg width="52" height="52" viewBox="0 0 52 52" fill="none" xmlns="http://www.w3.org/2000/svg">
<g clip-path="url(#clip0_344_5008)">
<path d="M12.7306 28.948C10.8954 28.3356 9.44689 26.6466 8.9149 24.5011C8.90321 24.4527 8.87563 24.4096 8.83657 24.3786C8.79751 24.3477 8.74921 24.3308 8.69939 24.3305H8.68913C8.58635 24.3305 8.49819 24.4016 8.47371 24.5011C7.94163 26.6466 6.49324 28.3355 4.6575 28.948C4.61411 28.963 4.5765 28.9912 4.54996 29.0286C4.52341 29.066 4.50927 29.1109 4.50952 29.1568V29.2373C4.50936 29.2831 4.52355 29.3278 4.55009 29.3652C4.57662 29.4025 4.61419 29.4306 4.6575 29.4455C6.49324 30.0585 7.94163 31.7474 8.47371 33.8929C8.49829 33.9924 8.58635 34.0635 8.68903 34.0635H8.69939C8.80217 34.0635 8.88981 33.9924 8.9148 33.8929C9.44689 31.7474 10.8953 30.0585 12.7305 29.4455C12.7739 29.4307 12.8115 29.4026 12.8381 29.3652C12.8646 29.3279 12.8788 29.2831 12.8786 29.2373V29.1568C12.8786 29.0627 12.8199 28.9778 12.7306 28.948Z" fill="url(#paint0_linear_344_5008)"/>
<path d="M39.0879 9.53539C37.2523 8.92276 35.8038 7.23398 35.2718 5.08847C35.2602 5.04008 35.2328 4.99697 35.1938 4.96604C35.1548 4.93511 35.1066 4.91814 35.0568 4.91785H35.046C34.9434 4.91785 34.8556 4.98894 34.831 5.08847C34.2986 7.23398 32.8502 8.92276 31.0149 9.53539C30.9715 9.55026 30.9339 9.57841 30.9073 9.61584C30.8808 9.65327 30.8666 9.6981 30.8669 9.74399V9.82453C30.8669 9.91817 30.9257 10.0031 31.0149 10.0328C32.8502 10.6458 34.2986 12.3347 34.831 14.4803C34.8426 14.5287 34.8701 14.5718 34.9091 14.6027C34.948 14.6336 34.9963 14.6506 35.046 14.6508H35.0568C35.1066 14.6505 35.1548 14.6335 35.1938 14.6026C35.2328 14.5717 35.2602 14.5286 35.2718 14.4802C35.8038 12.3347 37.2523 10.6458 39.0879 10.0328C39.1312 10.0179 39.1688 9.98983 39.1953 9.9525C39.2219 9.91516 39.2361 9.87044 39.2359 9.82464V9.74399C39.2359 9.65005 39.1768 9.56514 39.0879 9.53539Z" fill="url(#paint1_linear_344_5008)"/>
<path d="M51.5794 7.00426C48.8356 6.08857 46.6706 3.56383 45.8748 0.356281C45.8379 0.207492 45.7066 0.101562 45.5534 0.101562H45.5376C45.384 0.101562 45.2527 0.207492 45.2158 0.356281C44.4204 3.56383 42.2551 6.08857 39.5113 7.00426C39.378 7.04864 39.2903 7.17559 39.2903 7.31606V7.43631C39.2903 7.57636 39.378 7.70331 39.5113 7.7477C42.2551 8.66338 44.4204 11.1886 45.2158 14.3957C45.2527 14.5449 45.384 14.6504 45.5376 14.6504H45.5534C45.7066 14.6504 45.8379 14.5445 45.8748 14.3957C46.6706 11.1885 48.8356 8.66379 51.5793 7.7477C51.7127 7.70331 51.8007 7.57636 51.8007 7.43631V7.31606C51.8007 7.17559 51.7128 7.04864 51.5794 7.00426Z" fill="url(#paint2_linear_344_5008)"/>
<path d="M50.5193 31.2436H25.0521C24.2345 31.2436 23.5715 30.5807 23.5715 29.7634V25.7715C23.5715 24.9539 24.2344 24.2909 25.0521 24.2909H50.5193C51.3369 24.2909 51.9999 24.9538 51.9999 25.7715V29.7634C51.9999 30.5807 51.337 31.2436 50.5193 31.2436Z" fill="url(#paint3_linear_344_5008)"/>
<path d="M46.5135 31.2436H29.058C28.3732 31.2436 27.8181 30.6885 27.8181 30.0038V25.5307C27.8181 24.8459 28.3732 24.2909 29.0579 24.2909H46.5135C47.1984 24.2909 47.7533 24.8459 47.7533 25.5307V30.0038C47.7533 30.6885 47.1984 31.2436 46.5135 31.2436Z" fill="url(#paint4_linear_344_5008)"/>
<path d="M40.7638 31.2436H34.8082C34.7085 31.2436 34.6098 31.224 34.5177 31.1859C34.4255 31.1478 34.3418 31.0919 34.2713 31.0214C34.2008 30.9509 34.1448 30.8672 34.1067 30.7751C34.0685 30.683 34.0488 30.5843 34.0488 30.4846V25.0502C34.0489 24.8488 34.1289 24.6557 34.2713 24.5133C34.4137 24.3709 34.6068 24.2909 34.8082 24.2909H40.7638C40.9652 24.291 41.1582 24.371 41.3005 24.5134C41.4429 24.6558 41.5228 24.8489 41.5228 25.0502V30.4846C41.5228 30.6859 41.4429 30.8789 41.3005 31.0213C41.1582 31.1636 40.9651 31.2436 40.7638 31.2436Z" fill="url(#paint5_linear_344_5008)"/>
<path d="M50.5193 38.1962H25.0521C24.2345 38.1962 23.5715 37.5333 23.5715 36.7156V32.7241C23.5715 31.9066 24.2344 31.2436 25.0521 31.2436H50.5193C51.3369 31.2436 51.9999 31.9065 51.9999 32.7241V36.7155C51.9999 37.5333 51.337 38.1962 50.5193 38.1962Z" fill="url(#paint6_linear_344_5008)"/>
<path d="M46.5135 38.1962H29.058C28.3732 38.1962 27.8181 37.6412 27.8181 36.9565V32.4833C27.8181 31.7986 28.3732 31.2436 29.0579 31.2436H46.5135C47.1984 31.2436 47.7533 31.7986 47.7533 32.4833V36.9565C47.7533 37.6412 47.1984 38.1962 46.5135 38.1962Z" fill="url(#paint7_linear_344_5008)"/>
<path d="M40.7638 38.1962H34.8082C34.6069 38.1963 34.4138 38.1163 34.2714 37.974C34.129 37.8316 34.0489 37.6386 34.0488 37.4372V32.0028C34.0489 31.8015 34.1289 31.6083 34.2713 31.4659C34.4137 31.3236 34.6068 31.2436 34.8082 31.2436H40.7638C40.9652 31.2436 41.1582 31.3237 41.3005 31.4661C41.4429 31.6084 41.5228 31.8015 41.5228 32.0028V37.4372C41.5228 37.6385 41.4428 37.8315 41.3005 37.9739C41.1581 38.1162 40.9651 38.1962 40.7638 38.1962Z" fill="url(#paint8_linear_344_5008)"/>
<path d="M50.5193 45.1489H25.0521C24.2345 45.1489 23.5715 44.486 23.5715 43.6683V39.6764C23.5715 38.8591 24.2344 38.1962 25.0521 38.1962H50.5193C51.3369 38.1962 51.9999 38.8591 51.9999 39.6764V43.6683C51.9999 44.4859 51.337 45.1489 50.5193 45.1489Z" fill="url(#paint9_linear_344_5008)"/>
<path d="M46.5135 45.1489H29.058C28.3732 45.1489 27.8181 44.5934 27.8181 43.9091V39.436C27.8181 38.7513 28.3732 38.1962 29.0579 38.1962H46.5135C47.1984 38.1962 47.7533 38.7513 47.7533 39.436V43.9091C47.7533 44.5939 47.1984 45.1489 46.5135 45.1489Z" fill="url(#paint10_linear_344_5008)"/>
<path d="M40.7638 45.1489H34.8082C34.6068 45.1489 34.4137 45.0689 34.2712 44.9265C34.1288 44.784 34.0488 44.5909 34.0488 44.3895V38.9553C34.0488 38.8556 34.0685 38.7569 34.1067 38.6648C34.1448 38.5727 34.2008 38.489 34.2713 38.4185C34.3418 38.348 34.4255 38.2921 34.5177 38.254C34.6098 38.2159 34.7085 38.1963 34.8082 38.1963H40.7638C40.9651 38.1963 41.1582 38.2763 41.3005 38.4186C41.4429 38.561 41.5228 38.754 41.5228 38.9553V44.3896C41.5228 44.5909 41.4429 44.784 41.3006 44.9264C41.1582 45.0689 40.9652 45.1489 40.7638 45.149V45.1489Z" fill="url(#paint11_linear_344_5008)"/>
<path d="M50.5193 52.1011H25.0521C24.2345 52.1011 23.5715 51.4387 23.5715 50.621V46.6291C23.5715 45.8115 24.2344 45.1489 25.0521 45.1489H50.5193C51.3369 45.1489 51.9999 45.8114 51.9999 46.6291V50.621C51.9999 51.4386 51.337 52.1011 50.5193 52.1011Z" fill="url(#paint12_linear_344_5008)"/>
<path d="M46.5135 52.1011H29.058C28.3732 52.1011 27.8181 51.5461 27.8181 50.8618V46.3887C27.8181 45.7039 28.3732 45.1489 29.0579 45.1489H46.5135C47.1984 45.1489 47.7533 45.7039 47.7533 46.3887V50.8618C47.7533 51.5461 47.1984 52.1011 46.5135 52.1011Z" fill="url(#paint13_linear_344_5008)"/>
<path d="M40.7638 52.1011H34.8082C34.7085 52.1012 34.6098 52.0816 34.5177 52.0435C34.4255 52.0053 34.3418 51.9494 34.2713 51.879C34.2008 51.8085 34.1448 51.7248 34.1067 51.6327C34.0685 51.5406 34.0488 51.4419 34.0488 51.3422V45.9079C34.0488 45.8082 34.0685 45.7094 34.1067 45.6173C34.1448 45.5252 34.2008 45.4416 34.2713 45.3711C34.3418 45.3006 34.4255 45.2447 34.5177 45.2066C34.6098 45.1685 34.7085 45.1489 34.8082 45.1489H40.7638C40.9651 45.1489 41.1582 45.2289 41.3005 45.3712C41.4429 45.5135 41.5228 45.7066 41.5228 45.9079V51.3422C41.5228 51.5435 41.4429 51.7365 41.3005 51.8789C41.1582 52.0212 40.9651 52.1011 40.7638 52.1011Z" fill="url(#paint14_linear_344_5008)"/>
<path d="M50.5202 45.1493C51.3371 45.1493 51.9996 45.8118 51.9996 46.6291V50.6206C51.9996 51.4391 51.3371 52.1016 50.5202 52.1016H42.9503L23.572 32.7245C23.572 31.9061 24.2342 31.2436 25.0526 31.2436C24.2341 31.2436 23.572 30.581 23.572 29.763V25.7711C23.572 24.9538 24.2342 24.2913 25.0526 24.2913H39.1444L39.1218 24.3298L51.937 37.1445C51.7529 37.7531 51.188 38.1962 50.5202 38.1962C51.3372 38.1962 51.9997 38.8595 51.9997 39.6768V43.6687C51.9997 44.4856 51.3372 45.1493 50.5203 45.1493H50.5202Z" fill="url(#paint15_linear_344_5008)"/>
<path d="M38.3739 17.3311C38.3739 19.3214 36.7608 20.935 34.7704 20.935C32.78 20.935 31.1665 19.3214 31.1665 17.3311C31.1665 15.3407 32.78 13.7272 34.7703 13.7272C36.7608 13.7272 38.3738 15.3407 38.3738 17.3311H38.3739Z" fill="url(#paint16_linear_344_5008)"/>
<path d="M1.96106 51.4763L0.62521 50.1402C-0.420579 49.0944 -0.12229 47.1289 1.27988 45.8261L29.3075 19.2338L32.8673 22.7941L6.27503 50.8212C4.97219 52.2238 3.00675 52.5221 1.96106 51.4763Z" fill="url(#paint17_linear_344_5008)"/>
<path d="M40.8584 36.2212C40.7127 37.2826 39.2381 37.4389 38.8704 36.4328C37.1699 31.7815 34.0183 26.8645 29.6278 22.4739C25.2372 18.0829 20.3197 14.9317 15.6688 13.2313C14.6623 12.8631 14.8187 11.3885 15.8803 11.2429C22.5124 10.332 29.4778 12.426 34.5765 17.5247C39.6753 22.6235 41.7692 29.5887 40.8584 36.2212Z" fill="url(#paint18_linear_344_5008)"/>
<path d="M34.5146 17.4644L29.5662 22.4128L29.6277 22.4734C32.8936 25.7397 35.4734 29.2972 37.281 32.8197V20.8028C36.486 19.6264 35.5804 18.5287 34.5764 17.5247C34.5562 17.5041 34.5348 17.4851 34.5145 17.4644H34.5146Z" fill="url(#paint19_linear_344_5008)"/>
<path d="M30.2426 23.1019C30.3523 23.2156 30.4614 23.3299 30.5699 23.4447C30.6211 23.4994 30.6727 23.5538 30.7235 23.6085C30.8357 23.7288 30.9473 23.8497 31.0583 23.9711C31.0975 24.0144 31.1375 24.0576 31.1769 24.1009C31.3245 24.2635 31.4704 24.4269 31.6149 24.5908C31.6438 24.6233 31.672 24.6563 31.7006 24.6892C31.8162 24.8214 31.9311 24.9542 32.0453 25.0876L32.1846 25.2518C32.2825 25.3676 32.3797 25.4839 32.4761 25.6005C32.5214 25.6549 32.5666 25.7091 32.6115 25.7636C32.7241 25.901 32.8359 26.0391 32.9471 26.1777C32.9704 26.2075 32.9948 26.2369 33.0182 26.2662C33.1505 26.4327 33.2817 26.6001 33.4117 26.7684C33.4478 26.8153 33.4831 26.8621 33.5188 26.9089C33.6132 27.0323 33.7073 27.1561 33.7997 27.2799C33.8425 27.337 33.8854 27.3942 33.9279 27.4516C34.0169 27.5721 34.1054 27.6929 34.1932 27.8142C34.2301 27.865 34.2674 27.9162 34.3039 27.967C34.4257 28.1368 34.546 28.3066 34.6642 28.4768C34.6705 28.486 34.6764 28.4951 34.6828 28.5042C34.7951 28.6657 34.905 28.8271 35.0137 28.989C35.0494 29.0421 35.0847 29.0956 35.1203 29.1489C35.2382 29.3263 35.3548 29.5046 35.4703 29.6837C35.553 29.8126 35.635 29.9419 35.7163 30.0716C35.7433 30.1149 35.7706 30.1581 35.7975 30.2013C35.9033 30.3716 36.0077 30.5428 36.1106 30.7147C36.1332 30.752 36.1546 30.7893 36.1773 30.8266C36.2575 30.9618 36.3371 31.0971 36.4153 31.2325C36.4478 31.2892 36.4803 31.346 36.5128 31.4031C36.5819 31.5237 36.6497 31.6442 36.7169 31.7649C36.7473 31.8205 36.7787 31.8756 36.8089 31.9311C36.8892 32.0771 36.9685 32.2237 37.0465 32.371C37.0599 32.3964 37.0743 32.4218 37.0878 32.4476C37.1782 32.6186 37.2663 32.79 37.3531 32.9614C37.3781 33.0102 37.4019 33.0589 37.4266 33.1078C37.4888 33.2318 37.5503 33.3563 37.611 33.4811C37.6393 33.5394 37.6674 33.5974 37.6951 33.6557C37.7538 33.778 37.8118 33.9007 37.8689 34.0238C37.8922 34.0742 37.9161 34.125 37.9396 34.1754C38.0178 34.346 38.0943 34.5166 38.1688 34.6867L38.1902 34.7367C38.2573 34.8907 38.3224 35.0447 38.3866 35.1981C38.4089 35.2521 38.4307 35.3061 38.4529 35.36C38.5016 35.4794 38.5501 35.5985 38.5973 35.7179L38.6639 35.8876C38.7143 36.0174 38.7631 36.1471 38.8116 36.2765C38.8266 36.3169 38.8421 36.3573 38.8568 36.3979C38.8611 36.4093 38.8659 36.4212 38.8699 36.4328C39.0842 37.0191 39.6741 37.21 40.158 37.0576C40.1442 30.8313 37.621 24.4143 32.654 19.4472C27.6868 14.4798 21.2698 11.957 15.0431 11.9427C14.8912 12.4267 15.082 13.0167 15.6683 13.2313C15.6799 13.2353 15.6914 13.24 15.7033 13.2445C15.7438 13.2591 15.7846 13.2749 15.8251 13.29C15.9544 13.338 16.0837 13.3869 16.2131 13.4372C16.2698 13.4594 16.3266 13.4816 16.3837 13.5043C16.5027 13.551 16.6217 13.599 16.7407 13.6483C16.7951 13.6705 16.849 13.6923 16.9034 13.7149C17.0565 13.7784 17.2096 13.8439 17.3632 13.9105C17.3803 13.918 17.3973 13.9251 17.4144 13.9324C17.5846 14.0069 17.7547 14.0835 17.9254 14.1616C17.9761 14.185 18.0269 14.2088 18.0773 14.2323C18.2003 14.2895 18.323 14.3473 18.4455 14.4056C18.5034 14.4338 18.5617 14.4615 18.62 14.4901C18.7443 14.5505 18.8684 14.612 18.993 14.6746C19.0417 14.6989 19.091 14.723 19.1397 14.748C19.486 14.9238 19.8293 15.1052 20.1696 15.2924C20.2252 15.3228 20.2807 15.3538 20.3358 15.3848C20.4565 15.4518 20.5771 15.5197 20.6977 15.5882C20.7545 15.6207 20.8116 15.6533 20.8683 15.6862C21.0036 15.7644 21.1385 15.8438 21.2738 15.9239C21.311 15.9461 21.3487 15.968 21.3865 15.9905C21.5583 16.0936 21.7292 16.1979 21.8994 16.3035C21.9431 16.3306 21.9859 16.3579 22.0291 16.3853C22.1588 16.4664 22.288 16.5482 22.4168 16.6309C22.4746 16.6677 22.5321 16.7054 22.5897 16.7428C22.7103 16.8213 22.8309 16.9006 22.9515 16.9808C23.0051 17.0165 23.0586 17.0518 23.1117 17.0879C23.274 17.1968 23.4355 17.3068 23.5962 17.418L23.6239 17.437C23.7948 17.5559 23.9647 17.6761 24.1338 17.7976C24.185 17.8342 24.2357 17.8715 24.2869 17.9083C24.4079 17.996 24.5285 18.0844 24.6491 18.1737C24.7067 18.2162 24.7642 18.2586 24.8214 18.3015C24.9453 18.3945 25.0688 18.4882 25.1919 18.5824C25.2386 18.618 25.2855 18.6538 25.3323 18.6898C25.5001 18.8192 25.6675 18.9506 25.8345 19.0834C25.8643 19.1068 25.8936 19.1311 25.923 19.1549C26.0618 19.2657 26.1999 19.3774 26.3372 19.4901C26.3915 19.5349 26.4464 19.5801 26.5007 19.6253C26.6169 19.7218 26.7332 19.819 26.8494 19.9169C26.9042 19.9633 26.9584 20.0099 27.0133 20.0563C27.1467 20.1704 27.2794 20.2853 27.4115 20.401L27.5103 20.4867C27.6746 20.6316 27.8379 20.7776 28.0003 20.9246C28.0435 20.9639 28.0868 21.0041 28.1301 21.0433C28.2515 21.1541 28.3722 21.2658 28.4922 21.3781C28.5471 21.4293 28.6017 21.4805 28.656 21.5317C28.771 21.6403 28.8854 21.7494 28.9993 21.859C29.0489 21.9065 29.0985 21.9538 29.1476 22.0018C29.3083 22.1577 29.4681 22.3148 29.6273 22.4739C29.7864 22.6329 29.9435 22.7928 30.0994 22.9531C30.1478 23.0027 30.195 23.0524 30.2426 23.1019Z" fill="url(#paint20_radial_344_5008)"/>
<path d="M27.366 21.1845V28.6199L32.8674 22.7941L29.3076 19.2338L27.3525 21.0802L27.366 21.1845Z" fill="url(#paint21_linear_344_5008)"/>
<path d="M30.917 24.7355L27.3659 21.1845C26.6407 20.4593 26.6407 19.2834 27.3659 18.5581L30.6718 15.2519C31.397 14.5268 32.573 14.5268 33.2983 15.2519L36.8493 18.8031C37.5744 19.5282 37.5744 20.7041 36.8493 21.4298L33.5434 24.7356C32.8182 25.4609 31.6422 25.4608 30.917 24.7355Z" fill="url(#paint22_linear_344_5008)"/>
</g>
<defs>
<linearGradient id="paint0_linear_344_5008" x1="7.58169" y1="28.0845" x2="11.8803" y2="32.383" gradientUnits="userSpaceOnUse">
<stop stop-color="#FFB5B0"/>
<stop offset="1" stop-color="#FF70AC"/>
</linearGradient>
<linearGradient id="paint1_linear_344_5008" x1="33.9388" y1="8.6717" x2="38.2374" y2="12.9703" gradientUnits="userSpaceOnUse">
<stop stop-color="#FFB5B0"/>
<stop offset="1" stop-color="#FF70AC"/>
</linearGradient>
<linearGradient id="paint2_linear_344_5008" x1="43.8823" y1="5.71299" x2="50.3082" y2="12.1387" gradientUnits="userSpaceOnUse">
<stop stop-color="#FFB5B0"/>
<stop offset="1" stop-color="#FF70AC"/>
</linearGradient>
<linearGradient id="paint3_linear_344_5008" x1="37.7858" y1="25.8463" x2="37.7858" y2="32.3839" gradientUnits="userSpaceOnUse">
<stop stop-color="#FFC738"/>
<stop offset="0.234" stop-color="#FEC33A"/>
<stop offset="0.445" stop-color="#FBB840"/>
<stop offset="0.647" stop-color="#F6A649"/>
<stop offset="0.843" stop-color="#F08D56"/>
<stop offset="1" stop-color="#E97264"/>
</linearGradient>
<linearGradient id="paint4_linear_344_5008" x1="38.4435" y1="20.4989" x2="36.2981" y2="44.2114" gradientUnits="userSpaceOnUse">
<stop stop-color="#FCA17A" stop-opacity="0"/>
<stop offset="0.152" stop-color="#F69373" stop-opacity="0.153"/>
<stop offset="0.416" stop-color="#EF816B" stop-opacity="0.416"/>
<stop offset="0.693" stop-color="#EA7666" stop-opacity="0.694"/>
<stop offset="1" stop-color="#E97264"/>
</linearGradient>
<linearGradient id="paint5_linear_344_5008" x1="38.3631" y1="21.3875" x2="36.48" y2="42.2007" gradientUnits="userSpaceOnUse">
<stop stop-color="#FCA17A" stop-opacity="0"/>
<stop offset="0.152" stop-color="#F69373" stop-opacity="0.153"/>
<stop offset="0.416" stop-color="#EF816B" stop-opacity="0.416"/>
<stop offset="0.693" stop-color="#EA7666" stop-opacity="0.694"/>
<stop offset="1" stop-color="#E97264"/>
</linearGradient>
<linearGradient id="paint6_linear_344_5008" x1="37.7858" y1="32.7989" x2="37.7858" y2="39.3365" gradientUnits="userSpaceOnUse">
<stop stop-color="#FFC738"/>
<stop offset="0.234" stop-color="#FEC33A"/>
<stop offset="0.445" stop-color="#FBB840"/>
<stop offset="0.647" stop-color="#F6A649"/>
<stop offset="0.843" stop-color="#F08D56"/>
<stop offset="1" stop-color="#E97264"/>
</linearGradient>
<linearGradient id="paint7_linear_344_5008" x1="38.4435" y1="27.4514" x2="36.2981" y2="51.1639" gradientUnits="userSpaceOnUse">
<stop stop-color="#FCA17A" stop-opacity="0"/>
<stop offset="0.152" stop-color="#F69373" stop-opacity="0.153"/>
<stop offset="0.416" stop-color="#EF816B" stop-opacity="0.416"/>
<stop offset="0.693" stop-color="#EA7666" stop-opacity="0.694"/>
<stop offset="1" stop-color="#E97264"/>
</linearGradient>
<linearGradient id="paint8_linear_344_5008" x1="38.3631" y1="28.3401" x2="36.48" y2="49.1533" gradientUnits="userSpaceOnUse">
<stop stop-color="#FCA17A" stop-opacity="0"/>
<stop offset="0.152" stop-color="#F69373" stop-opacity="0.153"/>
<stop offset="0.416" stop-color="#EF816B" stop-opacity="0.416"/>
<stop offset="0.693" stop-color="#EA7666" stop-opacity="0.694"/>
<stop offset="1" stop-color="#E97264"/>
</linearGradient>
<linearGradient id="paint9_linear_344_5008" x1="37.7858" y1="39.7515" x2="37.7858" y2="46.289" gradientUnits="userSpaceOnUse">
<stop stop-color="#FFC738"/>
<stop offset="0.234" stop-color="#FEC33A"/>
<stop offset="0.445" stop-color="#FBB840"/>
<stop offset="0.647" stop-color="#F6A649"/>
<stop offset="0.843" stop-color="#F08D56"/>
<stop offset="1" stop-color="#E97264"/>
</linearGradient>
<linearGradient id="paint10_linear_344_5008" x1="38.4435" y1="34.404" x2="36.2981" y2="58.1165" gradientUnits="userSpaceOnUse">
<stop stop-color="#FCA17A" stop-opacity="0"/>
<stop offset="0.152" stop-color="#F69373" stop-opacity="0.153"/>
<stop offset="0.416" stop-color="#EF816B" stop-opacity="0.416"/>
<stop offset="0.693" stop-color="#EA7666" stop-opacity="0.694"/>
<stop offset="1" stop-color="#E97264"/>
</linearGradient>
<linearGradient id="paint11_linear_344_5008" x1="38.3631" y1="35.2926" x2="36.48" y2="56.1058" gradientUnits="userSpaceOnUse">
<stop stop-color="#FCA17A" stop-opacity="0"/>
<stop offset="0.152" stop-color="#F69373" stop-opacity="0.153"/>
<stop offset="0.416" stop-color="#EF816B" stop-opacity="0.416"/>
<stop offset="0.693" stop-color="#EA7666" stop-opacity="0.694"/>
<stop offset="1" stop-color="#E97264"/>
</linearGradient>
<linearGradient id="paint12_linear_344_5008" x1="37.7858" y1="46.704" x2="37.7858" y2="53.2416" gradientUnits="userSpaceOnUse">
<stop stop-color="#FFC738"/>
<stop offset="0.234" stop-color="#FEC33A"/>
<stop offset="0.445" stop-color="#FBB840"/>
<stop offset="0.647" stop-color="#F6A649"/>
<stop offset="0.843" stop-color="#F08D56"/>
<stop offset="1" stop-color="#E97264"/>
</linearGradient>
<linearGradient id="paint13_linear_344_5008" x1="38.4435" y1="41.3566" x2="36.2981" y2="65.069" gradientUnits="userSpaceOnUse">
<stop stop-color="#FCA17A" stop-opacity="0"/>
<stop offset="0.152" stop-color="#F69373" stop-opacity="0.153"/>
<stop offset="0.416" stop-color="#EF816B" stop-opacity="0.416"/>
<stop offset="0.693" stop-color="#EA7666" stop-opacity="0.694"/>
<stop offset="1" stop-color="#E97264"/>
</linearGradient>
<linearGradient id="paint14_linear_344_5008" x1="38.3631" y1="42.2452" x2="36.48" y2="63.0584" gradientUnits="userSpaceOnUse">
<stop stop-color="#FCA17A" stop-opacity="0"/>
<stop offset="0.152" stop-color="#F69373" stop-opacity="0.153"/>
<stop offset="0.416" stop-color="#EF816B" stop-opacity="0.416"/>
<stop offset="0.693" stop-color="#EA7666" stop-opacity="0.694"/>
<stop offset="1" stop-color="#E97264"/>
</linearGradient>
<linearGradient id="paint15_linear_344_5008" x1="48.5544" y1="45.7041" x2="17.0908" y2="14.2406" gradientUnits="userSpaceOnUse">
<stop stop-color="#E97264" stop-opacity="0"/>
<stop offset="1" stop-color="#B53759"/>
</linearGradient>
<linearGradient id="paint16_linear_344_5008" x1="35.5559" y1="13.8515" x2="34.5045" y2="18.5075" gradientUnits="userSpaceOnUse">
<stop stop-color="#F9F7FC"/>
<stop offset="1" stop-color="#F0DDFC"/>
</linearGradient>
<linearGradient id="paint17_linear_344_5008" x1="14.9548" y1="34.6756" x2="21.5176" y2="41.2385" gradientUnits="userSpaceOnUse">
<stop stop-color="#00E7B2"/>
<stop offset="0.414" stop-color="#1FA999"/>
<stop offset="1" stop-color="#4F4A72"/>
</linearGradient>
<linearGradient id="paint18_linear_344_5008" x1="24.6393" y1="14.9665" x2="57.8286" y2="48.1557" gradientUnits="userSpaceOnUse">
<stop stop-color="#F9F7FC"/>
<stop offset="1" stop-color="#F0DDFC"/>
</linearGradient>
<linearGradient id="paint19_linear_344_5008" x1="35.2373" y1="30.0222" x2="32.2165" y2="16.0092" gradientUnits="userSpaceOnUse">
<stop stop-color="#F0DDFC" stop-opacity="0"/>
<stop offset="0.289" stop-color="#C8B7E0" stop-opacity="0.29"/>
<stop offset="0.592" stop-color="#A595C8" stop-opacity="0.592"/>
<stop offset="0.84" stop-color="#8F81B8" stop-opacity="0.839"/>
<stop offset="1" stop-color="#8779B3"/>
</linearGradient>
<radialGradient id="paint20_radial_344_5008" cx="0" cy="0" r="1" gradientUnits="userSpaceOnUse" gradientTransform="translate(17.1434 34.2485) rotate(45) scale(25.8716)">
<stop stop-color="#F0DDFC" stop-opacity="0"/>
<stop offset="0.445" stop-color="#EEDBFB" stop-opacity="0.447"/>
<stop offset="0.606" stop-color="#E7D5F6" stop-opacity="0.604"/>
<stop offset="0.72" stop-color="#DCC9EE" stop-opacity="0.722"/>
<stop offset="0.813" stop-color="#CBB9E2" stop-opacity="0.812"/>
<stop offset="0.892" stop-color="#B5A4D3" stop-opacity="0.89"/>
<stop offset="0.961" stop-color="#9A8BC0" stop-opacity="0.961"/>
<stop offset="1" stop-color="#8779B3"/>
</radialGradient>
<linearGradient id="paint21_linear_344_5008" x1="30.1099" y1="27.1821" x2="30.1098" y2="12.9329" gradientUnits="userSpaceOnUse">
<stop stop-color="#3B395F" stop-opacity="0"/>
<stop offset="1" stop-color="#3B395F"/>
</linearGradient>
<linearGradient id="paint22_linear_344_5008" x1="32.1075" y1="16.5165" x2="32.1075" y2="21.8387" gradientUnits="userSpaceOnUse">
<stop stop-color="#F9F7FC"/>
<stop offset="1" stop-color="#F0DDFC"/>
</linearGradient>
<clipPath id="clip0_344_5008">
<rect width="52" height="52" fill="white"/>
</clipPath>
</defs>
</svg>
