<svg width="388" height="48" viewBox="0 0 388 48" fill="none" xmlns="http://www.w3.org/2000/svg">
<path d="M387.562 10.511C387.019 4.80728 382.61 0.463745 377.354 0.439251C254.029 -0.1339 132.394 -0.151874 12.603 0.437607C11.236 0.444138 9.87398 0.747855 8.6148 1.3308C7.63765 1.78312 6.63562 2.40364 5.87248 3.21846C5.14086 4.00225 4.47394 4.90037 3.89163 5.81807C3.20812 6.89415 2.60757 8.03554 2.09991 9.22267C1.35005 10.9797 0.651606 12.9833 0.465798 14.9019C-0.237617 22.1243 -0.111531 29.376 0.623405 36.649C1.19244 42.3005 5.50584 46.6212 10.7151 46.6996C130.258 48.4713 251.86 48.3978 375.285 46.6914C377.856 46.6555 380.355 45.5435 382.22 43.6134C382.538 43.2835 382.79 42.9423 383.134 42.6516C383.339 42.4769 383.452 42.2238 383.583 41.9837C383.912 41.3746 384.232 40.7591 384.542 40.1369C385.161 38.8943 385.742 37.6271 386.279 36.3404C386.422 36.0008 386.624 35.635 386.704 35.2692C386.769 34.972 386.823 34.6928 386.913 34.3972C387.139 33.651 387.308 32.8656 387.372 32.0818C388.106 24.7582 388.232 17.5554 387.562 10.511Z" fill="url(#paint0_linear_155_850)"/>
<path d="M387.792 22.7938C387.882 25.9225 387.676 28.9809 387.368 32.0818C387.251 33.2885 386.956 34.4528 386.518 35.5044C386.183 36.3176 385.76 37.0752 385.271 37.7774C383.394 40.4145 380.488 42.1127 377.248 42.1536C375.794 42.1813 374.329 42.196 372.876 42.2091C369.238 42.2646 365.587 42.3071 361.948 42.3642C358.31 42.4067 354.672 42.4492 351.021 42.49H350.956C347.343 42.5324 343.731 42.5749 340.118 42.6157C337.058 42.6582 333.998 42.6859 330.952 42.7284C330.373 42.7284 329.795 42.7431 329.216 42.7431C325.578 42.7708 321.953 42.8133 318.327 42.8411C317.233 42.8558 316.129 42.926 315.049 42.8688C313.93 42.8264 312.812 42.7153 311.706 42.7153C311.513 42.7153 311.294 42.7006 311.127 42.5896C310.805 42.3936 310.715 41.9446 310.664 41.538C310.574 40.9061 310.509 40.2757 310.471 39.6438C310.368 38.4648 310.344 37.2875 310.368 36.0938C310.304 37.8329 309.957 39.5442 309.378 41.1592C309.327 41.3143 309.275 41.4531 309.21 41.6082C309.018 42.085 308.734 42.619 308.271 42.6876C307.898 42.7578 307.551 42.5324 307.178 42.5618C306.908 42.5765 306.805 42.73 306.586 42.8558C306.432 42.926 306.316 42.9407 306.15 42.9537C305.134 43.0942 304.016 42.9815 302.988 42.9815C300.854 43.0092 298.706 43.0239 296.559 43.037C292.946 43.0648 289.321 43.0925 285.707 43.1203C282.635 43.148 279.574 43.1627 276.502 43.1758C275.949 43.1905 275.397 43.1905 274.843 43.1905C273.005 43.2052 271.178 43.2182 269.34 43.2329C267.566 43.2329 265.778 43.2476 264.004 43.2607C260.391 43.2754 256.779 43.3031 253.166 43.3162C249.566 43.3309 245.953 43.344 242.354 43.3587C240.747 43.3587 239.141 43.3734 237.547 43.3734C235.541 43.3881 233.535 43.3881 231.543 43.4011C228.238 43.4158 224.922 43.4158 221.63 43.4289H218.404C216.887 43.4436 215.382 43.4436 213.865 43.4436C212.99 43.4436 212.103 43.4583 211.217 43.4713C209.314 43.4991 207.398 43.5416 205.495 43.4436C202.975 43.3178 199.504 44.5654 197.409 42.5308C197.203 42.3349 197.011 42.1095 196.856 41.858C196.329 41.0726 196.02 40.1043 195.738 39.1637C195.712 40.3835 195.674 41.5902 195.649 42.797C195.635 43.1333 195.635 43.4697 195.624 43.8061C194.119 43.5824 192.616 43.3995 191.098 43.2444C190.159 43.1594 189.222 43.0762 188.283 43.0207H188.206C187.86 42.9929 187.5 42.9782 187.14 42.9782C187.113 42.9929 187.075 42.9929 187.037 42.9782C186.149 42.9929 185.25 43.1187 184.479 43.5955C183.643 42.0948 182.808 40.5925 181.985 39.0919C181.959 39.0772 181.959 39.0641 181.947 39.0494C181.395 38.0386 180.84 37.0426 180.288 36.0465C180.789 37.8835 181.303 39.7222 181.806 41.5462C181.857 41.729 181.896 41.9103 181.909 42.0932C181.935 42.3463 181.909 42.5847 181.768 42.7659C181.383 43.2427 180.701 42.9064 180.212 42.9897C179.955 43.0452 179.838 43.1856 179.608 43.2983C179.004 43.5938 178.284 43.4534 177.629 43.4534C174.042 43.4534 170.468 43.4387 166.88 43.4387C163.293 43.424 159.72 43.424 156.131 43.4109C153.958 43.3962 151.786 43.3962 149.613 43.3832H149.318C148.019 43.3832 146.708 43.3685 145.409 43.3685C141.836 43.3685 138.261 43.3538 134.687 43.326C133.672 43.326 132.643 43.3113 131.628 43.3113C129.07 43.2966 126.525 43.2966 123.978 43.2836C121.42 43.2689 118.875 43.2558 116.315 43.2281C115.3 43.2281 114.285 43.2281 113.268 43.2134C109.706 43.1987 106.146 43.1709 102.584 43.1431C99.022 43.1154 95.4618 43.0876 91.8999 43.0582C88.7511 43.0305 85.6256 43.0027 82.4768 42.988C82.0654 42.9733 81.6406 42.9733 81.2292 42.9733C79.8406 42.9733 78.4653 42.9586 77.0767 42.9586C73.0006 42.9162 68.9261 42.8182 64.8499 42.6925C64.4899 42.6778 60.4138 42.9308 60.9032 42.0197C60.9164 42.005 60.9164 41.9919 60.9164 41.9919C61.0575 41.7535 61.366 41.5576 61.5336 41.3469C62.0097 40.7721 62.4079 40.1271 62.7928 39.4805C62.9338 39.2274 63.0748 38.976 63.2175 38.7229C63.8213 37.6566 64.4003 36.5756 65.1585 35.6366C65.3775 35.3558 65.6214 35.0749 65.8918 34.8365C66.0079 34.7239 66.1108 34.6112 66.2651 34.5834C66.3679 34.5557 66.6383 34.6389 66.703 34.541C66.8822 34.2879 65.7391 33.798 65.5849 33.7131C64.9428 34.5132 64.4285 35.4946 63.8628 36.3502C63.2838 37.2336 62.7065 38.117 62.1275 39.0021C61.5236 39.9557 60.8799 40.9093 60.0704 41.6817C60.0438 41.6947 60.0189 41.7241 59.9924 41.7519C59.581 42.116 59.1048 42.3838 58.6038 42.5651C56.2248 43.4485 53.0113 42.5928 50.6837 42.5651C47.316 42.5096 43.9465 42.5504 40.5788 42.5226H39.5767C30.6165 42.41 21.6546 42.2842 12.6811 42.1585C7.47346 42.0752 3.1667 37.7529 2.58936 32.0998C2.45996 30.7396 2.33222 29.3647 2.24263 27.9897C2.13978 26.4319 1.52263 24.2291 2.46162 22.8836C2.55121 22.7579 2.64245 22.5897 2.77019 22.5048C2.97591 22.3366 3.31103 22.4068 3.56652 22.3791C5.33998 22.2386 7.12838 22.1129 8.91512 21.9725C9.01798 21.9578 9.13411 21.9578 9.23697 22.0002C9.46757 22.0982 9.53227 22.4215 9.57043 22.6877C9.59532 23.011 9.63513 23.3196 9.67329 23.6282C9.71145 22.6877 9.72472 21.7896 9.72472 20.8931C9.71145 20.2056 9.69983 19.5329 9.67329 18.816C9.57043 19.0397 9.55716 19.3075 9.50573 19.5459C9.37633 20.0505 9.0296 20.4588 8.60489 20.6547C8.3859 20.7674 8.16692 20.8098 7.93632 20.8229C7.54977 20.8229 7.17815 20.9209 6.79161 20.9486C5.94386 21.0188 5.06957 21.0041 4.22016 20.9062C3.93813 20.8784 3.64117 20.8229 3.35914 20.7527C3.06384 20.6547 2.76688 20.5273 2.50973 20.3183C2.34217 20.1779 2.34217 20.1077 2.29074 19.8839C2.21277 19.5476 2.12319 19.2243 2.04687 18.8879C1.72503 17.5832 2.0336 16.0401 2.11157 14.7207C2.20116 13.2756 2.30402 11.7472 2.43342 10.3576C2.98586 4.7175 7.39548 0.453965 12.6031 0.424572C14.9307 0.409876 17.2566 0.396816 19.5841 0.396816C21.346 0.38212 23.1062 0.382122 24.8813 0.369059H25.4985C29.7024 0.3413 33.9063 0.326609 38.1102 0.313546C39.9749 0.29885 41.838 0.298845 43.7027 0.298845C44.8208 0.284149 45.9523 0.284145 47.0837 0.284145C49.2056 0.269448 51.3258 0.269451 53.4476 0.256388C56.1734 0.256388 58.8991 0.241695 61.6248 0.228631C64.3506 0.213935 67.0763 0.213938 69.7888 0.200875C72.5278 0.186178 75.2518 0.186181 77.9776 0.173118C80.7033 0.158422 83.4291 0.158425 86.1548 0.145361C88.8938 0.145361 91.6195 0.130668 94.3569 0.117605H97.6616C98.4977 0.102908 99.3455 0.102904 100.195 0.102904H101.442C104.309 0.102904 107.189 0.1029 110.069 0.0882034C112.435 0.0882034 114.814 0.0735029 117.191 0.0735029H120.148C122.294 0.0735029 124.454 0.0588023 126.601 0.0588023C129.327 0.0588023 132.053 0.0441017 134.765 0.0441017C139.805 0.0294055 144.845 0.0294011 149.884 0.0294011H151.607C156.904 0.014705 162.213 0.0147006 167.524 0.0147006H180.135C184.467 4.38589e-06 188.8 0 193.145 0C205.064 0 216.993 4.70403e-05 228.95 0.0278065C231.997 0.0131103 235.043 0.0278065 238.091 0.0278065C241.716 0.0278065 245.329 0.0424572 248.954 0.0424572C252.605 0.0424572 256.244 0.0571578 259.895 0.0571578H262.697C263.777 0.071854 264.87 0.0718584 265.962 0.0718584H268.057C271.477 0.0865546 274.897 0.0865518 278.33 0.0996151C281.185 0.0996151 284.039 0.114316 286.892 0.114316C304.62 0.156771 322.401 0.212285 340.207 0.2825C344.167 0.297196 348.127 0.310261 352.087 0.324957C353.655 0.339654 355.211 0.339651 356.781 0.352714C358.503 0.352714 360.24 0.367415 361.962 0.367415C367.091 0.395174 372.221 0.409869 377.351 0.437629C381.953 0.452325 386.402 4.08554 387.353 9.09367C387.442 9.59824 387.431 10.1175 387.417 10.6221C387.404 11.4647 387.366 12.2207 386.979 12.9653C386.979 12.9931 386.966 13.0078 386.953 13.0355C386.387 14.0594 385.461 14.7893 384.562 15.4768C383.804 16.0662 383.057 16.641 382.299 17.2305C381.515 17.833 380.705 18.4927 380.332 19.461C380.191 19.8399 380.139 20.2465 380.126 20.6531C380.099 21.2425 380.191 21.832 380.267 22.4068C380.267 21.6214 380.408 20.7935 380.846 20.1763C381.065 19.8823 381.334 19.6439 381.617 19.4039C383.185 18.0568 384.755 16.6965 386.322 15.3494C386.618 15.0963 386.953 14.8448 387.3 14.9428C388.076 15.1616 387.767 21.979 387.792 22.7938Z" fill="url(#paint1_linear_155_850)"/>
<path d="M9.86932 18.2854C9.87264 18.3605 9.87595 18.4355 9.87761 18.5107C9.88424 18.7442 9.88093 18.9793 9.84113 19.2096C9.82787 19.2879 9.81957 19.3827 9.79139 19.4578C9.76486 19.5296 9.70185 19.5786 9.65708 19.6341C9.44484 19.8954 9.3238 20.2595 9.0386 20.4424C8.92253 20.5175 8.78822 20.5535 8.65723 20.5894C8.21286 20.7069 7.76848 20.8262 7.32245 20.9437C7.72869 20.72 8.13161 20.4849 8.5279 20.2383C8.68211 20.142 8.84294 20.0391 8.93746 19.8742C8.99549 19.7746 9.02534 19.6586 9.05187 19.5427C9.08337 19.4072 9.1099 19.2716 9.13146 19.1361C9.20939 18.6658 9.23757 18.1841 9.21436 17.7057C9.20939 17.611 9.19281 17.5097 9.21768 17.4166C9.23758 17.3448 9.27074 17.2811 9.28898 17.2076C9.42328 16.6459 9.4979 16.0564 9.56257 15.4816C9.59739 15.1714 9.62557 14.8595 9.64713 14.546C9.66371 14.2847 9.69356 14.0137 9.68361 13.7524C9.74828 15.2661 9.80963 16.7749 9.86932 18.2854Z" fill="#EB924D"/>
<path d="M387.792 22.7938C387.882 25.9225 387.676 28.9809 387.367 32.0818C387.251 33.2885 386.956 34.4528 386.518 35.5044C386.183 36.3176 385.76 37.0752 385.271 37.7774C385.566 36.5005 385.811 35.2105 386.004 33.9058C386.556 30.1876 386.697 26.414 386.697 22.655C386.697 20.7756 386.724 18.8667 386.633 16.9872C386.594 16.2997 386.183 16.5659 385.81 16.8615C384.486 17.9 383.033 18.7687 381.914 20.0881C381.4 20.6906 380.975 21.3781 380.667 22.1227C380.166 23.3016 380.036 24.5492 380.153 25.8408C380.204 26.4025 380.166 26.9496 380.076 27.5097C380.011 27.9163 379.922 28.3098 379.819 28.7017C379.768 28.8977 379.703 29.0805 379.638 29.2765C379.6 29.4022 379.446 29.6553 379.446 29.768C379.343 27.7611 379.253 25.769 379.189 23.7491C379.175 23.0894 379.162 22.3888 379.408 21.7847C379.575 21.3634 379.857 21.0123 380.128 20.6629C380.101 21.2524 380.192 21.8419 380.269 22.4166C380.269 21.6312 380.41 20.8033 380.848 20.186C381.067 19.8921 381.335 19.6537 381.619 19.4137C383.187 18.0665 384.756 16.7063 386.324 15.3592C386.619 15.1061 386.954 14.8546 387.301 14.9526C388.076 15.1616 387.767 21.979 387.792 22.7938Z" fill="#EB924D"/>
<path d="M58.6039 42.5731C56.2249 43.4565 53.0114 42.6008 50.6838 42.5731C47.316 42.5176 43.9466 42.5584 40.5788 42.5306C40.5141 42.3902 40.4511 42.2367 40.3864 42.0962C40.3599 42.0538 40.335 42.026 40.3101 41.9836C37.0186 37.5927 34.0225 33.0761 31.5556 28.068C27.0945 19.0053 24.6906 8.96125 19.5859 0.40317C21.3477 0.388474 23.1079 0.388477 24.8831 0.375414C25.1916 0.754249 25.4869 1.1331 25.7822 1.525C25.6794 1.14616 25.5898 0.767312 25.5002 0.375414C29.7041 0.347654 33.908 0.332964 38.1119 0.3199C40.9919 8.07786 44.1805 15.7101 47.6777 23.117C50.6971 29.5408 55.0802 35.9663 58.6039 42.5731ZM64.6592 20.7737C59.1314 13.4501 53.2818 6.68825 47.0838 0.292144C45.9523 0.292144 44.8209 0.292148 43.7027 0.306844C50.6971 7.63045 57.2534 15.3737 63.4116 23.8338C67.8594 29.936 72.2574 36.7125 77.0785 42.9699C78.4671 42.9699 79.8424 42.9846 81.2309 42.9846C81.6424 42.9846 82.0671 42.9846 82.4785 42.9993C76.4348 35.7132 70.4309 28.419 64.6592 20.7737ZM126.704 22.2874C124.839 14.7401 122.782 7.31855 120.148 0.0798575H117.191C119.249 7.86557 120.637 15.8064 121.807 23.8306C121.691 23.5922 121.563 23.339 121.46 23.0876C118.144 15.9468 114.736 7.17976 110.069 0.0945581C107.189 0.109254 104.309 0.109259 101.443 0.109259C102.433 4.09356 104.001 7.96521 105.3 11.7536C107.279 17.5765 109.479 23.3129 111.548 29.0934C113.117 33.4565 114.53 38.45 116.317 43.2344C118.875 43.2622 121.422 43.2769 123.98 43.2899C126.527 43.3046 129.072 43.3046 131.63 43.3177C130.664 36.19 128.375 29.0363 126.704 22.2874ZM203.702 19.2159C201.105 13.1268 198.404 6.57559 194.33 1.525C193.918 1.02043 193.534 0.514213 193.147 0.00964355C188.659 0.00964355 184.187 0.00964794 179.712 0.0243441C180.33 2.67619 181.255 5.27088 181.846 8.32932C183.145 15.021 185.446 21.5445 187.092 28.1937C187.953 31.644 189.136 37.7184 191.103 43.2458C192.619 43.401 194.124 43.5822 195.629 43.8075C195.667 42.2644 195.707 40.7214 195.745 39.1636C196.118 40.398 196.53 41.675 197.416 42.5306C199.511 44.5652 202.983 43.316 205.502 43.4434C207.404 43.5414 209.321 43.4989 211.223 43.4712C211.056 35.1107 206.016 24.6306 203.702 19.2159ZM237.5 32.4311C237.693 22.2189 239.596 10.5468 238.093 0.0390447C235.045 0.0390447 231.999 0.0243485 228.952 0.0390447C225.468 8.61019 224.323 18.7816 223.191 27.6205C222.742 31.1427 221.519 37.4833 221.456 43.432C224.812 43.4173 228.18 43.4173 231.548 43.4042C233.54 43.3895 235.546 43.3896 237.552 43.3765C237.733 38.997 237.462 34.7319 237.5 32.4311ZM278.333 0.107614C276.636 5.29864 275.518 10.8538 274.232 15.8195C271.815 25.163 269.643 33.7619 269.347 43.2328C271.185 43.2181 273.011 43.205 274.849 43.1903C275.402 43.1903 275.956 43.1903 276.508 43.1756C279.105 35.5303 280.571 27.8426 282.307 19.6487C283.617 13.4616 285.829 6.75518 286.897 0.12067C284.042 0.122303 281.187 0.107614 278.333 0.107614ZM356.784 0.360713C354.161 8.32931 351.435 16.2979 348.555 24.1669C349.07 21.2342 349.584 18.3179 350.098 15.3851C350.87 10.9943 352.155 5.45212 352.091 0.331312C348.131 0.316616 344.171 0.303551 340.211 0.288855C337.999 6.26531 336.946 13.4207 335.801 18.05C333.885 25.8505 331.211 34.3938 330.953 42.7266C334.001 42.6841 337.06 42.6564 340.119 42.6139C343.733 42.5714 347.344 42.529 350.958 42.4882C352.758 37.9993 354.16 33.272 355.522 28.8109C358.388 19.3841 360.51 10.0831 361.963 0.373769C360.241 0.375402 358.506 0.360713 356.784 0.360713Z" fill="url(#paint2_linear_155_850)"/>
<path d="M259.14 33.1971C259.555 33.2347 259.97 33.2787 260.383 33.3294C260.827 33.3832 261.27 33.4453 261.713 33.5171C262.1 33.5792 262.403 33.5613 262.783 33.5515C266.426 33.4535 270.073 33.4306 273.718 33.3702C277.362 33.3098 281.007 33.2494 284.652 33.1889C288.297 33.1285 291.942 33.0681 295.587 33.0077C299.231 32.9473 302.876 32.8869 306.521 32.8265C310.166 32.766 313.811 32.7056 317.455 32.6452C321.1 32.5847 324.745 32.5243 328.39 32.4639C332.035 32.4035 335.68 32.3431 339.324 32.2827C342.969 32.2223 346.614 32.1619 350.259 32.1014C351.863 32.0753 353.467 32.0475 355.07 32.0214C360.117 31.9381 365.167 31.8532 370.205 31.5201C372.352 31.378 374.568 31.169 376.466 30.0635C378.364 28.9581 380.476 26.4548 380.197 24.1279C380.146 26.3323 380.094 28.5384 380.043 30.7429C380.015 31.9839 379.913 33.3931 379.024 34.1703C378.216 34.8758 377.068 34.7827 376.038 34.6879C366.685 33.8225 357.306 35.7494 347.92 35.7461C342.475 35.7445 337.045 35.0913 331.6 34.9753C320.455 34.7386 309.728 34.5051 298.591 35.008C288.909 35.444 279.212 35.8816 269.534 35.377C268.173 35.3068 266.793 35.2187 265.466 35.5485C264.641 35.7542 263.852 36.1168 263.015 36.2474C262.101 36.3895 261.172 36.2457 260.258 36.1037C258.749 35.8669 257.239 35.6318 255.729 35.395C255.029 35.2856 254.218 35.0211 253.513 35.0619C253.403 35.0684 253.309 35.1125 253.202 35.1354C252.71 35.2383 252.176 35.1974 251.675 35.2154C249.909 35.2742 248.143 35.2987 246.376 35.3232C238.781 35.4277 231.188 35.5306 223.593 35.6351C214.09 35.7641 204.604 33.8519 195.201 35.3493C187.294 36.6082 179.214 34.8055 171.26 35.6399C169.979 35.7738 168.7 35.9763 167.412 35.9894C165.899 36.0041 164.396 35.7559 162.892 35.5844C157.125 34.9264 151.305 35.3917 145.522 35.8571C145.447 36.3976 145.492 36.956 145.651 37.4737C143.783 35.3574 140.757 35.2709 138.065 35.328C135.669 35.3787 133.278 35.4064 130.884 35.4048C112.66 35.3999 94.4396 34.879 76.2155 35.039C72.2008 35.0749 68.1727 35.1435 64.1994 35.7787C65.6029 34.1785 67.8227 33.8486 69.84 33.607C78.7223 32.544 87.6825 33.7817 96.6129 34.1246C104.964 34.4463 113.273 33.0763 121.578 32.3611C125.707 32.0051 129.859 31.7928 134 32.0378C135.903 32.1504 137.763 32.4721 139.652 32.6974C139.928 32.7301 140.163 32.6811 140.432 32.637C141.23 32.5064 142.121 32.7007 142.924 32.7513C143.83 32.8101 144.735 32.8607 145.641 32.9064C147.453 32.9962 149.266 33.0632 151.079 33.1089C154.709 33.202 158.339 33.2183 161.969 33.2069C165.601 33.1938 169.234 33.153 172.865 33.1285C176.497 33.104 180.129 33.0975 183.76 33.1563C184.686 33.171 185.612 33.1906 186.537 33.2135C197.89 33.5074 209.312 34.5459 220.557 32.8265C221.335 32.7073 222.144 32.4851 222.917 32.6958C223.276 32.7938 223.634 32.7513 224.001 32.7382C224.91 32.7056 225.821 32.6828 226.73 32.6648C228.55 32.6305 230.371 32.6223 232.191 32.6289C234.776 32.6403 237.362 32.6811 239.947 32.7235C244.091 32.7905 248.235 32.8591 252.381 32.926C254.155 32.9554 255.928 32.9848 257.7 33.0958C258.186 33.1187 258.662 33.1547 259.14 33.1971Z" fill="#EB924D"/>
<path d="M60.0686 41.6898C60.0421 41.7029 60.0172 41.7323 59.9906 41.7601C59.5792 42.1242 59.1031 42.392 58.6021 42.5733C56.2231 43.4567 53.0096 42.601 50.682 42.5733C47.3142 42.5178 43.9448 42.5586 40.577 42.5308H39.575C30.6148 42.4181 21.6528 42.2924 12.6793 42.1667C8.20998 42.0948 4.55188 38.9612 3.13012 34.4038C2.18449 31.3747 2.12145 28.1139 2.06836 24.9133C2.05343 24.0528 2.12311 23.0208 2.80993 22.5962C3.0903 22.4215 3.42542 22.3905 3.74727 22.3627C5.07945 22.2501 6.41162 22.1374 7.7438 22.0247C8.23818 21.9823 8.76242 21.948 9.2004 22.1994C9.63837 22.4509 9.9204 23.1057 9.64003 23.5515C9.67653 22.6762 9.71469 21.801 9.75118 20.9258C10.2273 20.8849 10.7018 20.8458 11.1779 20.805C10.9705 24.0087 10.9357 27.2255 11.0767 30.4342C11.1165 31.3372 11.2227 32.3545 11.8797 32.9032C12.3707 33.313 13.0343 33.3424 13.6531 33.3539C30.9183 33.687 48.1852 33.9695 65.4521 34.203C64.8432 35.0374 64.2344 35.8718 63.6255 36.7062C64.0768 36.2686 63.8594 35.3917 63.3634 35.0178C62.8673 34.6438 62.2237 34.6308 61.6198 34.6291C45.7515 34.6112 29.8815 34.4904 14.0148 34.2667C12.7988 34.2503 11.4566 34.1801 10.574 33.2673C9.69312 32.3578 9.55211 30.9061 9.46584 29.5867C9.34971 27.8069 9.23358 26.0254 9.11745 24.2455C9.0909 23.8454 9.05109 23.4111 8.7956 23.1253C8.59984 22.9049 8.31283 22.8167 8.03578 22.7579C6.5178 22.4297 4.89198 22.7334 3.5598 23.5907C3.34413 23.7295 3.1268 23.8928 3.01233 24.1361C2.93602 24.2994 2.91279 24.4871 2.89122 24.67C2.57104 27.5309 2.06836 32.8166 3.96294 35.0945C5.26193 36.6572 6.17107 38.6641 7.76205 39.9214C9.72464 41.4727 12.4736 41.5903 14.8012 41.716C16.9745 41.8287 19.1328 41.9266 21.3061 42.0099C21.9664 42.0328 22.6234 42.1422 23.2836 42.1079C23.5507 42.0948 23.8129 42.0164 24.08 42.0262C24.2906 42.0327 24.44 42.0311 24.639 41.925C25.0919 41.6833 25.4254 41.2245 25.6726 40.7591C26.0011 40.1402 26.2317 39.4512 26.663 38.9139C26.4158 39.5246 26.298 40.2186 26.3528 40.8864C26.3611 40.9942 26.3694 41.1118 26.4092 41.213C26.4839 41.4074 26.6182 41.4792 26.804 41.5053C27.4627 41.6017 28.1578 41.5755 28.8214 41.6049C30.1834 41.667 31.5471 41.7209 32.9092 41.7666C35.6349 41.858 38.3623 41.9136 41.0897 41.9364C42.4318 41.9478 43.8104 42.0458 45.1492 41.9429C45.3483 41.9282 45.5292 41.8335 45.7266 41.8172C46.0517 41.7895 46.3952 41.8352 46.722 41.8483C47.4055 41.8744 48.0873 41.9038 48.7692 41.9332C50.5924 42.0116 52.4323 42.1928 54.2571 42.1928C55.3239 42.2483 56.4039 42.2908 57.4706 42.3463C58.5258 42.4051 59.2209 42.1258 60.0686 41.6898Z" fill="#EB924D"/>
<path d="M191.358 35.0472C131.046 35.0472 70.9666 34.6095 12.7888 33.749C11.4915 33.7294 10.4032 32.6305 10.2588 31.1935C9.54048 24.0773 9.49237 17.5571 10.1062 11.2589C10.2373 9.91832 11.3488 8.86344 12.6378 8.85691C30.4522 8.7818 48.2648 8.69528 66.0792 8.63486C83.9333 8.63486 101.789 8.54177 119.643 8.47809C122.5 8.46829 125.566 8.97451 128.268 7.90332C130.584 6.74885 132.472 4.79588 134.524 3.15154C133.556 4.28805 132.588 5.42782 131.701 6.64271C131.555 6.84355 131.319 7.05257 131.2 7.27628C130.895 7.84616 131.381 8.11229 131.835 8.13678C133.768 8.24292 135.701 8.34908 137.633 8.45686C138.504 8.50421 139.342 8.48135 140.21 8.42093C140.543 8.39807 140.888 8.4781 141.227 8.47973C141.681 8.48136 142.134 8.48132 142.589 8.48132C144.404 8.47969 146.22 8.46501 148.035 8.45521C148.744 8.45195 149.45 8.44867 150.159 8.44704C153.8 8.44214 157.444 8.43889 161.085 8.43563C164.73 8.43236 168.375 8.43072 172.02 8.42746C175.666 8.42582 179.312 8.42421 182.957 8.42257C186.021 8.42257 189.084 8.42093 192.148 8.42093C201.082 8.42093 210.016 8.42421 218.948 8.43074C223.485 8.43401 228.022 8.43726 232.56 8.44216C233.651 8.44379 234.743 8.44381 235.833 8.44545C236.304 8.44545 236.717 8.3687 237.165 8.51566C237.462 8.61363 237.729 8.63973 238.041 8.6381C238.869 8.63483 239.697 8.56788 240.516 8.44051C240.954 8.37193 241.392 8.28538 241.812 8.13026C242.529 7.86572 243.167 7.41018 243.748 6.88928C244.251 6.43696 244.67 5.9128 245.279 5.63031C245.931 5.32659 246.464 4.88405 247.033 4.42357C247.763 3.83409 248.491 3.24624 249.221 2.65676C249.863 2.13912 250.505 1.61987 251.147 1.10223C249.262 3.72305 246.447 5.55517 245.088 8.54013C245.153 8.39806 246.187 8.37196 246.351 8.354C246.791 8.30502 247.234 8.27231 247.675 8.25598C248.559 8.22496 249.447 8.25928 250.326 8.35889C252.07 8.5581 253.843 8.47157 255.598 8.4732C259.203 8.47973 262.807 8.48625 266.412 8.49279C270.023 8.49932 273.635 8.50749 277.246 8.51566C280.865 8.52382 284.483 8.53197 288.101 8.54177C291.725 8.54994 295.349 8.55973 298.974 8.56953C302.604 8.57933 306.232 8.58914 309.862 8.60057C313.496 8.612 317.13 8.62343 320.765 8.63486C324.404 8.64629 328.042 8.65932 331.678 8.67238C335.32 8.68545 338.96 8.6985 342.601 8.7132C346.244 8.72626 349.889 8.74096 353.532 8.75565C357.177 8.77035 360.823 8.78507 364.468 8.8014C368.115 8.81773 371.761 8.83405 375.408 8.85038C376.046 8.85365 376.684 8.85692 377.322 8.85856C378.649 8.86346 379.753 9.94931 379.89 11.3814C380.481 17.5783 380.42 24.0495 379.705 31.1674C379.559 32.6174 378.464 33.7229 377.156 33.7408C314.373 34.6063 251.862 35.0472 191.358 35.0472Z" fill="url(#paint3_linear_155_850)"/>
<path d="M375.681 22.3154C376.106 23.4519 376.337 24.7141 376.312 25.9486C376.299 26.3127 375.99 29.5394 375.977 29.5394C374.049 29.5671 372.12 29.5949 370.192 29.6243C364.277 29.7092 358.376 29.7794 352.475 29.8349C351.1 29.8627 349.711 29.8774 348.336 29.8904C343.168 29.9607 337.987 30.0162 332.806 30.0733C330.711 30.1011 328.627 30.1158 326.532 30.1435C326.248 30.1435 325.966 30.1435 325.684 30.1582C324.642 30.1582 323.602 30.1729 322.56 30.186C316.633 30.2415 310.707 30.2987 304.779 30.3395C297.67 30.395 290.495 30.733 283.4 30.297C282.847 30.2693 282.19 30.1713 281.946 29.6373C281.727 29.203 281.895 28.6559 282.062 28.1922C282.693 26.4809 283.31 24.7696 283.927 23.0567C282.603 25.0489 281.15 26.943 279.594 28.7245C279.002 29.3973 278.373 30.0717 277.601 30.4783C277.447 30.5632 277.306 30.6187 277.152 30.6611C276.611 30.844 276.072 30.8293 275.481 30.6758C274.607 30.4374 273.656 30.5779 272.755 30.5779C271.816 30.5779 270.878 30.5926 269.94 30.5926C268.873 30.6073 267.818 30.6073 266.765 30.6203C258.267 30.6628 249.768 30.7036 241.271 30.733C239.252 30.7477 237.246 30.7477 235.229 30.7477C231.577 30.7755 227.926 30.7755 224.275 30.7755C217.897 30.8032 211.533 30.8179 205.156 30.8179C200.554 30.831 195.964 30.831 191.362 30.831H178.466C171.19 30.8179 163.914 30.8032 156.649 30.7885H155.106C148.357 30.7738 141.607 30.7461 134.869 30.7036C133.056 30.7036 131.245 30.6889 129.431 30.6758H129.328C128.467 30.6758 127.58 30.6758 126.719 30.6611C126.166 30.6611 125.563 30.6056 124.984 30.6187C124.726 30.6334 124.469 30.6464 124.212 30.702C122.707 31.0383 121.242 31.0253 119.7 31.0531C119.378 31.0531 119.058 31.0677 118.722 31.0677C118.143 31.0824 117.564 31.0824 116.987 31.0955C116.692 31.1102 114.494 30.9273 114.391 31.1379C115.2 29.5524 116.101 28.0371 117.117 26.5919C117.72 25.6938 118.376 24.8382 119.058 24.0103C118.21 24.4169 117.45 24.9917 116.743 25.6383C115.844 26.4515 115.008 27.3774 114.134 28.22C112.835 29.4822 111.074 30.8995 109.235 30.8848C108.682 30.8848 108.193 30.5909 107.654 30.5207C107.615 30.5207 107.576 30.506 107.537 30.506C107.01 30.4505 106.433 30.5207 105.892 30.5338C104.671 30.5485 103.436 30.5762 102.215 30.5893C101.92 30.604 101.573 30.5746 101.379 30.3231C101.174 30.0292 101.301 29.5932 101.457 29.2422C102.229 27.4051 103.128 25.6367 104.145 23.9531C102.396 25.1729 101.189 27.1243 99.6324 28.638C98.8991 29.3402 98.0513 29.9427 97.1256 30.2937C96.1352 30.6726 95.3521 30.5599 94.3485 30.4195C93.8474 30.3493 93.3066 30.4473 92.7923 30.4473C89.9256 30.4195 87.0455 30.3917 84.1788 30.3639C80.1292 30.3362 76.0912 30.2937 72.0432 30.2513L66.9899 30.2088C65.3309 30.1941 63.6852 30.1664 62.0278 30.1533C59.2772 30.1255 56.5117 30.0978 53.761 30.0553C49.2104 30.0129 44.6581 29.9574 40.1075 29.9018C38.0885 29.8741 36.0828 29.8463 34.0654 29.8316C31.635 29.7892 29.1929 29.7614 26.7509 29.7337C25.6709 29.719 14.0098 29.7892 13.9849 29.5508C13.9069 28.6951 13.9335 27.784 13.7145 26.9561C13.5735 26.4646 13.3163 26.0433 13.2383 25.5387C13.0459 24.332 13.3794 22.6354 14.4859 22.0737C14.8592 21.8777 15.2955 21.8353 15.7069 21.7928C18.9851 21.4842 22.2633 21.1609 25.5415 20.8523C25.7721 20.8245 25.9911 20.7968 26.2233 20.7968C22.907 20.7119 19.5774 20.6563 16.2461 20.573C15.5394 20.5583 14.7679 20.5306 14.1242 20.1664C13.7377 19.9558 13.5967 19.8154 13.5453 19.3941C13.4806 18.8748 13.7128 13.0535 13.8273 13.0535C18.0179 13.0388 22.2235 13.011 26.439 12.998C32.1858 12.9702 37.9458 12.9425 43.7175 12.9278C46.3536 12.9131 49.0014 12.9 51.6491 12.9C54.0796 12.8853 56.5083 12.8723 58.9521 12.8723C73.4534 12.8167 88.0326 12.7743 102.663 12.7318C105.402 12.7171 108.14 12.7171 110.879 12.7171C113.643 12.7024 116.407 12.7024 119.17 12.7024C120.572 12.6877 121.972 12.6877 123.374 12.6877C132.104 12.673 140.834 12.66 149.577 12.6453H150.386C161.07 12.6306 171.766 12.6175 182.463 12.6175H197.646C202.313 12.6175 206.993 12.6322 211.66 12.6322C212.74 12.6322 213.833 12.6322 214.924 12.6175C215.734 12.6175 216.57 12.5195 217.355 12.8559C218.023 13.1515 218.576 13.3752 219.322 13.4029C219.658 13.4176 222.061 13.3882 222.138 12.9816C221.7 15.3102 221.123 17.6109 220.427 19.8692C221.881 18.9858 222.755 17.3023 223.654 15.7723C224.207 14.8464 224.85 13.8928 225.66 13.2184C225.725 13.1629 225.801 13.1057 225.866 13.0502C226.264 12.7563 226.74 12.4183 227.228 12.4477C228.334 12.4901 229.464 12.6159 230.595 12.6436C231.405 12.6714 232.203 12.8118 232.999 12.882C234.195 12.9947 235.327 12.9098 236.407 13.5695C236.42 13.5695 236.42 13.5842 236.433 13.5842L236.395 13.6266C233.888 17.1619 231.368 20.6972 228.862 24.2324C228.502 24.737 228.142 25.2431 227.909 25.831C230.814 23.0812 233.567 20.1207 236.112 16.9643C236.767 16.1642 237.411 15.351 238.028 14.5231C238.361 14.0741 238.71 13.625 239.172 13.3866C239.571 13.1907 240.009 13.1629 240.432 13.1204C246.577 12.6012 252.992 12.6714 259.279 12.6861C264.512 12.7008 269.731 12.7008 274.964 12.7138C276.931 12.7138 278.897 12.7285 280.865 12.7285H281.276C288.36 12.7432 295.457 12.7563 302.541 12.7841C309.793 12.7987 317.044 12.8265 324.294 12.8543C325.618 12.8543 326.93 12.8543 328.254 12.869H330.53C332.742 12.8837 334.953 12.8837 337.164 12.8967C340.147 12.8967 343.117 12.9114 346.1 12.9245C347.052 12.9245 348.003 12.9392 348.953 12.9392C349.66 12.9392 350.367 12.9392 351.075 12.9539C353.403 12.9539 355.729 12.9686 358.043 12.9816C361.348 12.9816 364.651 13.0094 367.955 13.0241C370.694 13.0241 373.432 13.0388 376.158 13.0519C376.285 13.0519 376.312 16.6998 376.388 17.0362C376.44 17.2468 376.569 17.4003 376.607 17.6256C376.697 18.2004 376.337 18.8177 375.925 19.1263C375.373 19.5476 374.678 19.6308 374.009 19.7157C367.864 20.4587 361.68 21.1887 355.521 20.88C354.685 20.8523 353.862 20.7951 353.039 20.7118C353.849 20.8098 354.659 20.8947 355.481 20.978C362.195 21.7128 368.933 22.1472 375.681 22.3154Z" fill="url(#paint4_linear_155_850)"/>
<path d="M387.421 10.6301C387.407 11.4727 387.369 12.2287 386.983 12.9733C387.857 8.87633 385.518 4.17681 381.815 2.89987C380.529 2.45082 379.167 2.36593 377.817 2.29735C369.678 1.86299 361.54 1.42699 353.39 1.14776C353.351 1.14776 353.312 1.13306 353.274 1.13306C349.635 1.00733 345.997 0.909366 342.359 0.839151C338.721 0.768936 335.083 0.713415 331.431 0.684023C327.793 0.656263 324.155 0.656259 320.517 0.669322C316.865 0.684018 313.227 0.711769 309.589 0.752592C305.937 0.808111 302.299 0.865312 298.661 0.935527C295.023 1.00574 291.371 1.07595 287.733 1.17393C284.095 1.2572 280.457 1.35681 276.805 1.45478C274.992 1.49724 273.167 1.53969 271.341 1.59521C270.196 1.62297 269.142 1.62298 268.062 1.32905C267.895 1.2866 267.729 1.23104 267.561 1.17552C267.072 0.992634 266.571 0.852213 266.045 0.796694C265.287 0.698719 264.529 0.72648 263.769 0.72648C261.493 0.69872 259.218 0.684025 256.955 0.656266C247.944 0.571355 238.944 0.460322 229.944 0.37541C229.202 0.367246 228.427 0.319875 227.692 0.450508C227.543 0.476634 227.402 0.522369 227.263 0.586052C226.843 0.780368 226.423 0.966549 225.997 1.14617C224.955 1.58216 223.918 2.02957 222.885 2.49005C222.888 2.14877 222.891 1.80583 222.894 1.46455C222.894 1.39433 222.893 1.31758 222.85 1.26696C222.808 1.21961 222.743 1.20982 222.682 1.20492C222.058 1.14287 221.435 1.08085 220.811 1.0188C220.525 0.991038 220.225 0.987779 219.946 0.914298C219.776 0.868577 219.618 0.777116 219.445 0.742825C218.868 0.626888 218.208 0.723203 217.622 0.724835C216.985 0.726468 216.35 0.728124 215.713 0.728124C212.987 0.742821 210.248 0.755881 207.524 0.755881C204.785 0.770577 202.059 0.783638 199.322 0.783638C196.583 0.798334 193.857 0.798331 191.12 0.811394C188.394 0.826091 185.655 0.826088 182.929 0.839151C182.234 0.839151 181.554 0.839155 180.872 0.853852H180.293C179.857 0.868548 179.405 0.88161 178.982 0.811394C178.609 0.755876 178.276 0.573002 177.916 0.517483C177.323 0.419508 176.706 0.489719 176.116 0.502782C174.508 0.530542 172.902 0.558304 171.295 0.587697C168.556 0.643215 165.83 0.685669 163.093 0.728124C160.354 0.77058 157.629 0.811403 154.89 0.840796C152.151 0.883251 149.426 0.911007 146.688 0.938766C143.949 0.966526 141.224 0.994288 138.486 1.02368C135.747 1.03838 133.021 1.06613 130.284 1.07919C127.545 1.09389 124.821 1.10696 122.082 1.12165C119.343 1.13635 116.619 1.13634 113.88 1.14941H101.577C101.049 1.14941 100.548 1.16411 100.034 0.981223C99.8415 0.925705 99.6607 0.868555 99.455 0.840796C98.2074 0.715062 96.9084 0.813035 95.6492 0.798338C92.9102 0.770579 90.1845 0.755888 87.4472 0.742825C84.7081 0.728129 81.9824 0.728129 79.2451 0.742825C76.5061 0.742825 73.7803 0.770579 71.043 0.798338C68.3305 0.840794 65.6297 0.95183 62.9172 1.05144C61.5552 1.09389 60.1782 1.14941 58.8162 1.19187C58.1343 1.20656 57.4541 1.23432 56.7723 1.26208C56.4255 1.27678 56.0904 1.27677 55.7437 1.28984C55.6408 1.30453 54.7798 1.26208 54.7665 1.33229C54.677 1.66867 54.6255 2.01977 54.6255 2.38391C53.9437 1.21964 52.4406 1.09389 51.1665 1.10695C49.8045 1.12165 48.4275 1.13471 47.0655 1.14941C44.3265 1.1641 41.6007 1.19186 38.8634 1.20492C36.1244 1.23268 33.387 1.26044 30.6613 1.27514C29.286 1.28983 27.9223 1.3029 26.547 1.31759C26.2633 1.31759 25.9564 1.36005 25.6727 1.27514C24.9145 1.05143 24.1049 1.03674 23.3202 0.938766C20.0039 0.559931 16.6345 0.181104 13.3181 0.742825C9.15237 1.44334 4.96174 3.91395 3.31601 8.14972C2.14642 11.1379 2.40356 14.5474 2.68559 17.7871C2.73702 18.3341 2.78845 18.8812 2.90458 19.4282C2.99417 19.8773 3.13518 20.3263 3.36744 20.7607C3.07214 20.6627 2.77518 20.5353 2.51804 20.3263C2.35048 20.1859 2.35048 20.1157 2.29905 19.8919C2.22107 19.5556 2.13149 19.2323 2.05517 18.8959C1.73333 17.5912 2.0419 16.0481 2.11987 14.7287C2.20946 13.2836 2.31232 11.7552 2.44172 10.3656C2.99417 4.7255 7.40379 0.46196 12.6114 0.432568C14.939 0.417872 17.2649 0.404811 19.5925 0.404811C21.3543 0.390115 23.1145 0.390118 24.8896 0.377055H25.5068C29.7107 0.349295 33.9146 0.334605 38.1185 0.321541C39.9832 0.306845 41.8463 0.306841 43.711 0.306841C44.8291 0.292145 45.9606 0.29214 47.092 0.29214C49.2139 0.277444 51.3341 0.277447 53.4559 0.264384C56.1817 0.264384 58.9074 0.24969 61.6331 0.236627C64.3589 0.221931 67.0846 0.221934 69.7971 0.20887C72.5361 0.194174 75.2602 0.194177 77.9859 0.181114C80.7116 0.166417 83.4374 0.16642 86.1631 0.153357C88.9021 0.153357 91.6278 0.138663 94.3652 0.1256H94.5327C95.0603 0.140296 95.5862 0.168056 96.1138 0.1256C96.1917 0.1256 96.268 0.125596 96.3444 0.1109C96.5368 0.0831402 96.7176 0.0406901 96.9101 0.0553863C97.1291 0.0831457 97.3348 0.110904 97.5272 0.1256H97.6682C98.5044 0.110904 99.3521 0.1109 100.202 0.1109H101.449C104.316 0.1109 107.196 0.110895 110.076 0.0961991C112.442 0.0961991 114.821 0.0814985 117.198 0.0814985H120.154C122.301 0.0814985 124.461 0.0667979 126.608 0.0667979C129.334 0.0667979 132.059 0.0520973 134.772 0.0520973C137.511 0.0520973 140.235 0.0520929 142.961 0.0373968H151.612C154.197 0.0373968 156.755 0.0373924 159.327 0.0226962H171.63C172.312 0.0226962 172.992 -0.00506329 173.687 0.0226962C173.893 0.0373924 174.085 0.120662 174.291 0.105966C174.445 0.09127 174.613 0.0635189 174.767 0.0226962H180.14C184.472 0.00799999 188.805 0.00799561 193.15 0.00799561C205.069 0.00799561 216.998 0.00799281 228.955 0.0357523C232.002 0.0210561 235.048 0.0357523 238.096 0.0357523C241.721 0.0357523 245.334 0.0504529 248.959 0.0504529C252.61 0.0504529 256.249 0.0651534 259.9 0.0651534H262.702C263.435 0.0929129 264.104 0.359066 264.849 0.288851C265.234 0.261092 265.607 0.176184 265.967 0.0782095H268.062C271.482 0.0929057 274.902 0.0929029 278.335 0.105966C281.19 0.105966 284.043 0.120667 286.897 0.120667C304.625 0.163122 322.406 0.218636 340.212 0.288851C344.172 0.303548 348.132 0.316612 352.092 0.331309C353.66 0.346005 355.216 0.346002 356.786 0.359065C358.508 0.359065 360.245 0.373766 361.967 0.373766C367.096 0.401525 372.226 0.41622 377.356 0.44398C381.958 0.458676 386.407 4.09194 387.358 9.10008C387.446 9.60628 387.432 10.1255 387.421 10.6301Z" fill="#EB924D"/>
<path d="M131.039 7.10481C130.886 7.2681 130.765 7.44935 130.725 7.65346C130.699 7.79553 130.664 8.25928 130.749 8.36542C130.86 8.50585 131.558 8.38991 131.744 8.38665C132.428 8.37522 133.109 8.35889 133.791 8.33766C135.006 8.30011 136.222 8.25109 137.434 8.18577C136.678 7.99962 135.89 8.12374 135.113 8.15966C133.902 8.21681 132.658 7.74493 131.487 7.42488C132.056 6.66721 132.625 5.9095 133.196 5.15182C133.006 5.40329 132.686 5.60744 132.456 5.81808C132.2 6.04996 131.945 6.28509 131.693 6.52022C131.51 6.69168 131.246 6.8811 131.039 7.10481Z" fill="#EB924D"/>
<path d="M246.766 6.79944C246.597 7.01988 246.444 7.27788 246.497 7.55221C246.543 7.79388 246.748 7.97189 246.965 8.04211C247.182 8.11232 247.414 8.096 247.64 8.07804C248.788 7.98823 249.936 7.90006 251.084 7.81188C251.623 7.76943 252.166 7.72859 252.705 7.76778C253.563 7.83146 254.395 8.09762 255.247 8.23805C256.833 8.50095 258.455 8.31968 260.044 8.54502C259.995 8.53849 259.907 8.58422 259.857 8.59565C259.782 8.61361 259.708 8.62832 259.633 8.63975C259.489 8.66261 259.344 8.67566 259.198 8.68056C258.903 8.69036 258.609 8.66916 258.316 8.63487C257.722 8.56628 257.133 8.4438 256.537 8.40788C256.245 8.39155 255.952 8.39643 255.663 8.44052C255.544 8.45848 255.427 8.48134 255.308 8.46175C255.212 8.44705 255.12 8.41604 255.024 8.40788C254.359 8.34746 253.667 8.40624 253.002 8.42746C252.493 8.44379 251.983 8.46667 251.474 8.49279C250.507 8.54015 249.54 8.61526 248.572 8.66915C247.899 8.70671 247.224 8.7361 246.55 8.73937C246.419 8.73937 246.295 8.72955 246.174 8.77853C246.072 8.81936 245.968 8.84221 245.858 8.84057C245.649 8.83568 245.439 8.74427 245.293 8.57771C245.258 8.53852 245.225 8.49117 245.218 8.43728C245.211 8.38339 245.231 8.32949 245.251 8.28051C245.399 7.91147 245.583 7.56037 245.797 7.23542C245.898 7.08193 246.004 6.90394 246.14 6.78474C246.18 6.74881 246.228 6.72432 246.268 6.68677C246.381 6.58226 246.451 6.42227 246.53 6.29C247.167 5.24657 247.993 4.34195 248.944 3.63817C249.06 3.55162 249.185 3.50423 249.302 3.42912C249.453 3.33441 249.583 3.15478 249.704 3.01925C249.971 2.71716 250.22 2.39552 250.467 2.07547C249.71 3.05358 248.947 4.02676 248.246 5.05386C248.126 5.22858 247.983 5.31349 247.847 5.46208C247.491 5.85235 247.172 6.29651 246.839 6.70964C246.816 6.7374 246.791 6.76841 246.766 6.79944Z" fill="#EB924D"/>
<path d="M149.615 43.3881C148.213 43.3881 146.813 43.3734 145.411 43.3734C141.837 43.3734 138.262 43.3587 134.689 43.3309C133.673 43.3309 132.645 43.3162 131.63 43.3162C129.071 43.3015 126.526 43.3015 123.98 43.2885C121.422 43.2738 118.877 43.2607 116.317 43.2329C115.302 43.2329 114.286 43.2329 113.269 43.2182C109.708 43.2035 106.147 43.1758 102.585 43.148C99.0236 43.1203 95.4634 43.0925 91.9015 43.0631C88.7528 43.0354 85.6272 43.0076 82.4784 42.9929C82.067 42.9782 81.6423 42.9782 81.2308 42.9782C79.8423 42.9782 78.467 42.9635 77.0784 42.9635C73.0022 42.921 68.9277 42.8231 64.8516 42.6973C64.4916 42.6826 60.4154 42.9358 60.9048 42.0246C60.9181 42.0099 60.9181 41.9969 60.9181 41.9969C61.8571 40.524 62.9238 38.9809 63.7715 37.5635C63.5907 37.957 63.3983 38.3358 63.2191 38.7277C62.7562 39.6961 62.3066 40.6644 61.8571 41.618C64.0685 42.1372 66.3447 42.263 68.6059 42.361C95.3605 43.5808 122.178 42.0948 148.946 43.0337C149.177 43.05 149.396 43.2052 149.615 43.3881Z" fill="#EB924D"/>
<path d="M181.909 42.0964C181.935 42.3495 181.909 42.5879 181.768 42.7692C181.383 43.246 180.701 42.9096 180.212 42.9929C179.954 43.0484 179.838 43.1888 179.608 43.3015C179.004 43.5971 178.284 43.4566 177.629 43.4566C174.042 43.4566 170.468 43.4419 166.88 43.4419C163.293 43.4272 159.72 43.4272 156.131 43.4142C153.958 43.3995 151.786 43.3995 149.613 43.3864H149.318C149.575 43.1758 149.883 43.2035 150.205 43.1758C152.287 43.0925 154.371 43.0076 156.466 42.9651C158.537 42.9096 160.619 42.8672 162.701 42.8525C164.783 42.8378 166.867 42.8525 168.962 42.8802C171.032 42.908 173.114 42.9504 175.198 43.0206C175.442 43.0353 175.686 43.0353 175.931 43.0484C177.899 43.1186 180.032 43.1464 181.6 41.8417C181.652 41.9854 181.768 42.0833 181.909 42.0964Z" fill="#EB924D"/>
<path d="M184.275 42.0409C185.071 42.6729 186.036 42.9113 187.038 42.9815C186.151 42.9962 185.252 43.1219 184.48 43.5987C183.644 42.0981 182.81 40.5958 181.987 39.0952C182.745 40.0766 183.311 41.2833 184.275 42.0409Z" fill="#EB924D"/>
<path d="M195.64 42.8264C195.64 42.8117 195.654 42.8117 195.654 42.7986C195.64 43.135 195.64 43.4713 195.629 43.8077C194.124 43.584 192.621 43.4011 191.103 43.246C190.164 43.1611 189.227 43.0778 188.288 43.0223C188.469 43.0076 188.634 43.0076 188.815 43.0076C191.09 42.9521 193.364 42.8819 195.64 42.8264Z" fill="#EB924D"/>
<path d="M221.635 43.4305H220.736C218.448 43.4305 216.159 43.4452 213.871 43.4452C212.997 43.4452 212.109 43.4599 211.223 43.473C209.32 43.5008 207.404 43.5432 205.501 43.4452C202.981 43.3195 199.511 44.5671 197.415 42.5325C197.21 42.3365 197.017 42.1111 196.863 41.8597C200.154 43.8665 204.334 43.3473 208.164 43.0517C212.648 42.7137 217.174 42.8411 221.635 43.4305Z" fill="#EB924D"/>
<path d="M307.492 42.4753C308.187 42.152 308.829 41.7176 309.381 41.1559C309.33 41.311 309.278 41.4498 309.214 41.6049C309.021 42.0817 308.738 42.6157 308.275 42.6843C307.902 42.7545 307.555 42.5292 307.182 42.5586C306.911 42.5733 306.808 42.7267 306.589 42.8525C306.435 42.9227 306.319 42.9374 306.153 42.9505C305.138 43.0909 304.019 42.9782 302.991 42.9782C300.857 43.006 298.709 43.0207 296.562 43.0337C292.949 43.0615 289.324 43.0892 285.711 43.117C282.638 43.1447 279.577 43.1595 276.505 43.1726C275.953 43.1872 275.4 43.1873 274.846 43.1873C273.008 43.202 271.181 43.215 269.343 43.2297C267.57 43.2297 265.781 43.2444 264.008 43.2575C260.394 43.2722 256.783 43.2999 253.17 43.313C249.569 43.3277 245.956 43.3407 242.358 43.3554C240.75 43.3554 239.144 43.3701 237.55 43.3701C235.544 43.3848 233.539 43.3848 231.546 43.3979C228.241 43.4126 224.925 43.4126 221.634 43.4257H218.407C218.677 43.2575 218.973 43.1595 219.294 43.1448C222.007 43.0044 224.708 42.8639 227.42 42.7382C228.63 42.6679 229.851 42.57 231.072 42.5553C231.316 42.5553 231.559 42.57 231.817 42.6108C232.163 42.6532 232.512 42.7659 232.858 42.8639C233.912 43.1448 235.005 42.9194 236.06 42.8084C236.626 42.7529 237.217 42.5847 237.771 42.7235C238.041 42.7937 238.323 42.8084 238.607 42.8361C239.173 42.8917 239.738 42.921 240.304 42.921C241.46 42.9064 242.605 42.7953 243.736 42.5569C243.916 42.5292 244.096 42.4867 244.277 42.5292C244.47 42.5716 244.637 42.6974 244.816 42.81C245.896 43.4828 247.247 43.1611 248.493 42.9505C249.38 42.81 250.28 42.7121 251.18 42.6843C251.643 42.6843 252.093 42.6843 252.556 42.699C254.575 42.7839 256.605 42.7839 258.638 42.8117C261.363 42.8541 264.101 42.8672 266.826 42.8819C269.565 42.8819 272.303 42.8672 275.028 42.8394C277.767 42.8117 280.493 42.7545 283.231 42.6843C284.684 42.6565 286.149 42.6141 287.615 42.5716C289.093 42.5292 290.572 42.4736 292.051 42.5569C293.389 42.6271 294.726 42.7953 296.076 42.7953C296.655 42.7953 297.272 42.81 297.825 42.6124C298.172 42.4998 298.467 42.2761 298.802 42.1634C298.994 42.0932 299.187 42.0507 299.394 42.0377C300.539 41.8842 301.708 42.023 302.853 42.0524C304.461 42.0948 306.055 42.1781 307.661 42.3055C307.761 42.3218 307.389 42.4475 307.492 42.4753Z" fill="#EB924D"/>
<path d="M386.52 35.5027C384.912 39.4021 381.352 42.0965 377.251 42.152C375.798 42.1797 374.333 42.1944 372.88 42.2075C369.241 42.263 365.59 42.3055 361.952 42.3626C358.314 42.4051 354.675 42.4475 351.024 42.4884H350.959C347.346 42.5308 343.734 42.5733 340.121 42.6141C337.062 42.6565 334.001 42.6843 330.955 42.7268C330.376 42.7268 329.799 42.7415 329.22 42.7415C325.582 42.7692 321.957 42.8117 318.33 42.8394C317.237 42.8541 316.132 42.9243 315.052 42.8672C313.934 42.8247 312.816 42.7137 311.709 42.7137C311.517 42.7137 311.298 42.699 311.13 42.588C310.808 42.392 310.719 41.943 310.667 41.5364C310.578 40.9044 310.513 40.2741 310.475 39.6422C310.488 39.6144 310.501 39.5997 310.513 39.572C310.475 40.6236 311.233 41.5641 312.12 41.9707C313.008 42.392 314.01 42.392 314.974 42.392C318.536 42.392 322.109 42.392 325.671 42.3773C327.355 42.3773 329.039 42.3773 330.724 42.3626C331.534 42.3626 332.344 42.3626 333.142 42.3479C333.553 42.3479 333.951 42.3479 334.363 42.3332C334.774 42.3332 335.21 42.3757 335.622 42.3185C335.866 42.2761 336.098 42.2206 336.355 42.2059C336.69 42.1912 337.037 42.1634 337.37 42.1503C338.732 42.0948 340.096 42.0377 341.458 41.9822C343.656 41.8973 345.854 41.8287 348.041 41.7715C350.175 41.716 352.296 41.6735 354.418 41.6311C356.912 41.5886 359.407 41.5462 361.9 41.4907C364.356 41.4482 366.798 41.4058 369.255 41.4629C371.878 41.5184 374.5 41.6882 377.123 41.4907C378.447 41.3927 379.771 41.1951 381.057 40.8309C381.301 40.7607 381.571 40.635 381.828 40.6072C381.866 40.5925 381.918 40.6219 381.982 40.6072C382.099 40.5795 382.215 40.5093 382.304 40.4243C383.076 39.8071 383.834 39.1621 384.554 38.4747C384.863 38.1938 385.171 37.8999 385.377 37.5064C385.506 37.2533 385.583 36.9871 385.699 36.7209C385.903 36.2604 386.198 35.8685 386.52 35.5027Z" fill="#EB924D"/>
<path d="M53.7562 30.0603C49.2055 30.0178 44.6533 29.9623 40.1026 29.9068C38.0836 29.879 36.0779 29.8513 34.0605 29.8366C33.6873 29.0936 33.3273 28.3767 32.9805 27.6893C30.5634 22.9342 28.4034 18.0094 26.4358 13.0013C32.1826 12.9735 37.9426 12.9457 43.7143 12.931C44.6533 14.4888 45.5657 16.032 46.4914 17.5881C48.9219 21.6982 51.417 25.8376 53.7562 30.0603ZM66.985 23.4519C64.4136 19.804 61.7907 16.2279 58.9505 12.8739C56.5085 12.8739 54.078 12.8886 51.6476 12.9016C54.3733 18.4437 57.6382 23.6331 61.0972 28.7539C61.4058 29.2177 61.7144 29.6798 62.023 30.1566C63.682 30.1713 65.3277 30.1991 66.985 30.2121L72.0383 30.2546C70.303 27.9277 68.5412 25.6547 66.985 23.4519ZM110.877 12.7204C108.138 12.7204 105.401 12.7204 102.662 12.7351C103.704 18.8373 105.349 24.8007 107.534 30.5093C107.572 30.5093 107.612 30.524 107.65 30.524C108.191 30.5943 108.679 30.8882 109.231 30.8882C111.07 30.9029 112.831 29.4855 114.13 28.2233C115.005 27.3807 115.841 26.4548 116.74 25.6416C115.018 21.2083 113.064 16.8876 110.877 12.7204ZM117.113 26.5953C116.098 28.0404 115.197 29.5557 114.388 31.1413C114.49 30.9306 116.689 31.1135 116.984 31.0988C117.563 31.0841 118.142 31.0841 118.719 31.0711C118.218 29.5688 117.679 28.0681 117.113 26.5953ZM123.374 12.6926C121.973 12.6926 120.572 12.6927 119.17 12.7073C121.009 18.7116 122.912 24.7027 124.982 30.622C125.561 30.6073 126.165 30.6645 126.717 30.6645C127.578 30.6792 128.466 30.6792 129.327 30.6792C127.475 24.6309 125.456 18.6413 123.374 12.6926ZM200.745 20.142C199.768 17.5881 198.726 15.0914 197.646 12.6224H182.463C183.273 18.0372 184.442 23.2984 185.96 28.6299C186.166 29.3598 186.372 30.088 186.577 30.8327H191.36C195.962 30.8327 200.553 30.8327 205.155 30.8196C203.675 27.2256 202.107 23.6626 200.745 20.142ZM233.001 12.8886C232.205 12.8184 231.407 12.6779 230.597 12.6502C229.466 12.6224 228.334 12.4951 227.229 12.4542C226.742 12.4265 226.265 12.7628 225.867 13.0568C225.803 13.1123 225.726 13.1694 225.662 13.225C225.456 16.5496 225.326 19.7207 225.069 22.4134C224.812 25.1207 224.529 27.9261 224.273 30.7739C227.924 30.7739 231.576 30.7739 235.227 30.7461C235.355 28.3751 235.458 26.0597 235.574 23.8013C235.677 21.739 235.896 19.4252 236.115 16.9693C236.218 15.8899 236.321 14.7664 236.399 13.6299C236.412 13.6152 236.412 13.5875 236.412 13.5744C235.329 12.9164 234.197 13.0013 233.001 12.8886ZM280.865 12.7351C278.897 12.7351 276.931 12.7204 274.964 12.7204C272.945 18.5564 271.274 24.5329 269.937 30.5926C270.876 30.5926 271.813 30.5779 272.752 30.5779C273.651 30.5779 274.604 30.4375 275.478 30.6759C276.069 30.8294 276.609 30.8441 277.149 30.6612C278.575 24.6994 279.951 18.723 281.276 12.7319H280.865V12.7351ZM351.075 12.9588C349.443 16.8451 347.797 20.7168 346.087 24.5753C346.113 24.4904 346.125 24.4072 346.151 24.3222C346.974 20.6041 348.003 16.8027 348.953 12.9441C348.001 12.9441 347.051 12.9294 346.1 12.9294C343.117 12.9147 340.147 12.9016 337.165 12.9016C336.523 15.6662 335.904 18.4013 335.224 21.0237C334.452 23.9695 333.616 27.0002 332.806 30.0717C337.987 30.0162 343.168 29.959 348.336 29.8888C349.712 29.8741 351.1 29.8611 352.475 29.8333C352.565 29.5949 352.643 29.3695 352.719 29.1458C353.658 26.4238 354.584 23.7033 355.483 20.9813C355.496 20.9535 355.508 20.9111 355.521 20.8833C356.382 18.2592 357.232 15.6368 358.041 12.985C355.729 12.9735 353.401 12.9588 351.075 12.9588ZM328.254 12.8755C326.389 18.656 324.448 24.4071 322.559 30.1876C323.601 30.1729 324.641 30.1599 325.683 30.1599C327.456 24.4496 329.039 18.6707 330.53 12.8755H328.254ZM150.386 12.6502H149.577C151.402 18.7115 153.202 24.7713 155.104 30.7902H156.211C154.333 24.7288 152.365 18.6822 150.386 12.6502Z" fill="url(#paint5_linear_155_850)"/>
<defs>
<linearGradient id="paint0_linear_155_850" x1="226.339" y1="-78.9563" x2="215.515" y2="-43.6298" gradientUnits="userSpaceOnUse">
<stop stop-color="#CF5C2B"/>
<stop offset="1" stop-color="#59173E"/>
</linearGradient>
<linearGradient id="paint1_linear_155_850" x1="194.338" y1="-21.1369" x2="195.734" y2="91.6128" gradientUnits="userSpaceOnUse">
<stop stop-color="#CF5C2B"/>
<stop offset="1" stop-color="#59173E"/>
</linearGradient>
<linearGradient id="paint2_linear_155_850" x1="190.774" y1="-17.4277" x2="190.774" y2="136.114" gradientUnits="userSpaceOnUse">
<stop stop-color="#CF5C2B"/>
<stop offset="1" stop-color="#59173E"/>
</linearGradient>
<linearGradient id="paint3_linear_155_850" x1="194.985" y1="130.98" x2="194.985" y2="10.2758" gradientUnits="userSpaceOnUse">
<stop stop-color="#CF5C2B"/>
<stop offset="1" stop-color="#59173E"/>
</linearGradient>
<linearGradient id="paint4_linear_155_850" x1="194.697" y1="80.4593" x2="195.049" y2="-24.5782" gradientUnits="userSpaceOnUse">
<stop stop-color="#CF5C2B"/>
<stop offset="1" stop-color="#59173E"/>
</linearGradient>
<linearGradient id="paint5_linear_155_850" x1="192.24" y1="78.2078" x2="192.24" y2="-39.6178" gradientUnits="userSpaceOnUse">
<stop stop-color="#CF5C2B"/>
<stop offset="1" stop-color="#59173E"/>
</linearGradient>
</defs>
</svg>
