<svg width="24" height="24" viewBox="0 0 24 24" fill="none" xmlns="http://www.w3.org/2000/svg">
<path d="M6.15429 14.6014L6.66429 18.5486L1.71429 16.1914L2.87572 12.9943L6.15429 14.6014Z" fill="#FFCC00"/>
<path opacity="0.4" d="M4.28571 17.4129L3.25714 16.9243L2.27142 14.6572L2.63999 13.6372L4.28571 17.4129ZM6.30428 18.3772L5.27142 17.8843L3.21428 13.1614L4.25142 13.6672L6.30428 18.3772Z" fill="white"/>
<path d="M17.0786 13.4486L6.6643 18.5529L6.1543 14.6014L15.7114 10.0929L17.0786 13.4486Z" fill="#FFBC00"/>
<path d="M15.7114 10.0929L6.1543 14.6014L2.87573 12.9943L11.9914 8.70428L15.7114 10.0929Z" fill="#FDED04"/>
<path opacity="0.4" d="M14.0657 9.47572L10.1657 12.7071L12.7071 8.97L14.0657 9.47572ZM10.9843 9.17143L7.83429 13.8043L6.22714 14.5629L9.38143 9.92572L10.9843 9.17143ZM6.77572 11.1557L4.86429 13.9671L5.63143 11.6914L6.77572 11.1557Z" fill="white"/>
<path d="M11.3614 17.07L11.8714 21.0214L6.92145 18.66L8.08288 15.4629L11.3614 17.07Z" fill="#FFCC00"/>
<path opacity="0.4" d="M9.49286 19.8814L8.46429 19.3929L7.47858 17.1257L7.84715 16.1057L9.49286 19.8814ZM11.5114 20.8457L10.4786 20.3571L8.42143 15.63L9.45858 16.14L11.5114 20.8457Z" fill="white"/>
<path d="M22.2857 15.9214L11.8715 21.0214L11.3615 17.07L20.9186 12.5614L22.2857 15.9214Z" fill="#FFBC00"/>
<path d="M20.9186 12.5614L11.3614 17.07L8.08286 15.4629L17.1986 11.1729L20.9186 12.5614Z" fill="#FDED04"/>
<path opacity="0.4" d="M19.2729 11.9486L15.3729 15.1757L17.9143 11.4386L19.2729 11.9486ZM16.1914 11.6443L13.0414 16.2729L11.4343 17.0314L14.5886 12.3986L16.1914 11.6443ZM11.9829 13.6286L10.0714 16.4357L10.8386 14.1643L11.9829 13.6286Z" fill="white"/>
<path d="M9.83145 11.82L10.3414 15.7714L5.39145 13.41L6.55288 10.2129L9.83145 11.82Z" fill="#FFCC00"/>
<path opacity="0.4" d="M7.96286 14.6314L6.93858 14.1429L5.94858 11.8757L6.32143 10.8557L7.96286 14.6314ZM9.98144 15.5957L8.94858 15.1071L6.89143 10.38L7.93286 10.8857L9.98144 15.5957Z" fill="white"/>
<path d="M20.7557 10.6714L10.3457 15.7714L9.83145 11.82L19.3886 7.31143L20.7557 10.6714Z" fill="#FFBC00"/>
<path d="M19.3886 7.31144L9.83145 11.82L6.55716 10.2129L15.6686 5.92287L19.3886 7.31144Z" fill="#FDED04"/>
<path opacity="0.4" d="M17.7429 6.69858L13.8429 9.92573L16.3886 6.18858L17.7429 6.69858ZM14.6614 6.3943L11.5114 11.0229L9.9043 11.7814L13.0586 7.14858L14.6614 6.3943ZM10.4529 8.37858L8.54144 11.1857L9.30859 8.9143L10.4529 8.37858Z" fill="white"/>
<path d="M6.74572 12.5443C6.46855 12.7036 6.26592 12.9664 6.18235 13.2749C6.09878 13.5835 6.1411 13.9126 6.30001 14.19C6.14073 13.9128 5.87794 13.7102 5.56938 13.6266C5.26081 13.5431 4.93169 13.5854 4.6543 13.7443C4.93147 13.585 5.1341 13.3222 5.21767 13.0137C5.30124 12.7051 5.25892 12.376 5.10001 12.0986C5.17814 12.2366 5.28287 12.3577 5.40814 12.4549C5.53341 12.5522 5.67673 12.6236 5.8298 12.6651C5.98287 12.7065 6.14264 12.7172 6.29987 12.6965C6.45709 12.6757 6.60863 12.624 6.74572 12.5443Z" fill="white"/>
<path d="M6.73286 14.1686C6.30858 14.4129 6.16286 14.9529 6.40715 15.3772C6.34927 15.2763 6.27207 15.1879 6.17997 15.1169C6.08787 15.046 5.98268 14.9939 5.87042 14.9636C5.75816 14.9334 5.64104 14.9255 5.52575 14.9406C5.41047 14.9557 5.29929 14.9933 5.19858 15.0514C5.62286 14.8072 5.76858 14.2672 5.52429 13.8429C5.58205 13.9438 5.65918 14.0324 5.75127 14.1034C5.84336 14.1745 5.94857 14.2267 6.06088 14.2569C6.17319 14.2872 6.29037 14.295 6.40569 14.2798C6.52101 14.2646 6.6322 14.2268 6.73286 14.1686ZM7.38858 12.4714C7.3919 12.5878 7.41819 12.7023 7.46592 12.8084C7.51366 12.9145 7.58191 13.0102 7.66675 13.0898C7.75159 13.1695 7.85134 13.2316 7.96026 13.2726C8.06918 13.3135 8.18513 13.3326 8.30144 13.3286C8.18511 13.3319 8.07059 13.3582 7.96446 13.4059C7.85833 13.4537 7.76268 13.5219 7.68302 13.6068C7.60336 13.6916 7.54126 13.7913 7.50029 13.9003C7.45932 14.0092 7.44029 14.1251 7.44429 14.2414C7.44097 14.1251 7.41469 14.0106 7.36695 13.9045C7.31921 13.7983 7.25096 13.7027 7.16612 13.623C7.08128 13.5434 6.98153 13.4813 6.87261 13.4403C6.76369 13.3993 6.64774 13.3803 6.53144 13.3843C6.64776 13.381 6.76228 13.3547 6.86841 13.3069C6.97454 13.2592 7.07019 13.191 7.14985 13.1061C7.22951 13.0213 7.29161 12.9215 7.33258 12.8126C7.37355 12.7037 7.39258 12.5877 7.38858 12.4714Z" fill="white"/>
<path d="M17.3486 7.67572C17.0714 7.83501 16.8688 8.09779 16.7852 8.40636C16.7016 8.71493 16.7439 9.04405 16.9029 9.32144C16.7436 9.04426 16.4808 8.84164 16.1722 8.75807C15.8637 8.6745 15.5345 8.71681 15.2571 8.87572C15.5343 8.71644 15.7369 8.45366 15.8205 8.14509C15.9041 7.83652 15.8618 7.5074 15.7029 7.23001C15.7809 7.3681 15.8856 7.48931 16.0109 7.58662C16.1361 7.68392 16.2795 7.75538 16.4326 7.79684C16.5857 7.83831 16.7455 7.84895 16.9027 7.82816C17.06 7.80737 17.2115 7.75556 17.3486 7.67572Z" fill="white"/>
<path d="M17.3314 9.30002C16.9071 9.5443 16.7614 10.0843 17.0057 10.5086C16.9478 10.4078 16.8706 10.3193 16.7785 10.2484C16.6864 10.1774 16.5813 10.1253 16.469 10.0951C16.3567 10.0648 16.2396 10.057 16.1243 10.0721C16.009 10.0871 15.8979 10.1248 15.7971 10.1829C16.2214 9.93859 16.3671 9.39859 16.1229 8.9743C16.3671 9.39859 16.9071 9.5443 17.3314 9.30002ZM17.9872 7.60287C17.9905 7.7192 18.0168 7.83372 18.0645 7.93985C18.1122 8.04598 18.1805 8.14163 18.2653 8.22129C18.3502 8.30095 18.4499 8.36305 18.5588 8.40402C18.6678 8.44499 18.7837 8.46402 18.9 8.46002C18.7837 8.46334 18.6692 8.48963 18.563 8.53736C18.4569 8.5851 18.3613 8.65335 18.2816 8.73819C18.2019 8.82303 18.1398 8.92278 18.0989 9.0317C18.0579 9.14062 18.0389 9.25657 18.0429 9.37288C18.0395 9.25655 18.0133 9.14203 17.9655 9.0359C17.9178 8.92977 17.8495 8.83412 17.7647 8.75446C17.6799 8.6748 17.5801 8.6127 17.4712 8.57173C17.3623 8.53076 17.2463 8.51173 17.13 8.51573C17.2463 8.51241 17.3609 8.48613 17.467 8.43839C17.5731 8.39065 17.6688 8.3224 17.7484 8.23756C17.8281 8.15272 17.8902 8.05297 17.9311 7.94405C17.9721 7.83513 17.9912 7.71918 17.9872 7.60287Z" fill="white"/>
<path d="M18.1714 4.63286C18.1714 4.63286 18.1414 5.11715 18.0343 5.22429C17.9272 5.33143 17.4429 5.36143 17.4429 5.36143C17.4429 5.36143 17.9272 5.39143 18.0343 5.49858C18.1414 5.60572 18.1714 6.09001 18.1714 6.09001C18.1714 6.09001 18.2014 5.60572 18.3086 5.49858C18.4157 5.39143 18.9 5.36143 18.9 5.36143C18.9 5.36143 18.4157 5.33143 18.3086 5.22429C18.2014 5.11715 18.1714 4.63286 18.1714 4.63286ZM17.0014 2.97858C17.0014 2.97858 16.1614 3.71572 15.81 3.71572C15.4586 3.71572 14.6186 2.97858 14.6186 2.97858C14.6186 2.97858 15.3557 3.81858 15.3557 4.17001C15.3557 4.52143 14.6186 5.36143 14.6186 5.36143C14.6186 5.36143 15.4586 4.62429 15.81 4.62429C16.1614 4.62429 17.0014 5.36143 17.0014 5.36143C17.0014 5.36143 16.2643 4.52143 16.2643 4.17001C16.2643 3.81858 17.0014 2.97858 17.0014 2.97858ZM12.2186 5.19429C12.2186 5.19429 12.8957 5.23715 13.0457 5.38715C13.1957 5.53715 13.2386 6.21429 13.2386 6.21429C13.2386 6.21429 13.2814 5.53715 13.4314 5.38715C13.5814 5.23715 14.2586 5.19429 14.2586 5.19429C14.2586 5.19429 13.5814 5.15143 13.4314 5.00143C13.2857 4.84715 13.2429 4.17001 13.2429 4.17001C13.2429 4.17001 13.2 4.84715 13.05 4.99715C12.8957 5.15143 12.2186 5.19429 12.2186 5.19429ZM3.8143 11.19C3.8143 11.19 4.2943 10.77 4.49573 10.77C4.69716 10.77 5.17716 11.19 5.17716 11.19C5.17716 11.19 4.75716 10.71 4.75716 10.5086C4.75716 10.3071 5.17716 9.82715 5.17716 9.82715C5.17716 9.82715 4.69716 10.2471 4.49573 10.2471C4.2943 10.2471 3.8143 9.82715 3.8143 9.82715C3.8143 9.82715 4.2343 10.3071 4.2343 10.5086C4.23859 10.71 3.8143 11.19 3.8143 11.19ZM4.49573 8.97001C4.49573 8.97001 5.46859 9.03429 5.68287 9.24858C5.89716 9.46286 5.96144 10.4357 5.96144 10.4357C5.96144 10.4357 6.02573 9.46286 6.24002 9.24858C6.4543 9.03429 7.42716 8.97001 7.42716 8.97001C7.42716 8.97001 6.4543 8.90572 6.24002 8.69143C6.02573 8.47715 5.96144 7.50429 5.96144 7.50429C5.96144 7.50429 5.89716 8.47715 5.68287 8.69143C5.46859 8.90572 4.49573 8.97001 4.49573 8.97001Z" fill="#FDED04"/>
</svg>
