<svg width="60" height="60" viewBox="0 0 60 60" fill="none" xmlns="http://www.w3.org/2000/svg">
<g filter="url(#filter0_b_25_549)">
<rect width="60" height="60" rx="30" fill="#FEF468" fill-opacity="0.2"/>
</g>
<path d="M20.2572 34.3357L21.1072 40.9143L12.8572 36.9857L14.7929 31.6572L20.2572 34.3357Z" fill="#FFCC00"/>
<path opacity="0.4" d="M17.1429 39.0214L15.4286 38.2072L13.7858 34.4286L14.4001 32.7286L17.1429 39.0214ZM20.5072 40.6286L18.7858 39.8072L15.3572 31.9357L17.0858 32.7786L20.5072 40.6286Z" fill="white"/>
<path d="M38.4643 32.4143L21.1072 40.9214L20.2572 34.3357L36.1858 26.8214L38.4643 32.4143Z" fill="#FFBC00"/>
<path d="M36.1857 26.8214L20.2571 34.3357L14.7928 31.6571L29.9857 24.5071L36.1857 26.8214Z" fill="#FDED04"/>
<path opacity="0.4" d="M33.4429 25.7929L26.9429 31.1786L31.1786 24.95L33.4429 25.7929ZM28.3072 25.2857L23.0572 33.0072L20.3786 34.2714L25.6357 26.5429L28.3072 25.2857ZM21.2929 28.5929L18.1072 33.2786L19.3857 29.4857L21.2929 28.5929Z" fill="white"/>
<path d="M28.9358 38.45L29.7858 45.0357L21.5358 41.1L23.4715 35.7714L28.9358 38.45Z" fill="#FFCC00"/>
<path opacity="0.4" d="M25.8215 43.1357L24.1072 42.3214L22.4644 38.5429L23.0786 36.8429L25.8215 43.1357ZM29.1858 44.7429L27.4644 43.9286L24.0358 36.05L25.7644 36.9L29.1858 44.7429Z" fill="white"/>
<path d="M47.1429 36.5357L29.7858 45.0357L28.9358 38.45L44.8644 30.9357L47.1429 36.5357Z" fill="#FFBC00"/>
<path d="M44.8643 30.9357L28.9357 38.45L23.4714 35.7714L38.6643 28.6214L44.8643 30.9357Z" fill="#FDED04"/>
<path opacity="0.4" d="M42.1215 29.9143L35.6215 35.2929L39.8572 29.0643L42.1215 29.9143ZM36.9858 29.4072L31.7358 37.1214L29.0572 38.3857L34.3143 30.6643L36.9858 29.4072ZM29.9715 32.7143L26.7858 37.3929L28.0643 33.6072L29.9715 32.7143Z" fill="white"/>
<path d="M26.3857 29.7L27.2357 36.2857L18.9857 32.35L20.9214 27.0214L26.3857 29.7Z" fill="#FFCC00"/>
<path opacity="0.4" d="M23.2714 34.3857L21.5643 33.5714L19.9143 29.7929L20.5357 28.0929L23.2714 34.3857ZM26.6357 35.9929L24.9143 35.1786L21.4857 27.3L23.2214 28.1429L26.6357 35.9929Z" fill="white"/>
<path d="M44.5929 27.7857L27.2429 36.2857L26.3857 29.7L42.3143 22.1857L44.5929 27.7857Z" fill="#FFBC00"/>
<path d="M42.3143 22.1857L26.3857 29.7L20.9286 27.0214L36.1143 19.8714L42.3143 22.1857Z" fill="#FDED04"/>
<path opacity="0.4" d="M39.5714 21.1643L33.0714 26.5429L37.3143 20.3143L39.5714 21.1643ZM34.4357 20.6572L29.1857 28.3714L26.5071 29.6357L31.7643 21.9143L34.4357 20.6572ZM27.4214 23.9643L24.2357 28.6429L25.5143 24.8572L27.4214 23.9643Z" fill="white"/>
<path d="M21.2429 30.9072C20.781 31.1726 20.4432 31.6106 20.304 32.1249C20.1647 32.6392 20.2352 33.1877 20.5001 33.65C20.2346 33.1881 19.7966 32.8504 19.2823 32.7111C18.7681 32.5718 18.2195 32.6423 17.7572 32.9072C18.2192 32.6417 18.5569 32.2037 18.6962 31.6894C18.8354 31.1752 18.7649 30.6266 18.5001 30.1643C18.6303 30.3943 18.8048 30.5962 19.0136 30.7583C19.2224 30.9203 19.4613 31.0394 19.7164 31.1084C19.9715 31.1775 20.2378 31.1953 20.4998 31.1608C20.7619 31.1262 21.0144 31.04 21.2429 30.9072Z" fill="white"/>
<path d="M21.2214 33.6143C20.5143 34.0215 20.2714 34.9215 20.6786 35.6286C20.5821 35.4605 20.4535 35.3132 20.3 35.1949C20.1465 35.0766 19.9711 34.9898 19.784 34.9394C19.5969 34.8889 19.4017 34.8759 19.2096 34.901C19.0175 34.9261 18.8322 34.9889 18.6643 35.0857C19.3714 34.6786 19.6143 33.7786 19.2072 33.0715C19.3034 33.2397 19.432 33.3873 19.5855 33.5057C19.7389 33.6242 19.9143 33.7111 20.1015 33.7615C20.2887 33.812 20.484 33.8249 20.6762 33.7997C20.8684 33.7744 21.0537 33.7114 21.2214 33.6143ZM22.3143 30.7857C22.3198 30.9796 22.3637 31.1705 22.4432 31.3474C22.5228 31.5243 22.6365 31.6837 22.7779 31.8164C22.9193 31.9492 23.0856 32.0527 23.2671 32.121C23.4486 32.1893 23.6419 32.221 23.8357 32.2143C23.6419 32.2198 23.451 32.2637 23.2741 32.3432C23.0972 32.4228 22.9378 32.5365 22.805 32.6779C22.6723 32.8193 22.5688 32.9856 22.5005 33.1671C22.4322 33.3486 22.4005 33.5419 22.4072 33.7357C22.4016 33.5419 22.3578 33.351 22.2783 33.1741C22.1987 32.9972 22.0849 32.8378 21.9435 32.705C21.8021 32.5723 21.6359 32.4688 21.4544 32.4005C21.2728 32.3322 21.0796 32.3005 20.8857 32.3072C21.0796 32.3016 21.2705 32.2578 21.4474 32.1783C21.6243 32.0987 21.7837 31.9849 21.9164 31.8435C22.0492 31.7021 22.1527 31.5359 22.221 31.3544C22.2893 31.1728 22.321 30.9796 22.3143 30.7857Z" fill="white"/>
<path d="M38.9143 22.7929C38.4523 23.0583 38.1146 23.4963 37.9753 24.0106C37.8361 24.5249 37.9066 25.0734 38.1714 25.5357C37.906 25.0738 37.468 24.7361 36.9537 24.5968C36.4394 24.4575 35.8909 24.528 35.4286 24.7929C35.8906 24.5274 36.2283 24.0894 36.3675 23.5752C36.5068 23.0609 36.4363 22.5123 36.1714 22.05C36.3015 22.2802 36.476 22.4822 36.6848 22.6444C36.8935 22.8065 37.1324 22.9256 37.3876 22.9947C37.6428 23.0638 37.9091 23.0816 38.1712 23.0469C38.4333 23.0123 38.6859 22.9259 38.9143 22.7929Z" fill="white"/>
<path d="M38.8858 25.5C38.1786 25.9072 37.9358 26.8072 38.3429 27.5143C38.2464 27.3463 38.1178 27.1989 37.9643 27.0806C37.8108 26.9623 37.6355 26.8755 37.4484 26.8251C37.2613 26.7747 37.066 26.7616 36.8739 26.7867C36.6818 26.8119 36.4965 26.8746 36.3286 26.9715C37.0358 26.5643 37.2786 25.6643 36.8715 24.9572C37.2786 25.6643 38.1786 25.9072 38.8858 25.5ZM39.9786 22.6714C39.9841 22.8653 40.028 23.0562 40.1075 23.2331C40.1871 23.41 40.3008 23.5694 40.4422 23.7021C40.5836 23.8349 40.7499 23.9384 40.9314 24.0067C41.113 24.075 41.3062 24.1067 41.5 24.1C41.3062 24.1056 41.1153 24.1494 40.9384 24.2289C40.7615 24.3085 40.6021 24.4222 40.4694 24.5636C40.3366 24.705 40.2331 24.8713 40.1648 25.0528C40.0965 25.2344 40.0648 25.4276 40.0715 25.6215C40.0659 25.4276 40.0221 25.2367 39.9426 25.0598C39.863 24.8829 39.7492 24.7235 39.6078 24.5908C39.4665 24.458 39.3002 24.3545 39.1187 24.2862C38.9371 24.2179 38.7439 24.1862 38.55 24.1929C38.7439 24.1873 38.9348 24.1435 39.1117 24.064C39.2886 23.9844 39.448 23.8707 39.5807 23.7293C39.7135 23.5879 39.817 23.4216 39.8853 23.2401C39.9536 23.0585 39.9853 22.8653 39.9786 22.6714Z" fill="white"/>
<path d="M40.2857 17.7214C40.2857 17.7214 40.2358 18.5286 40.0572 18.7072C39.8786 18.8857 39.0715 18.9357 39.0715 18.9357C39.0715 18.9357 39.8786 18.9857 40.0572 19.1643C40.2358 19.3429 40.2857 20.15 40.2857 20.15C40.2857 20.15 40.3357 19.3429 40.5143 19.1643C40.6929 18.9857 41.5 18.9357 41.5 18.9357C41.5 18.9357 40.6929 18.8857 40.5143 18.7072C40.3357 18.5286 40.2857 17.7214 40.2857 17.7214ZM38.3357 14.9643C38.3357 14.9643 36.9357 16.1929 36.35 16.1929C35.7643 16.1929 34.3643 14.9643 34.3643 14.9643C34.3643 14.9643 35.5929 16.3643 35.5929 16.95C35.5929 17.5357 34.3643 18.9357 34.3643 18.9357C34.3643 18.9357 35.7643 17.7072 36.35 17.7072C36.9357 17.7072 38.3357 18.9357 38.3357 18.9357C38.3357 18.9357 37.1072 17.5357 37.1072 16.95C37.1072 16.3643 38.3357 14.9643 38.3357 14.9643ZM30.3643 18.6572C30.3643 18.6572 31.4929 18.7286 31.7429 18.9786C31.9929 19.2286 32.0643 20.3572 32.0643 20.3572C32.0643 20.3572 32.1357 19.2286 32.3857 18.9786C32.6357 18.7286 33.7643 18.6572 33.7643 18.6572C33.7643 18.6572 32.6357 18.5857 32.3857 18.3357C32.1429 18.0786 32.0715 16.95 32.0715 16.95C32.0715 16.95 32 18.0786 31.75 18.3286C31.4929 18.5857 30.3643 18.6572 30.3643 18.6572ZM16.3572 28.65C16.3572 28.65 17.1572 27.95 17.4929 27.95C17.8286 27.95 18.6286 28.65 18.6286 28.65C18.6286 28.65 17.9286 27.85 17.9286 27.5143C17.9286 27.1786 18.6286 26.3786 18.6286 26.3786C18.6286 26.3786 17.8286 27.0786 17.4929 27.0786C17.1572 27.0786 16.3572 26.3786 16.3572 26.3786C16.3572 26.3786 17.0572 27.1786 17.0572 27.5143C17.0643 27.85 16.3572 28.65 16.3572 28.65ZM17.4929 24.95C17.4929 24.95 19.1143 25.0572 19.4715 25.4143C19.8286 25.7714 19.9357 27.3929 19.9357 27.3929C19.9357 27.3929 20.0429 25.7714 20.4 25.4143C20.7572 25.0572 22.3786 24.95 22.3786 24.95C22.3786 24.95 20.7572 24.8429 20.4 24.4857C20.0429 24.1286 19.9357 22.5072 19.9357 22.5072C19.9357 22.5072 19.8286 24.1286 19.4715 24.4857C19.1143 24.8429 17.4929 24.95 17.4929 24.95Z" fill="#FDED04"/>
<defs>
<filter id="filter0_b_25_549" x="-24" y="-24" width="108" height="108" filterUnits="userSpaceOnUse" color-interpolation-filters="sRGB">
<feFlood flood-opacity="0" result="BackgroundImageFix"/>
<feGaussianBlur in="BackgroundImageFix" stdDeviation="12"/>
<feComposite in2="SourceAlpha" operator="in" result="effect1_backgroundBlur_25_549"/>
<feBlend mode="normal" in="SourceGraphic" in2="effect1_backgroundBlur_25_549" result="shape"/>
</filter>
</defs>
</svg>
