<svg width="100" height="102" viewBox="0 0 100 102" fill="none" xmlns="http://www.w3.org/2000/svg">
<g filter="url(#filter0_biii_151_2034)">
<circle cx="50" cy="50" r="50" fill="url(#paint0_linear_151_2034)"/>
<circle cx="50" cy="50" r="50" fill="url(#paint1_radial_151_2034)" fill-opacity="0.5"/>
<circle cx="50" cy="50" r="50" fill="url(#paint2_radial_151_2034)" fill-opacity="0.5"/>
<circle cx="50" cy="50" r="49.8339" stroke="url(#paint3_linear_151_2034)" stroke-opacity="0.3" stroke-width="0.332226"/>
</g>
<g filter="url(#filter1_f_151_2034)">
<ellipse cx="74.3423" cy="21.8695" rx="6.31229" ry="2.99003" transform="rotate(45.2321 74.3423 21.8695)" fill="white"/>
</g>
<g filter="url(#filter2_f_151_2034)">
<ellipse cx="27.8126" cy="74.9637" rx="8.77299" ry="4.15563" transform="rotate(35.9982 27.8126 74.9637)" fill="#FDA8FF"/>
</g>
<g filter="url(#filter3_f_151_2034)">
<ellipse cx="23.5171" cy="78.0107" rx="2.80546" ry="1.3289" transform="rotate(45.2321 23.5171 78.0107)" fill="white"/>
</g>
<circle cx="49.9999" cy="50" r="48.5608" stroke="white" stroke-opacity="0.12" stroke-width="0.884956" style="mix-blend-mode:soft-light"/>
<path fill-rule="evenodd" clip-rule="evenodd" d="M38.7426 76.0206H21.875V72.2729L40.6293 52.2449H57.497V55.9925L38.7426 76.0206Z" fill="#65788E"/>
<path fill-rule="evenodd" clip-rule="evenodd" d="M28.435 72.2729V65.4698H28.2455L21.875 72.2729H28.435Z" fill="#7789A4"/>
<path fill-rule="evenodd" clip-rule="evenodd" d="M38.7427 76.0206V72.2729L57.497 52.2449V55.9925L38.7427 76.0206Z" fill="#8192A5"/>
<path fill-rule="evenodd" clip-rule="evenodd" d="M50.937 52.2449L32.1826 72.2729H38.7427L57.497 52.2449H50.937Z" fill="#B2BECB"/>
<path fill-rule="evenodd" clip-rule="evenodd" d="M38.7426 65.4698H21.875V61.7223L40.6293 41.6942L57.497 41.6156V45.4418L38.7426 65.4698Z" fill="#B2BECB"/>
<path fill-rule="evenodd" clip-rule="evenodd" d="M57.497 41.6156V45.4418L38.7427 65.4698V61.7223L57.497 41.6156Z" fill="#8192A5"/>
<path fill-rule="evenodd" clip-rule="evenodd" d="M28.4351 65.0352H32.1826V74.1467H28.4351V65.0352Z" fill="#8D9CA8"/>
<path fill-rule="evenodd" clip-rule="evenodd" d="M21.875 72.2729H38.7426V76.0205H21.875V72.2729ZM21.875 61.7223H38.7426V65.4698H21.875V61.7223Z" fill="#8D9CA8"/>
<path fill-rule="evenodd" clip-rule="evenodd" d="M59.3704 76.0206H42.5029V72.2729L61.2573 52.2449H78.1249V55.9925L59.3704 76.0206Z" fill="#65788E"/>
<path fill-rule="evenodd" clip-rule="evenodd" d="M49.063 72.2729V65.4698H48.8734L42.5029 72.2729H49.063Z" fill="#7789A4"/>
<path fill-rule="evenodd" clip-rule="evenodd" d="M59.3706 76.0206V72.2729L78.1251 52.2449V55.9925C71.8736 62.6685 65.6221 69.3445 59.3706 76.0206Z" fill="#8192A5"/>
<path fill-rule="evenodd" clip-rule="evenodd" d="M71.5649 52.2449L52.8105 72.2729H59.3706L78.1249 52.2449H71.5649Z" fill="#B2BECB"/>
<path fill-rule="evenodd" clip-rule="evenodd" d="M59.3704 65.4698H42.5029V61.7223L61.2573 41.6942L78.1249 41.6156V45.4418L59.3704 65.4698Z" fill="#B2BECB"/>
<path fill-rule="evenodd" clip-rule="evenodd" d="M78.1251 41.6156V45.4418L59.3706 65.4698V61.7223L78.1251 41.6156Z" fill="#8192A5"/>
<path fill-rule="evenodd" clip-rule="evenodd" d="M49.0627 65.0352H52.8103V74.1467H49.0627V65.0352Z" fill="#8D9CA8"/>
<path fill-rule="evenodd" clip-rule="evenodd" d="M42.5029 72.2729H59.3705V76.0205H42.5029V72.2729ZM42.5029 61.7223H59.3705V65.4698H42.5029V61.7223Z" fill="#8D9CA8"/>
<path fill-rule="evenodd" clip-rule="evenodd" d="M50.8557 58.3845H33.988V54.6368L52.7424 34.6088H69.61V38.3564L50.8557 58.3845Z" fill="#65788E"/>
<path fill-rule="evenodd" clip-rule="evenodd" d="M40.548 54.6369V47.8339H40.3585L33.988 54.6369H40.548Z" fill="#7789A4"/>
<path fill-rule="evenodd" clip-rule="evenodd" d="M50.8555 58.3845V54.6368L69.6098 34.6088V38.3564L50.8555 58.3845Z" fill="#8192A5"/>
<path fill-rule="evenodd" clip-rule="evenodd" d="M63.05 34.6088L44.2957 54.6368H50.8557L69.61 34.6088H63.05Z" fill="#B2BECB"/>
<path fill-rule="evenodd" clip-rule="evenodd" d="M50.8557 47.8337H33.988V44.0862L52.7424 24.0582L69.61 23.9795V27.8057L50.8557 47.8337Z" fill="#B2BECB"/>
<path fill-rule="evenodd" clip-rule="evenodd" d="M69.6098 23.9795V27.8057L50.8555 47.8337V44.0862L69.6098 23.9795Z" fill="#8192A5"/>
<path fill-rule="evenodd" clip-rule="evenodd" d="M40.5481 47.399H44.2956V56.5106H40.5481V47.399Z" fill="#8D9CA8"/>
<path fill-rule="evenodd" clip-rule="evenodd" d="M33.988 54.6369H50.8557V58.3845H33.988V54.6369ZM33.988 44.0862H50.8557V47.8337H33.988V44.0862Z" fill="#8D9CA8"/>
<mask id="mask0_151_2034" style="mask-type:alpha" maskUnits="userSpaceOnUse" x="0" y="0" width="100" height="100">
<circle cx="50" cy="50" r="50" fill="#C4C4C4"/>
</mask>
<g mask="url(#mask0_151_2034)">
<g filter="url(#filter4_f_151_2034)">
<ellipse cx="19.3719" cy="87.5857" rx="33.9277" ry="16.0939" transform="rotate(35.388 19.3719 87.5857)" fill="#FEC6FF"/>
</g>
<g filter="url(#filter5_f_151_2034)">
<ellipse cx="46.9562" cy="7.6127" rx="18.203" ry="8.63474" transform="rotate(-6.37561 46.9562 7.6127)" fill="white"/>
</g>
<g filter="url(#filter6_f_151_2034)">
<circle cx="56.5059" cy="39.8946" r="8.30565" transform="rotate(29.5819 56.5059 39.8946)" fill="#3C98CC"/>
</g>
<g filter="url(#filter7_f_151_2034)">
<circle cx="74.446" cy="86.4062" r="8.30565" transform="rotate(29.5819 74.446 86.4062)" fill="#3C98CC"/>
</g>
<g filter="url(#filter8_f_151_2034)">
<ellipse cx="2.76699" cy="20.6573" rx="8.30565" ry="17.8926" transform="rotate(29.5819 2.76699 20.6573)" fill="#3C98CC"/>
</g>
</g>
<defs>
<filter id="filter0_biii_151_2034" x="-4.98339" y="-4.98339" width="109.967" height="109.967" filterUnits="userSpaceOnUse" color-interpolation-filters="sRGB">
<feFlood flood-opacity="0" result="BackgroundImageFix"/>
<feGaussianBlur in="BackgroundImageFix" stdDeviation="2.49169"/>
<feComposite in2="SourceAlpha" operator="in" result="effect1_backgroundBlur_151_2034"/>
<feBlend mode="normal" in="SourceGraphic" in2="effect1_backgroundBlur_151_2034" result="shape"/>
<feColorMatrix in="SourceAlpha" type="matrix" values="0 0 0 0 0 0 0 0 0 0 0 0 0 0 0 0 0 0 127 0" result="hardAlpha"/>
<feOffset dx="4.31894" dy="2.32558"/>
<feGaussianBlur stdDeviation="3.8206"/>
<feComposite in2="hardAlpha" operator="arithmetic" k2="-1" k3="1"/>
<feColorMatrix type="matrix" values="0 0 0 0 1 0 0 0 0 1 0 0 0 0 1 0 0 0 0.25 0"/>
<feBlend mode="normal" in2="shape" result="effect2_innerShadow_151_2034"/>
<feColorMatrix in="SourceAlpha" type="matrix" values="0 0 0 0 0 0 0 0 0 0 0 0 0 0 0 0 0 0 127 0" result="hardAlpha"/>
<feOffset dx="-4.31894" dy="-0.996678"/>
<feGaussianBlur stdDeviation="9.63455"/>
<feComposite in2="hardAlpha" operator="arithmetic" k2="-1" k3="1"/>
<feColorMatrix type="matrix" values="0 0 0 0 0 0 0 0 0 0.835294 0 0 0 0 0.960784 0 0 0 0.21 0"/>
<feBlend mode="normal" in2="effect2_innerShadow_151_2034" result="effect3_innerShadow_151_2034"/>
<feColorMatrix in="SourceAlpha" type="matrix" values="0 0 0 0 0 0 0 0 0 0 0 0 0 0 0 0 0 0 127 0" result="hardAlpha"/>
<feOffset dx="2.32558" dy="-2.99003"/>
<feComposite in2="hardAlpha" operator="arithmetic" k2="-1" k3="1"/>
<feColorMatrix type="matrix" values="0 0 0 0 0.992157 0 0 0 0 0.658824 0 0 0 0 1 0 0 0 0.27 0"/>
<feBlend mode="soft-light" in2="effect3_innerShadow_151_2034" result="effect4_innerShadow_151_2034"/>
</filter>
<filter id="filter1_f_151_2034" x="66.425" y="13.9268" width="15.8346" height="15.8855" filterUnits="userSpaceOnUse" color-interpolation-filters="sRGB">
<feFlood flood-opacity="0" result="BackgroundImageFix"/>
<feBlend mode="normal" in="SourceGraphic" in2="BackgroundImageFix" result="shape"/>
<feGaussianBlur stdDeviation="1.49502" result="effect1_foregroundBlur_151_2034"/>
</filter>
<filter id="filter2_f_151_2034" x="0.0386639" y="48.5415" width="55.5479" height="52.8443" filterUnits="userSpaceOnUse" color-interpolation-filters="sRGB">
<feFlood flood-opacity="0" result="BackgroundImageFix"/>
<feBlend mode="normal" in="SourceGraphic" in2="BackgroundImageFix" result="shape"/>
<feGaussianBlur stdDeviation="10.1329" result="effect1_foregroundBlur_151_2034"/>
</filter>
<filter id="filter3_f_151_2034" x="19.0016" y="73.4839" width="9.03105" height="9.05363" filterUnits="userSpaceOnUse" color-interpolation-filters="sRGB">
<feFlood flood-opacity="0" result="BackgroundImageFix"/>
<feBlend mode="normal" in="SourceGraphic" in2="BackgroundImageFix" result="shape"/>
<feGaussianBlur stdDeviation="1.16279" result="effect1_foregroundBlur_151_2034"/>
</filter>
<filter id="filter4_f_151_2034" x="-60.9865" y="12.7944" width="160.717" height="149.583" filterUnits="userSpaceOnUse" color-interpolation-filters="sRGB">
<feFlood flood-opacity="0" result="BackgroundImageFix"/>
<feBlend mode="normal" in="SourceGraphic" in2="BackgroundImageFix" result="shape"/>
<feGaussianBlur stdDeviation="25.5814" result="effect1_foregroundBlur_151_2034"/>
</filter>
<filter id="filter5_f_151_2034" x="5.58427" y="-24.4613" width="82.744" height="64.148" filterUnits="userSpaceOnUse" color-interpolation-filters="sRGB">
<feFlood flood-opacity="0" result="BackgroundImageFix"/>
<feBlend mode="normal" in="SourceGraphic" in2="BackgroundImageFix" result="shape"/>
<feGaussianBlur stdDeviation="11.6279" result="effect1_foregroundBlur_151_2034"/>
</filter>
<filter id="filter6_f_151_2034" x="23.2818" y="6.67058" width="66.4481" height="66.4481" filterUnits="userSpaceOnUse" color-interpolation-filters="sRGB">
<feFlood flood-opacity="0" result="BackgroundImageFix"/>
<feBlend mode="normal" in="SourceGraphic" in2="BackgroundImageFix" result="shape"/>
<feGaussianBlur stdDeviation="12.4585" result="effect1_foregroundBlur_151_2034"/>
</filter>
<filter id="filter7_f_151_2034" x="41.222" y="53.1822" width="66.4481" height="66.4481" filterUnits="userSpaceOnUse" color-interpolation-filters="sRGB">
<feFlood flood-opacity="0" result="BackgroundImageFix"/>
<feBlend mode="normal" in="SourceGraphic" in2="BackgroundImageFix" result="shape"/>
<feGaussianBlur stdDeviation="12.4585" result="effect1_foregroundBlur_151_2034"/>
</filter>
<filter id="filter8_f_151_2034" x="-33.5605" y="-20.3552" width="72.6549" height="82.0248" filterUnits="userSpaceOnUse" color-interpolation-filters="sRGB">
<feFlood flood-opacity="0" result="BackgroundImageFix"/>
<feBlend mode="normal" in="SourceGraphic" in2="BackgroundImageFix" result="shape"/>
<feGaussianBlur stdDeviation="12.4585" result="effect1_foregroundBlur_151_2034"/>
</filter>
<linearGradient id="paint0_linear_151_2034" x1="65.7807" y1="2.99003" x2="35.7143" y2="100" gradientUnits="userSpaceOnUse">
<stop stop-color="white" stop-opacity="0.26"/>
<stop offset="1" stop-color="white" stop-opacity="0"/>
</linearGradient>
<radialGradient id="paint1_radial_151_2034" cx="0" cy="0" r="1" gradientUnits="userSpaceOnUse" gradientTransform="translate(69.4352 18.1063) rotate(119.781) scale(99.3308)">
<stop stop-color="white" stop-opacity="0"/>
<stop offset="0.62353" stop-color="#FDA8FF" stop-opacity="0"/>
<stop offset="1" stop-color="#FDA8FF"/>
</radialGradient>
<radialGradient id="paint2_radial_151_2034" cx="0" cy="0" r="1" gradientUnits="userSpaceOnUse" gradientTransform="translate(36.3787 108.472) rotate(-75.2603) scale(124.702)">
<stop stop-color="white" stop-opacity="0"/>
<stop offset="0.62353" stop-color="#00B2FF" stop-opacity="0"/>
<stop offset="1" stop-color="#00E0FF"/>
</radialGradient>
<linearGradient id="paint3_linear_151_2034" x1="75.9136" y1="7.8073" x2="16.2791" y2="92.8571" gradientUnits="userSpaceOnUse">
<stop stop-color="#0085FF"/>
<stop offset="1" stop-color="#32C2DB"/>
</linearGradient>
</defs>
</svg>
