<svg width="42" height="42" viewBox="0 0 42 42" fill="none" xmlns="http://www.w3.org/2000/svg">
<g filter="url(#filter0_b_25_906)">
<rect width="42" height="42" rx="21" fill="white" fill-opacity="0.2"/>
</g>
<path fill-rule="evenodd" clip-rule="evenodd" d="M16.497 31.4082H9.75V29.9092L17.2517 21.8979H23.9988V23.397L16.497 31.4082Z" fill="#65788E"/>
<path fill-rule="evenodd" clip-rule="evenodd" d="M12.374 29.9092V27.1879H12.2982L9.75 29.9092H12.374Z" fill="#7789A4"/>
<path fill-rule="evenodd" clip-rule="evenodd" d="M16.4971 31.4082V29.9092L23.9988 21.8979V23.397L16.4971 31.4082Z" fill="#8192A5"/>
<path fill-rule="evenodd" clip-rule="evenodd" d="M21.3748 21.8979L13.873 29.9092H16.4971L23.9988 21.8979H21.3748Z" fill="#B2BECB"/>
<path fill-rule="evenodd" clip-rule="evenodd" d="M16.497 27.1879H9.75V25.6889L17.2517 17.6777L23.9988 17.6462V19.1767L16.497 27.1879Z" fill="#B2BECB"/>
<path fill-rule="evenodd" clip-rule="evenodd" d="M23.9988 17.6462V19.1767L16.4971 27.1879V25.6889L23.9988 17.6462Z" fill="#8192A5"/>
<path fill-rule="evenodd" clip-rule="evenodd" d="M12.374 27.0141H13.873V30.6587H12.374V27.0141Z" fill="#8D9CA8"/>
<path fill-rule="evenodd" clip-rule="evenodd" d="M9.75 29.9092H16.497V31.4082H9.75V29.9092ZM9.75 25.6889H16.497V27.1879H9.75V25.6889Z" fill="#8D9CA8"/>
<path fill-rule="evenodd" clip-rule="evenodd" d="M24.7482 31.4082H18.0012V29.9092L25.503 21.8979H32.25V23.397L24.7482 31.4082Z" fill="#65788E"/>
<path fill-rule="evenodd" clip-rule="evenodd" d="M20.6252 29.9092V27.1879H20.5494L18.0012 29.9092H20.6252Z" fill="#7789A4"/>
<path fill-rule="evenodd" clip-rule="evenodd" d="M24.7482 31.4082V29.9092L32.2499 21.8979V23.397C29.7494 26.0674 27.2488 28.7378 24.7482 31.4082Z" fill="#8192A5"/>
<path fill-rule="evenodd" clip-rule="evenodd" d="M29.626 21.8979L22.1243 29.9092H24.7483L32.25 21.8979H29.626Z" fill="#B2BECB"/>
<path fill-rule="evenodd" clip-rule="evenodd" d="M24.7482 27.1879H18.0012V25.6889L25.503 17.6777L32.25 17.6462V19.1767L24.7482 27.1879Z" fill="#B2BECB"/>
<path fill-rule="evenodd" clip-rule="evenodd" d="M32.2499 17.6462V19.1767L24.7482 27.1879V25.6889L32.2499 17.6462Z" fill="#8192A5"/>
<path fill-rule="evenodd" clip-rule="evenodd" d="M20.6252 27.0141H22.1243V30.6587H20.6252V27.0141Z" fill="#8D9CA8"/>
<path fill-rule="evenodd" clip-rule="evenodd" d="M18.0012 29.9092H24.7483V31.4082H18.0012V29.9092ZM18.0012 25.6889H24.7483V27.1879H18.0012V25.6889Z" fill="#8D9CA8"/>
<path fill-rule="evenodd" clip-rule="evenodd" d="M21.3423 24.3538H14.5952V22.8547L22.0969 14.8435H28.844V16.3426L21.3423 24.3538Z" fill="#65788E"/>
<path fill-rule="evenodd" clip-rule="evenodd" d="M17.2192 22.8547V20.1335H17.1434L14.5952 22.8547H17.2192Z" fill="#7789A4"/>
<path fill-rule="evenodd" clip-rule="evenodd" d="M21.3423 24.3538V22.8547L28.844 14.8435V16.3426L21.3423 24.3538Z" fill="#8192A5"/>
<path fill-rule="evenodd" clip-rule="evenodd" d="M26.22 14.8435L18.7183 22.8547H21.3423L28.844 14.8435H26.22Z" fill="#B2BECB"/>
<path fill-rule="evenodd" clip-rule="evenodd" d="M21.3423 20.1335H14.5952V18.6345L22.0969 10.6233L28.844 10.5918V12.1223L21.3423 20.1335Z" fill="#B2BECB"/>
<path fill-rule="evenodd" clip-rule="evenodd" d="M28.844 10.5918V12.1223L21.3423 20.1335V18.6345L28.844 10.5918Z" fill="#8192A5"/>
<path fill-rule="evenodd" clip-rule="evenodd" d="M17.2192 19.9596H18.7183V23.6042H17.2192V19.9596Z" fill="#8D9CA8"/>
<path fill-rule="evenodd" clip-rule="evenodd" d="M14.5952 22.8548H21.3423V24.3538H14.5952V22.8548ZM14.5952 18.6345H21.3423V20.1335H14.5952V18.6345Z" fill="#8D9CA8"/>
<defs>
<filter id="filter0_b_25_906" x="-24" y="-24" width="90" height="90" filterUnits="userSpaceOnUse" color-interpolation-filters="sRGB">
<feFlood flood-opacity="0" result="BackgroundImageFix"/>
<feGaussianBlur in="BackgroundImageFix" stdDeviation="12"/>
<feComposite in2="SourceAlpha" operator="in" result="effect1_backgroundBlur_25_906"/>
<feBlend mode="normal" in="SourceGraphic" in2="effect1_backgroundBlur_25_906" result="shape"/>
</filter>
</defs>
</svg>
