<svg width="42" height="42" viewBox="0 0 42 42" fill="none" xmlns="http://www.w3.org/2000/svg">
<g filter="url(#filter0_b_25_928)">
<rect width="42" height="42" rx="21" fill="white" fill-opacity="0.2"/>
</g>
<g clip-path="url(#clip0_25_928)">
<path d="M27.3952 21.025C27.3952 18.8983 28.6067 17.0547 30.3772 16.1462C30.844 15.9067 31.0156 15.3263 30.7457 14.8763L29.4669 12.7438C29.3868 12.6102 29.2734 12.4996 29.1378 12.4228C29.0022 12.346 28.8491 12.3056 28.6932 12.3056H27.811C26.977 12.3056 26.1555 12.1042 25.4161 11.7185C24.6767 11.3329 24.0414 10.7743 23.5642 10.0905L23.0726 9.38592C22.9894 9.26678 22.8787 9.16947 22.7499 9.10228C22.6211 9.03509 22.4779 9 22.3327 9H19.3688C19.2242 9 19.0817 9.03476 18.9534 9.10135C18.825 9.16793 18.7145 9.26439 18.6312 9.38259L18.1192 10.1094C17.6412 10.788 17.0071 11.3417 16.2704 11.7239C15.5336 12.1061 14.7158 12.3056 13.8858 12.3056H13.326C13.1693 12.3056 13.0153 12.3464 12.8792 12.424C12.7431 12.5016 12.6295 12.6133 12.5497 12.7481L11.2802 14.8918C11.0148 15.34 11.1849 15.9158 11.6475 16.1553C13.408 17.0671 14.6112 18.9055 14.6112 21.025C14.6112 23.1536 13.3976 24.9985 11.6246 25.9061C11.1546 26.1467 10.9826 26.7316 11.2575 27.1825L12.4721 29.176C12.5526 29.3082 12.6658 29.4174 12.8007 29.4932C12.9357 29.569 13.0878 29.6088 13.2426 29.6088H13.8616C14.7033 29.6088 15.5323 29.8139 16.2769 30.2065C17.0214 30.5991 17.6591 31.1673 18.1346 31.8619L18.6449 32.6074C18.7278 32.7284 18.8389 32.8274 18.9686 32.8958C19.0983 32.9642 19.2427 32.9999 19.3894 32.9999H22.3258C22.4729 32.9999 22.6178 32.9639 22.7478 32.8951C22.8778 32.8263 22.989 32.7268 23.0718 32.6051L23.5685 31.8748C24.0434 31.1766 24.6818 30.6052 25.4281 30.2102C26.1745 29.8152 27.0061 29.6087 27.8505 29.6087H28.6418C28.7913 29.6087 28.9384 29.5716 29.07 29.5006C29.2016 29.4297 29.3135 29.3272 29.3956 29.2023L30.7132 27.199C31.0062 26.7535 30.8534 26.1479 30.3789 25.9046C28.6075 24.9965 27.3952 23.1525 27.3952 21.025Z" fill="#D48552"/>
<path d="M30.3772 16.1462C30.844 15.9067 31.0157 15.3263 30.7458 14.8763L29.467 12.7438C29.3869 12.6102 29.2735 12.4996 29.1379 12.4228C29.0023 12.346 28.8491 12.3056 28.6933 12.3056H27.811C26.9771 12.3056 26.1555 12.1042 25.4162 11.7185C24.6768 11.3329 24.0415 10.7744 23.5643 10.0905L23.0726 9.38592C22.9895 9.26678 22.8788 9.16947 22.7499 9.10228C22.6211 9.03509 22.478 9 22.3327 9H20.87V33H22.3258C22.4729 33 22.6178 32.964 22.7478 32.8952C22.8778 32.8264 22.989 32.7268 23.0718 32.6052L23.5685 31.8749C24.0434 31.1767 24.6818 30.6052 25.4281 30.2103C26.1745 29.8153 27.006 29.6088 27.8504 29.6088H28.6418C28.7913 29.6088 28.9384 29.5717 29.07 29.5007C29.2015 29.4298 29.3134 29.3273 29.3956 29.2024L30.7131 27.1991C31.0061 26.7536 30.8533 26.148 30.3788 25.9047C28.6075 24.9965 27.3952 23.1525 27.3952 21.025C27.3952 18.8983 28.6068 17.0547 30.3772 16.1462Z" fill="#A55B29"/>
</g>
<defs>
<filter id="filter0_b_25_928" x="-24" y="-24" width="90" height="90" filterUnits="userSpaceOnUse" color-interpolation-filters="sRGB">
<feFlood flood-opacity="0" result="BackgroundImageFix"/>
<feGaussianBlur in="BackgroundImageFix" stdDeviation="12"/>
<feComposite in2="SourceAlpha" operator="in" result="effect1_backgroundBlur_25_928"/>
<feBlend mode="normal" in="SourceGraphic" in2="effect1_backgroundBlur_25_928" result="shape"/>
</filter>
<clipPath id="clip0_25_928">
<rect width="24" height="24" fill="white" transform="translate(9 9)"/>
</clipPath>
</defs>
</svg>
