<svg width="42" height="42" viewBox="0 0 42 42" fill="none" xmlns="http://www.w3.org/2000/svg">
<g filter="url(#filter0_b_25_773)">
<rect width="42" height="42" rx="21" fill="white" fill-opacity="0.2"/>
</g>
<g clip-path="url(#clip0_25_773)">
<path d="M18.9081 11.7248C18.0192 10.9856 16.8767 10.541 15.6302 10.541C12.7971 10.541 10.5002 12.8378 10.5002 15.671C10.5002 17.347 11.3041 18.8353 12.5472 19.7714L22.2817 27.4778C23.1705 28.2171 24.3131 28.6617 25.5595 28.6617C28.3927 28.6617 30.6895 26.3648 30.6895 23.5317C30.6895 21.8555 29.8856 20.3674 28.6426 19.4313L18.9081 11.7248Z" fill="url(#paint0_linear_25_773)"/>
<path d="M25.5595 28.6617C26.8592 28.6617 28.0459 28.178 28.9499 27.3811C27.2711 26.1153 24.7645 24.4286 22.0248 23.2842C17.1225 21.2365 17.8672 18.3819 15.0128 16.7685C12.1583 15.1551 14.3301 16.2099 13.2752 14.4725C12.704 13.5318 11.9146 13.1004 11.3106 12.9026C10.7978 13.7013 10.5002 14.6514 10.5002 15.671C10.5002 17.347 11.3041 18.8353 12.5472 19.7714L22.2817 27.4778C23.1705 28.2171 24.3131 28.6617 25.5595 28.6617V28.6617Z" fill="url(#paint1_linear_25_773)"/>
<path d="M28.6426 19.4313L18.9081 11.7248C18.0192 10.9856 16.8768 10.541 15.6303 10.541C15.3097 10.541 14.9958 10.5706 14.6914 10.627C15.2249 11.5374 15.9749 12.5845 16.8301 13.106C18.5264 14.1403 19.602 15.5056 21.5464 16.9949C23.491 18.4842 25.4354 19.2702 25.4354 19.2702L30.5702 24.6351C30.6496 24.2727 30.6896 23.9027 30.6895 23.5317C30.6895 21.8555 29.8856 20.3674 28.6426 19.4313Z" fill="url(#paint2_linear_25_773)"/>
<path d="M23.7805 22.4974C23.7805 22.4974 21.3396 22.1664 19.4779 19.3118C17.6162 16.457 14.5961 14.2644 14.5961 14.2644C14.5961 14.2644 18.5264 15.4641 20.2226 17.6568C21.9188 19.8494 23.7805 22.4973 23.7805 22.4973V22.4974Z" fill="url(#paint3_linear_25_773)"/>
<path d="M28.6427 19.4313L23.1384 15.0737C23.0236 15.0695 22.9089 15.0626 22.7944 15.053C22.4027 15.0197 22.1236 15.4303 22.299 15.7823C22.3581 15.9009 22.4391 16.0073 22.5379 16.0956L26.6954 20.253C27.2304 20.8543 28.3107 20.6563 28.3107 20.6563C28.7337 20.5909 29.1458 20.4678 29.5354 20.2903C29.2734 19.9692 28.9737 19.6808 28.6427 19.4313Z" fill="url(#paint4_linear_25_773)"/>
<path d="M30.6895 23.5316C30.6895 26.3649 28.5079 28.6962 25.8167 28.6962C22.6497 28.6962 20.9438 26.7785 20.9438 23.9454C20.9438 21.1121 23.1254 18.4016 25.8167 18.4016C28.5079 18.4016 30.6895 20.6984 30.6895 23.5316Z" fill="url(#paint5_radial_25_773)"/>
<path d="M26.3525 28.6323C24.8208 28.4983 22.1936 27.0463 22.1936 25.0203C22.1936 21.6776 24.4389 20.5297 26.4459 20.5692C28.9373 20.618 31.6151 23.8267 29.6538 26.3772C28.646 27.6876 26.1992 27.9537 24.8378 26.6332C24.0087 25.8291 23.793 24.3834 24.3371 23.5197C25.6514 21.4332 28.3307 22.5808 28.1236 24.1066C28.0983 24.2939 28.0449 24.4429 27.971 24.56C27.7414 24.9248 27.206 24.6254 27.3526 24.2168C27.3729 24.1599 27.388 24.097 27.3968 24.0269C27.5186 23.0538 25.7315 22.7153 25.1629 23.5615C24.5942 24.4078 25.0005 25.762 26.097 26.0582C27.1937 26.3544 28.7731 25.9874 29.1073 25.0186C29.5612 23.703 28.9262 21.4976 26.4459 21.3802C24.4405 21.2852 22.8606 22.7673 22.8606 25.0205C22.8606 27.0463 24.8207 28.4983 26.3525 28.6323Z" fill="url(#paint6_linear_25_773)"/>
<path d="M26.078 28.6322C24.5666 28.4927 21.9739 26.9798 21.9739 24.8687C21.9739 21.3856 24.1897 20.1896 26.1703 20.2306C28.6288 20.2815 31.2714 23.6248 29.3359 26.2825C28.3414 27.6479 25.9268 27.9252 24.5833 26.5494C23.7651 25.7113 23.5524 24.205 24.0893 23.305C25.3864 21.1309 28.0302 22.3267 27.8258 23.9166C27.8007 24.1117 27.7481 24.2669 27.6754 24.389C27.4487 24.7691 26.9203 24.4571 27.0649 24.0314C27.085 23.9722 27.0999 23.9065 27.1085 23.8337C27.2287 22.8195 25.4652 22.4668 24.9041 23.3486C24.343 24.2304 24.7437 25.6415 25.826 25.9501C26.9081 26.2588 28.4667 25.8764 28.7966 24.8668C29.2444 23.496 28.6178 21.198 26.1701 21.0756C24.1913 20.9766 22.6322 22.5211 22.6322 24.8687C22.6322 26.9798 24.5665 28.4927 26.078 28.6322H26.078Z" fill="url(#paint7_linear_25_773)"/>
<path d="M26.5177 15.1062C26.5177 15.1062 29.8622 12.2327 31.4817 17.5899C31.5493 17.8135 31.4269 18.0501 31.2061 18.1266C30.1457 18.4953 27.2109 19.1219 26.5177 15.1062Z" fill="url(#paint8_linear_25_773)"/>
<path d="M31.2063 18.1266C31.2646 18.1064 31.3179 18.0741 31.3628 18.0318C31.4077 17.9895 31.4432 17.9382 31.4668 17.8812C29.2925 16.2856 26.5177 15.1062 26.5177 15.1062C27.2109 19.1219 30.1457 18.4953 31.2063 18.1266Z" fill="url(#paint9_linear_25_773)"/>
<path d="M29.7672 17.3707C29.7475 17.33 29.7308 17.2879 29.7137 17.2464C29.6964 17.2051 29.6792 17.1641 29.6643 17.1221C29.6486 17.0804 29.6389 17.0364 29.6284 16.9931C29.6184 16.9504 29.6016 16.9096 29.5788 16.8721C29.5552 16.8338 29.529 16.7972 29.5003 16.7625C29.5552 16.7891 29.6104 16.8156 29.6655 16.842L29.933 16.9746C30.0226 17.0185 30.1086 17.0674 30.1976 17.1126C30.3735 17.206 30.5446 17.3055 30.7095 17.417L30.7399 17.3821L30.6287 17.2785L30.5728 17.2264C30.5537 17.2095 30.5338 17.1942 30.5143 17.178C30.4353 17.1155 30.3576 17.0488 30.2756 16.9905C30.1141 16.8686 29.9473 16.7557 29.7807 16.6414C29.748 16.6203 29.7153 16.5992 29.6828 16.5779C29.715 16.5745 29.7467 16.5687 29.7778 16.5578C29.8197 16.5432 29.8622 16.5275 29.9058 16.5182C29.9491 16.5081 29.993 16.5003 30.037 16.4924C30.0811 16.4844 30.1256 16.4756 30.1705 16.4702C30.2604 16.4551 30.3512 16.4483 30.4446 16.4389L30.4481 16.4134C30.3584 16.3822 30.2663 16.3582 30.1727 16.3417C30.1258 16.333 30.0783 16.3275 30.0306 16.3215C29.983 16.3179 29.9351 16.3144 29.887 16.3134C29.8388 16.312 29.7901 16.3079 29.7411 16.3059C29.6922 16.3049 29.6442 16.3122 29.5983 16.3295C29.5894 16.333 29.5804 16.3365 29.5714 16.3404C29.4746 16.382 29.3633 16.372 29.2736 16.3165L29.2719 16.3154C29.1159 16.2189 28.9581 16.126 28.8006 16.0321C28.8441 16.0263 28.887 16.0174 28.9293 16.0057C28.9717 15.9934 29.011 15.9754 29.048 15.9506C29.0848 15.9259 29.122 15.9001 29.1619 15.8802C29.2013 15.8596 29.2419 15.841 29.2826 15.8222C29.3232 15.8035 29.3641 15.7839 29.4062 15.7674C29.4894 15.7303 29.5757 15.7011 29.6637 15.6686L29.6606 15.643C29.5668 15.6354 29.4713 15.6348 29.3763 15.6425C29.3285 15.6457 29.2814 15.6522 29.2337 15.6585C29.1866 15.667 29.1393 15.6756 29.0925 15.6867C29.0456 15.6973 28.9974 15.7054 28.9495 15.7158C28.9019 15.7272 28.857 15.7461 28.817 15.7743C28.7995 15.787 28.7822 15.8004 28.7655 15.8149C28.6845 15.885 28.5658 15.8911 28.4743 15.835C28.3958 15.787 28.3173 15.7386 28.2384 15.691C28.1387 15.6309 28.0363 15.5753 27.9316 15.5244C27.9704 15.5184 28.0071 15.5101 28.0433 15.5002C28.0855 15.4883 28.1255 15.4697 28.1618 15.4451C28.1988 15.4204 28.236 15.3946 28.2759 15.3749C28.3152 15.3541 28.3557 15.3356 28.3965 15.3169C28.4371 15.2981 28.4781 15.2784 28.5201 15.2621C28.6032 15.2249 28.6896 15.1958 28.7777 15.1632L28.7747 15.1376C28.6807 15.1299 28.5853 15.1294 28.4901 15.137C28.4425 15.1403 28.3953 15.1469 28.3475 15.1531C28.3006 15.1616 28.2531 15.1701 28.2064 15.1812C28.1596 15.1919 28.1114 15.2001 28.0633 15.2105C28.0158 15.2214 27.9709 15.2412 27.931 15.269C27.8916 15.2974 27.8536 15.3297 27.8207 15.3688C27.7831 15.4135 27.7222 15.4307 27.6677 15.4095C27.5264 15.3552 27.2702 15.2587 27.1303 15.2169C26.9354 15.16 26.737 15.1102 26.5276 15.0854L26.5081 15.1273C26.6608 15.2721 26.8231 15.3953 26.9884 15.5116C27.1541 15.6272 27.3234 15.7346 27.4961 15.8347L27.5053 15.84C27.561 15.8724 27.5847 15.9381 27.567 16.0001C27.5538 16.0456 27.5479 16.0917 27.5455 16.1371C27.5438 16.1857 27.5514 16.2343 27.5679 16.2801C27.5852 16.3261 27.6044 16.371 27.6208 16.4161C27.6368 16.4615 27.6551 16.506 27.6735 16.5501C27.694 16.5937 27.714 16.6369 27.7371 16.6788C27.782 16.7624 27.8336 16.8423 27.8914 16.9176L27.9146 16.9064C27.8943 16.8148 27.8722 16.7263 27.8584 16.6363C27.8496 16.5921 27.8438 16.5471 27.8377 16.5027C27.831 16.4586 27.8254 16.4143 27.821 16.3698C27.8163 16.3256 27.8179 16.2804 27.8186 16.2359C27.8194 16.192 27.8134 16.1483 27.8007 16.1063C27.7862 16.0593 27.7679 16.0135 27.7461 15.9693C27.8398 16.0159 27.9351 16.0594 28.0317 16.0997C28.1093 16.1313 28.2134 16.175 28.3047 16.2138C28.4018 16.255 28.4645 16.3535 28.4545 16.4586C28.4496 16.5099 28.4523 16.5616 28.4497 16.6089C28.4481 16.6575 28.4557 16.706 28.4722 16.7518C28.4895 16.7977 28.5087 16.8428 28.525 16.888C28.541 16.9333 28.5595 16.9778 28.5777 17.0219C28.5983 17.0653 28.6183 17.1086 28.6413 17.1506C28.6863 17.2342 28.738 17.3141 28.7958 17.3895L28.8189 17.3782C28.7985 17.2866 28.7764 17.1982 28.7626 17.108C28.7538 17.0637 28.748 17.0187 28.742 16.9744C28.7356 16.93 28.7293 16.8859 28.7255 16.8415C28.7205 16.7973 28.7221 16.7521 28.7229 16.7078C28.7237 16.6639 28.7177 16.6202 28.705 16.5782C28.6795 16.4977 28.6463 16.4186 28.5841 16.3332C28.7646 16.417 28.9461 16.4993 29.1251 16.5857L29.1321 16.5889C29.2422 16.639 29.32 16.7447 29.3261 16.8654C29.3278 16.8995 29.3327 16.933 29.3392 16.9655C29.3495 17.0135 29.3696 17.0578 29.3968 17.0985C29.4248 17.1385 29.4548 17.1773 29.482 17.2171C29.5088 17.257 29.5378 17.2954 29.5665 17.3335C29.5974 17.3704 29.6275 17.4074 29.6604 17.4422C29.7249 17.5118 29.7948 17.5762 29.8696 17.6348L29.8891 17.6181C29.8467 17.5344 29.8031 17.4544 29.7672 17.3707Z" fill="url(#paint10_linear_25_773)"/>
<path d="M22.7944 15.053C23.7674 15.1356 25.679 15.0961 27.1264 13.807C27.2078 13.7346 27.32 13.7019 27.4262 13.7266C27.5564 13.757 27.6577 13.8684 27.4214 14.2231C27.0077 14.8436 25.932 16.1262 24.0703 16.4156C24.0703 16.4156 22.7369 16.6606 22.299 15.7824C22.1236 15.4303 22.4027 15.0199 22.7944 15.053Z" fill="url(#paint11_linear_25_773)"/>
<path d="M25.1239 14.904C25.1239 14.904 22.9437 13.7426 25.4107 11.8077C25.5137 11.7269 25.6621 11.7428 25.747 11.8423C26.1551 12.321 27.079 13.7255 25.1239 14.904H25.1239Z" fill="url(#paint12_linear_25_773)"/>
<path d="M25.747 11.8423C25.7246 11.8159 25.6969 11.7946 25.6656 11.7798C25.6344 11.765 25.6004 11.7569 25.5658 11.7562C25.1752 13.2158 25.1239 14.904 25.1239 14.904C27.079 13.7255 26.155 12.321 25.747 11.8423Z" fill="url(#paint13_linear_25_773)"/>
</g>
<defs>
<filter id="filter0_b_25_773" x="-24" y="-24" width="90" height="90" filterUnits="userSpaceOnUse" color-interpolation-filters="sRGB">
<feFlood flood-opacity="0" result="BackgroundImageFix"/>
<feGaussianBlur in="BackgroundImageFix" stdDeviation="12"/>
<feComposite in2="SourceAlpha" operator="in" result="effect1_backgroundBlur_25_773"/>
<feBlend mode="normal" in="SourceGraphic" in2="effect1_backgroundBlur_25_773" result="shape"/>
</filter>
<linearGradient id="paint0_linear_25_773" x1="21.1066" y1="18.8252" x2="17.3834" y2="24.4722" gradientUnits="userSpaceOnUse">
<stop stop-color="#C08552"/>
<stop offset="1" stop-color="#895738"/>
</linearGradient>
<linearGradient id="paint1_linear_25_773" x1="18.0063" y1="22.2394" x2="24.6257" y2="15.7027" gradientUnits="userSpaceOnUse">
<stop stop-color="#895738" stop-opacity="0"/>
<stop offset="1" stop-color="#5E3023"/>
</linearGradient>
<linearGradient id="paint2_linear_25_773" x1="23.4507" y1="16.2204" x2="20.6374" y2="21.0609" gradientUnits="userSpaceOnUse">
<stop stop-color="#895738" stop-opacity="0"/>
<stop offset="1" stop-color="#5E3023"/>
</linearGradient>
<linearGradient id="paint3_linear_25_773" x1="19.514" y1="17.8206" x2="17.8515" y2="20.6809" gradientUnits="userSpaceOnUse">
<stop stop-color="#895738" stop-opacity="0"/>
<stop offset="1" stop-color="#5E3023"/>
</linearGradient>
<linearGradient id="paint4_linear_25_773" x1="26.0472" y1="18.3494" x2="24.2683" y2="14.0881" gradientUnits="userSpaceOnUse">
<stop stop-color="#895738" stop-opacity="0"/>
<stop offset="1" stop-color="#5E3023"/>
</linearGradient>
<radialGradient id="paint5_radial_25_773" cx="0" cy="0" r="1" gradientUnits="userSpaceOnUse" gradientTransform="translate(25.8167 23.5488) scale(5.01194)">
<stop stop-color="#F2E9DC"/>
<stop offset="0.493" stop-color="#F1E7DA"/>
<stop offset="0.671" stop-color="#EFE2D3"/>
<stop offset="0.798" stop-color="#EAD8C8"/>
<stop offset="0.9" stop-color="#E4CAB7"/>
<stop offset="0.987" stop-color="#DCB7A1"/>
<stop offset="1" stop-color="#DAB49D"/>
</radialGradient>
<linearGradient id="paint6_linear_25_773" x1="29.6049" y1="26.3328" x2="21.5643" y2="21.9679" gradientUnits="userSpaceOnUse">
<stop stop-color="#DAB49D" stop-opacity="0"/>
<stop offset="0.439" stop-color="#CE9E7A" stop-opacity="0.439"/>
<stop offset="1" stop-color="#C08552"/>
</linearGradient>
<linearGradient id="paint7_linear_25_773" x1="26.2467" y1="23.1556" x2="24.5729" y2="31.0906" gradientUnits="userSpaceOnUse">
<stop stop-color="#DAB49D"/>
<stop offset="0.967" stop-color="#C08552"/>
</linearGradient>
<linearGradient id="paint8_linear_25_773" x1="29.252" y1="16.0609" x2="27.4751" y2="19.0227" gradientUnits="userSpaceOnUse">
<stop stop-color="#ACC130"/>
<stop offset="1" stop-color="#97A03B"/>
</linearGradient>
<linearGradient id="paint9_linear_25_773" x1="28.4522" y1="17.7715" x2="29.5117" y2="15.2542" gradientUnits="userSpaceOnUse">
<stop stop-color="#97A03B" stop-opacity="0"/>
<stop offset="1" stop-color="#575C55"/>
</linearGradient>
<linearGradient id="paint10_linear_25_773" x1="29.0081" y1="15.6604" x2="28.5312" y2="16.3848" gradientUnits="userSpaceOnUse">
<stop stop-color="#97A03B"/>
<stop offset="1" stop-color="#6C7D47"/>
</linearGradient>
<linearGradient id="paint11_linear_25_773" x1="24.9263" y1="14.8162" x2="25.4848" y2="16.6986" gradientUnits="userSpaceOnUse">
<stop stop-color="#C08552"/>
<stop offset="1" stop-color="#895738"/>
</linearGradient>
<linearGradient id="paint12_linear_25_773" x1="24.9196" y1="12.6935" x2="25.8079" y2="14.2629" gradientUnits="userSpaceOnUse">
<stop stop-color="#FFE548"/>
<stop offset="0.969" stop-color="#97A03B"/>
</linearGradient>
<linearGradient id="paint13_linear_25_773" x1="25.7524" y1="13.2589" x2="24.1106" y2="13.5456" gradientUnits="userSpaceOnUse">
<stop stop-color="#97A03B" stop-opacity="0"/>
<stop offset="1" stop-color="#575C55"/>
</linearGradient>
<clipPath id="clip0_25_773">
<rect width="21" height="21" fill="white" transform="translate(10.5002 10.5)"/>
</clipPath>
</defs>
</svg>
