<svg width="52" height="52" viewBox="0 0 52 52" fill="none" xmlns="http://www.w3.org/2000/svg">
<g clip-path="url(#clip0_344_5305)">
<path d="M43.9494 52H32.4187C31.5774 52 30.8953 51.3179 30.8953 50.4766V24.3682C30.8953 23.5269 31.5774 22.8448 32.4187 22.8448H47.2129C47.4289 22.8448 47.6425 22.8907 47.8394 22.9796C48.0362 23.0684 48.212 23.1981 48.355 23.36C48.4979 23.522 48.6048 23.7125 48.6685 23.9189C48.7322 24.1253 48.7513 24.3429 48.7246 24.5572L45.4611 50.6655C45.3659 51.4279 44.7177 52 43.9494 52Z" fill="#C1126B"/>
<path d="M19.5813 52H8.05063C7.67931 52 7.32078 51.8644 7.04241 51.6186C6.76405 51.3729 6.58502 51.0339 6.53898 50.6655L3.27547 24.5571C3.24864 24.3428 3.2677 24.1251 3.3314 23.9187C3.39511 23.7123 3.50199 23.5218 3.64495 23.3598C3.78791 23.1979 3.96369 23.0682 4.16061 22.9794C4.35754 22.8906 4.5711 22.8446 4.78713 22.8447H19.5813C20.4227 22.8447 21.1048 23.5268 21.1048 24.3681V50.4766C21.1048 51.3179 20.4227 52 19.5813 52Z" fill="#E20059"/>
<path d="M32.4188 52H19.5813V25.8916C19.5813 25.0503 20.2634 24.3682 21.1047 24.3682H30.8954C31.7367 24.3682 32.4188 25.0503 32.4188 25.8916V52Z" fill="#FFB543"/>
<path d="M30.8953 24.3682H26V52H32.4188V25.8916C32.4188 25.0503 31.7367 24.3682 30.8953 24.3682Z" fill="#FF9743"/>
<path d="M29.2636 16.1011C28.4222 16.1011 27.7401 15.419 27.7401 14.5777C27.7401 13.7363 28.4222 13.0542 29.2636 13.0542C35.8297 13.0542 39.2542 9.37422 39.2542 6.17734C39.2542 4.21718 37.9594 3.04688 35.7906 3.04688C31.8422 3.04688 28.6136 10.4472 27.4777 14.9479C27.395 15.2772 27.2047 15.5694 26.937 15.7782C26.6693 15.9871 26.3396 16.1006 26.0001 16.1007H25.9992C25.6597 16.1006 25.3298 15.9871 25.0622 15.778C24.7945 15.569 24.6044 15.2766 24.522 14.9472C23.8588 12.3149 20.7259 3.04688 16.2094 3.04688C14.0407 3.04688 12.7458 4.21708 12.7458 6.17734C12.7458 9.37046 16.161 13.0542 22.7365 13.0542C23.5778 13.0542 24.2599 13.7363 24.2599 14.5777C24.2599 15.419 23.5778 16.1011 22.7365 16.1011C13.4907 16.1011 9.69897 10.2316 9.69897 6.17734C9.69908 3.03448 11.857 0 16.2094 0C19.2792 0 22.9387 2.20005 26.0001 9.78636C29.064 2.19406 32.7252 0 35.7907 0C40.1366 0 42.3011 3.02605 42.3011 6.17734C42.301 10.211 38.5191 16.1011 29.2636 16.1011Z" fill="#FFB543"/>
<path d="M26 9.78636C29.0639 2.19406 32.7251 0 35.7906 0C40.1366 0 42.3011 3.02605 42.3011 6.17734C42.3011 10.211 38.5191 16.1011 29.2636 16.1011C28.4222 16.1011 27.7402 15.419 27.7402 14.5777C27.7402 13.7363 28.4222 13.0542 29.2636 13.0542C35.8297 13.0542 39.2542 9.37422 39.2542 6.17734C39.2542 4.21718 37.9595 3.04688 35.7906 3.04688C31.8423 3.04688 28.6136 10.4472 27.4777 14.9479C27.395 15.2772 27.2047 15.5694 26.937 15.7782C26.6693 15.9871 26.3396 16.1006 26.0001 16.1007H25.9993L26 9.78636Z" fill="#FF9743"/>
<path d="M19.5813 25.8916H2.74728C2.37596 25.8916 2.01743 25.756 1.73906 25.5103C1.4607 25.2645 1.28167 24.9256 1.23563 24.5571L0.0117974 14.7665C-0.0150367 14.5521 0.00403019 14.3345 0.0677325 14.1281C0.131435 13.9217 0.238315 13.7312 0.381279 13.5692C0.524243 13.4073 0.70002 13.2776 0.896942 13.1888C1.09386 13.0999 1.30743 13.054 1.52345 13.054H19.5813C20.4226 13.054 21.1047 13.7361 21.1047 14.5775V24.3681C21.1047 25.2096 20.4226 25.8916 19.5813 25.8916Z" fill="#FF405C"/>
<path d="M49.2527 25.8916H32.4187C31.5774 25.8916 30.8953 25.2095 30.8953 24.3682V14.5776C30.8953 13.7362 31.5774 13.0541 32.4187 13.0541H50.4765C50.6925 13.0542 50.9061 13.1001 51.103 13.1889C51.2999 13.2778 51.4756 13.4075 51.6186 13.5694C51.7615 13.7314 51.8684 13.9218 51.9321 14.1282C51.9958 14.3346 52.015 14.5522 51.9882 14.7666L50.7643 24.5572C50.6692 25.3195 50.021 25.8916 49.2527 25.8916Z" fill="#E20059"/>
<path d="M19.5813 13.0541H32.4188V25.8916H19.5813V13.0541Z" fill="#FFDB5C"/>
<path d="M26 13.0541H32.4188V25.8916H26V13.0541Z" fill="#FFB543"/>
</g>
<defs>
<clipPath id="clip0_344_5305">
<rect width="52" height="52" fill="white"/>
</clipPath>
</defs>
</svg>
