<svg width="50" height="50" viewBox="0 0 50 50" fill="none" xmlns="http://www.w3.org/2000/svg">
<path fill-rule="evenodd" clip-rule="evenodd" d="M24.7157 0.0243275C38.288 0.576822 47.9706 9.53393 49.7251 21.2703C49.7582 21.4377 47.7058 20.6173 44.71 21.9734C45.7858 21.94 49.841 22.1744 49.8575 22.3585C49.9734 23.4802 50.023 24.6355 49.9899 25.8074C49.6423 39.7202 39.5128 50 24.6991 50C9.88543 50 0.980691 39.9546 0.0703537 26.5273C0.0703537 26.3432 3.03308 25.7237 3.59584 25.5563C2.80136 25.6065 0.517245 25.4391 0.00414589 24.9201C-0.078612 20.0816 1.08 15.4942 3.26481 11.61C3.38067 11.3923 6.19443 10.4882 7.30339 10.1701C4.52272 10.4882 3.89377 10.5552 4.02618 10.3543C8.21373 3.8583 15.4633 -0.360745 24.6991 0.0243275H24.7157Z" fill="url(#paint0_linear_160_1080)"/>
<path fill-rule="evenodd" clip-rule="evenodd" d="M24.7322 0.308913C38.0563 0.844665 47.5238 9.60087 49.03 21.0358C47.6727 20.9019 45.9514 21.2535 43.75 22.1743C45.4383 22.1241 47.1265 22.2413 49.1789 22.4422C49.2451 23.2626 49.2617 24.0829 49.2451 24.9201C48.9141 38.1967 37.9404 48.0244 24.7322 48.0244C12.2192 48.0244 2.33795 38.9166 0.964166 26.611C2.52002 26.1422 4.07588 25.6567 5.63172 25.1712C4.52277 25.3721 1.7421 25.3051 0.831763 24.8029C0.831763 24.7024 0.831763 24.6019 0.831763 24.5015C0.682799 19.8974 1.72554 15.5109 3.76139 11.7774C5.05241 11.2918 7.10481 10.5384 9.19031 9.78504C7.66756 9.93572 6.11171 10.1534 4.58897 10.3543C8.62755 4.04244 15.7116 -0.0761603 24.7488 0.275427L24.7322 0.308913Z" fill="url(#paint1_radial_160_1080)"/>
<path style="mix-blend-mode:multiply" opacity="0.6" fill-rule="evenodd" clip-rule="evenodd" d="M1.01372 20.2657C2.91715 19.7802 4.90334 19.1607 7.03849 18.3738C10.4481 17.1181 13.2619 16.2308 16.8205 15.5946C26.0232 13.9539 32.8921 10.9905 42.7899 10.7059C43.5182 10.6891 44.263 10.6891 45.0078 10.7059C44.6602 10.2036 44.2796 9.71806 43.8823 9.24927C41.4989 9.09859 39.2148 9.08186 37.1127 9.26602C27.9762 10.0864 17.317 12.4973 7.56814 14.0711C5.84678 14.3557 4.07575 14.6738 2.27163 15.0086C1.65922 16.6828 1.22888 18.4575 0.997162 20.2824L1.01372 20.2657Z" fill="url(#paint2_radial_160_1080)"/>
<path style="mix-blend-mode:multiply" opacity="0.6" fill-rule="evenodd" clip-rule="evenodd" d="M15.7945 28.4862C13.9904 29.1894 10.0842 30.579 6.93938 32.2699C5.15181 33.2243 3.97665 34.0614 3.31459 34.8148C4.15872 36.5392 5.20146 38.1465 6.40973 39.5863C7.08834 39.9212 7.86628 40.2727 8.69385 40.6411C11.0276 41.6624 13.4607 42.6669 15.6621 43.7719C17.88 44.8769 19.9986 46.3502 22.1172 47.8905C22.9613 47.9742 23.8386 48.0244 24.7158 48.0244C26.1061 48.0244 27.4799 47.924 28.804 47.7063C27.3309 46.6013 25.7751 45.3959 24.0206 44.1235C21.1241 42.0307 17.251 39.218 15.96 37.8284C15.629 37.4768 15.3807 37.0582 15.2152 36.6229C15.0497 36.1709 14.9669 35.7021 14.9834 35.2501C15 34.8148 15.1159 34.3795 15.3145 33.9777C15.5131 33.5424 15.811 33.1405 16.1421 32.8057C17.5821 31.3324 20.4289 29.7586 23.6234 28.302C28.2413 26.1925 33.6205 24.3341 36.5667 23.4635C39.4633 22.6097 41.5984 22.2581 43.7335 22.1744C45.9349 21.2368 47.6397 20.8852 49.0135 21.0359C48.8976 20.1151 48.7156 19.211 48.5004 18.3404C46.2494 18.1227 44.0315 18.0725 41.9956 18.4241C34.7626 19.6965 23.3751 25.5396 15.7779 28.4862H15.7945Z" fill="url(#paint3_radial_160_1080)"/>
<g style="mix-blend-mode:multiply" opacity="0.5">
<path d="M47.6893 32.8224C47.4907 32.8224 47.292 32.8224 47.0934 32.8224C46.4976 32.8392 45.9182 32.9229 45.3555 33.0401C44.9748 33.1238 44.5941 33.2577 44.2465 33.4419C43.9155 33.6261 43.5845 33.8437 43.27 34.0614C42.9389 34.3125 42.6245 34.5804 42.3431 34.8817C42.0783 35.1664 41.8465 35.4677 41.6479 35.8026C41.4659 36.1207 41.2838 36.4723 41.1514 36.8406C41.019 37.2257 40.9362 37.6275 40.9528 38.0293C40.9528 38.4144 41.0521 38.8162 41.201 39.1845C41.35 39.5361 41.5652 39.8542 41.83 40.0886C42.0783 40.3062 42.3431 40.4904 42.6245 40.6578C42.8562 40.4067 43.1045 40.1556 43.3196 39.9044C42.9058 39.7203 42.5086 39.5026 42.161 39.2012C41.83 38.9166 41.6479 38.3809 41.6479 37.9456C41.6479 37.3931 41.8962 36.8238 42.161 36.3718C43.1376 34.7478 44.7431 34.1116 46.4976 34.0446C46.7127 34.0446 46.9279 34.0446 47.1596 34.0446C47.3417 33.6428 47.5072 33.241 47.6727 32.8224H47.6893ZM49.1293 26.7115C48.9968 26.7115 48.8644 26.7115 48.732 26.7115C42.9058 26.745 37.1956 28.4025 32.0149 31.9686C30.0949 33.2912 29.1515 34.4967 28.986 35.6686C28.8205 36.8238 29.0191 37.9791 30.1446 39.285C32.0977 41.5786 34.0839 43.6714 36.219 45.3624C35.6397 45.647 35.0604 45.9149 34.4645 46.166C32.3459 44.4081 30.3432 42.2818 28.3736 39.9714C26.9998 38.3474 26.2881 36.8406 26.5032 35.3003C26.9005 32.5211 32.6604 29.5242 35.7556 28.2685C41.1845 26.092 45.19 25.2717 49.2286 25.4056C49.212 25.8577 49.1789 26.293 49.1293 26.7283V26.7115ZM49.2286 23.2626C41.35 22.7436 35.4907 24.1332 24.4839 29.1391C21.5543 30.4785 19.204 32.1862 17.9295 33.4921C16.8371 34.5971 16.6716 36.1709 17.764 37.3429C18.9226 38.5985 22.2329 41.2773 24.9308 43.2361C27.0329 44.7597 28.6715 46.1828 30.2604 47.4552C29.7804 47.5556 29.3004 47.6561 28.8204 47.7231C27.3474 46.6181 25.7915 45.4126 24.037 44.1402C21.1405 42.0474 17.2675 39.2347 15.9764 37.8451C15.6454 37.4935 15.3971 37.075 15.2316 36.6397C15.0661 36.1876 14.9833 35.7189 14.9999 35.2668C15.0164 34.8315 15.1323 34.3962 15.3309 33.9944C15.5295 33.5591 15.8275 33.1573 16.1585 32.8224C17.5985 31.3491 20.4453 29.7753 23.6398 28.3188C28.2577 26.2092 33.637 24.3509 36.5831 23.4803C41.7638 21.9567 44.5445 22.0069 49.1789 22.4757C49.1955 22.7436 49.212 23.0115 49.2286 23.2961V23.2626ZM48.5169 18.3404C46.2658 18.1227 44.0479 18.0725 42.0121 18.4241C34.779 19.6965 23.3915 25.5396 15.7944 28.4862C13.9902 29.1894 10.0841 30.579 6.93925 32.2699C5.15168 33.2243 3.97653 34.0614 3.31446 34.8148C3.03309 34.2288 2.76826 33.6261 2.51998 33.0066C6.02892 30.579 12.1365 28.302 14.8178 27.2807C18.1281 26.0083 21.4053 24.6522 24.6991 23.3128C29.9294 21.2033 36.3845 18.1562 41.9293 17.6372C43.9651 17.453 46.1334 17.5033 48.3348 17.6874C48.401 17.9051 48.4506 18.106 48.5003 18.3236L48.5169 18.3404ZM6.4096 39.6031C7.10477 39.9379 7.86614 40.2895 8.71027 40.6578C11.044 41.6791 13.4771 42.6836 15.6785 43.7886C17.8964 44.8936 20.015 46.3669 22.1336 47.9072C20.7102 47.7565 19.3364 47.4887 18.0123 47.1203C16.7874 46.4339 15.5461 45.7642 14.2385 45.1113C12.9806 44.4751 11.6565 43.8891 10.2992 43.3031C8.8758 42.2316 7.56822 40.9927 6.42616 39.6198L6.4096 39.6031ZM47.2589 14.6906C44.6107 14.6068 41.8797 14.7743 39.0493 15.31C33.5211 16.3648 29.3666 18.2399 23.3088 20.4332C15.993 23.0952 8.57787 25.6065 1.1131 27.8332C1.04689 27.4314 0.997241 27.0296 0.947587 26.6111C8.54476 24.3341 16.0923 21.7558 23.5405 19.0603C29.8797 16.7666 34.3487 15.2263 38.9169 14.4897C41.4659 14.0878 44.0479 13.9372 46.9775 14.0544C47.0769 14.2553 47.1596 14.4562 47.2589 14.6738V14.6906ZM0.997239 20.2657C2.90067 19.7802 4.88686 19.1607 7.02202 18.3739C10.4316 17.1182 13.2454 16.2309 16.804 15.5946C26.0067 13.9539 32.8756 10.9905 42.7734 10.7059C43.5017 10.6892 44.2465 10.6892 44.9914 10.7059C45.2065 11.0073 45.4051 11.3086 45.6038 11.6267C44.6603 11.5765 43.7169 11.5598 42.79 11.5932C37.1625 11.7607 31.7832 13.2507 26.3874 14.7575C23.2095 15.6449 20.1805 16.482 16.9364 17.068C13.4109 17.7042 10.6634 18.5748 7.28685 19.8137C5.00273 20.6508 2.86757 21.287 0.831726 21.7558C0.864829 21.2535 0.914478 20.768 0.980684 20.2825L0.997239 20.2657ZM2.95033 13.3512C4.39031 13.0498 5.87996 12.7485 7.45236 12.4973C17.2178 10.9236 27.8936 9.1991 37.0466 8.37873C38.9997 8.2113 40.9859 8.16108 42.9886 8.22804C43.3031 8.56289 43.601 8.89774 43.8824 9.24932C41.499 9.09864 39.2148 9.0819 37.1128 9.26607C27.9763 10.0864 17.3171 12.4973 7.56822 14.0711C5.84686 14.3557 4.07583 14.6738 2.27171 15.0087C2.47032 14.4394 2.70205 13.9037 2.95033 13.3512ZM5.44962 9.09864C7.99856 8.74706 10.5309 8.47918 12.9806 8.37873C16.1088 8.26153 19.2536 8.04388 22.3819 7.64207C24.5832 7.35745 26.4701 7.08957 28.1915 6.83844C32.6108 6.20223 36.0866 5.69996 40.1583 5.66648C40.4397 5.88413 40.7376 6.11852 41.0024 6.35291C31.717 6.35291 23.7557 9.4 13.0137 9.55068C10.382 9.58417 7.3696 9.98598 4.52272 10.3878C4.8041 9.9525 5.10203 9.5172 5.41651 9.09864H5.44962ZM8.13097 6.11852C14.4868 6.13526 19.9488 5.64974 26.437 4.77914C29.946 4.31036 33.4714 3.84157 37.0135 3.60718C37.5597 3.90854 38.1059 4.22664 38.619 4.56149C34.5804 4.71217 30.5418 5.11398 26.5363 5.63299C19.5185 6.57056 13.7585 7.5751 6.74064 7.49139C7.17098 7.00586 7.63443 6.53707 8.11443 6.10178L8.13097 6.11852ZM12.5502 2.97097C16.0592 2.77007 19.6509 2.40174 23.3915 1.8325C25.4936 1.51439 27.5956 1.19629 29.7143 0.94516C30.5418 1.11258 31.3694 1.33023 32.1473 1.58137C25.6756 2.2678 19.2371 3.48998 12.7654 4.04248C12.0206 4.10945 11.2758 4.15968 10.5144 4.2099C11.1599 3.75786 11.8385 3.35605 12.5337 2.98772L12.5502 2.97097ZM39.4631 43.3868C38.2218 42.6167 37.1955 41.7293 36.4176 40.8252C35.2259 39.4356 34.6632 37.9958 34.928 36.7904C34.9611 36.6397 35.0107 36.489 35.0604 36.3551C35.5735 35.1161 36.848 33.76 38.47 32.6048C40.059 31.4663 41.979 30.5288 43.8493 30.0432C45.3886 29.6414 47.0107 29.5242 48.6658 29.5744C48.6162 29.7921 48.5665 29.993 48.5169 30.1939C48.4837 30.1939 48.4341 30.1939 48.401 30.1939C46.8782 30.1269 45.3886 30.2441 43.9982 30.6292C42.3431 31.0812 40.5224 32.2532 39.1155 33.3414C36.5169 35.3338 34.928 37.2089 37.3611 40.2393C38.0728 41.1433 39.0659 42.0307 40.2576 42.8008C39.9928 43.0017 39.728 43.2026 39.4631 43.3868Z" fill="#B7805C"/>
</g>
<path style="mix-blend-mode:screen" fill-rule="evenodd" clip-rule="evenodd" d="M16.3737 2.46869C16.2579 2.40172 16.2082 2.20081 16.2744 2.06687C16.473 1.61483 17.7475 1.11257 19.0385 0.710754C16.6882 1.14605 14.5034 1.9162 12.5503 2.97096C14.0068 2.88725 15.4634 2.77005 16.953 2.63611C16.7544 2.61937 16.5392 2.58588 16.3737 2.48543V2.46869ZM15.182 3.79133C14.3875 3.87504 13.5765 3.95875 12.782 4.02572C12.0372 4.09269 11.2924 4.14292 10.531 4.19314C9.6869 4.77912 8.87586 5.41533 8.13104 6.10176C10.3821 6.10176 12.5172 6.05154 14.6193 5.93434C14.1227 5.88411 13.6427 5.83389 13.1462 5.78366C10.8124 5.4823 13.3282 4.31034 14.1724 4.04246C14.5034 3.94201 14.8344 3.8583 15.1655 3.77459L15.182 3.79133ZM13.5103 7.27372C11.342 7.44114 9.10758 7.5416 6.75725 7.50811C6.29381 8.01038 5.86348 8.54613 5.44969 9.09863C7.99863 8.74704 10.531 8.47916 12.9807 8.37871C13.2124 8.37871 13.4441 8.36197 13.6758 8.34523C13.3448 8.31174 13.0138 8.26152 12.6993 8.21129C12.0207 8.07735 12.4676 7.5416 12.9476 7.40766C13.1296 7.35744 13.3117 7.30721 13.5103 7.25698V7.27372ZM9.15724 9.81855C7.07174 10.5552 5.0028 11.3086 3.72832 11.8109C3.44695 12.3131 3.19868 12.8322 2.96695 13.3512C4.40694 13.0498 5.89657 12.7484 7.46897 12.4973C7.65104 12.4638 7.81656 12.4471 7.99862 12.4136C7.17104 12.1792 6.27726 11.7606 7.12139 11.1244C8.64414 9.98597 10.9283 9.75158 12.8813 9.56742C11.7062 9.58416 10.4483 9.68461 9.1738 9.81855H9.15724ZM7.22071 14.1213C5.61521 14.3892 3.97659 14.6906 2.28833 15.0087C1.67592 16.6829 1.24559 18.4576 1.01387 20.2825C2.9173 19.7969 4.90349 19.1775 7.03864 18.3906C7.32002 18.2901 7.60139 18.1897 7.88276 18.0892C6.2276 18.4241 4.22487 18.7087 3.77798 18.2399C2.90074 17.3191 3.9435 15.2933 5.0359 14.858C5.74762 14.5734 6.47589 14.3557 7.22071 14.1548V14.1213ZM6.04555 20.249C4.22487 20.8684 2.5035 21.354 0.84834 21.739C0.782134 22.6599 0.765584 23.5807 0.798687 24.5183C0.798687 24.6187 0.798687 24.7192 0.798687 24.8196C1.70902 25.3219 4.48969 25.3889 5.59865 25.188C6.17795 25.0038 6.74071 24.8196 7.32001 24.6355C5.35038 24.8531 2.20558 25.054 1.8911 23.8988C1.56007 22.7268 3.82764 21.354 6.04555 20.249ZM6.21106 26.2762C4.5228 26.812 2.81798 27.331 1.11317 27.85C1.39455 29.6581 1.87454 31.3993 2.52005 33.0401C3.87728 32.1025 5.59865 31.1984 7.36967 30.3781C6.52554 30.6292 5.71451 30.7799 4.95314 30.7296C3.66211 30.6292 3.01661 29.0052 3.91039 27.8165C4.34073 27.2472 5.21796 26.745 6.19451 26.2929L6.21106 26.2762ZM6.93932 32.2867C5.15175 33.241 3.9766 34.0781 3.31453 34.8315C4.15867 36.556 5.20141 38.1632 6.40967 39.603C7.08829 39.9379 7.86622 40.2895 8.6938 40.6578C10.051 41.2605 11.4414 41.8465 12.7986 42.4492C11.1434 41.5117 9.02483 40.3062 8.28001 39.5696C6.98899 38.3139 5.23451 35.3505 6.19451 33.5256C6.52554 32.8894 7.05518 32.4206 7.58483 31.9351C7.36966 32.0523 7.13795 32.1695 6.92278 32.2867H6.93932Z" fill="url(#paint4_radial_160_1080)"/>
<path style="mix-blend-mode:screen" fill-rule="evenodd" clip-rule="evenodd" d="M2.90057 35.1999C7.86605 44.5755 14.2218 47.6226 25.1128 48.6941C15.4467 50.7032 6.14468 44.8099 2.90057 35.1999Z" fill="url(#paint5_radial_160_1080)"/>
<g style="mix-blend-mode:screen" opacity="0.65">
<path fill-rule="evenodd" clip-rule="evenodd" d="M5.20131 10.3041C9.32266 4.528 16.1419 0.827962 24.7322 1.16281C26.5528 1.22978 28.2577 1.44743 29.9294 1.81576C30.7238 2.23431 31.6839 2.75332 31.9652 2.83703C32.8425 3.10491 34.448 3.18862 35.5735 3.70763C40.0258 5.76693 43.5348 8.94796 45.9182 12.8824C45.9844 12.9996 46.0672 13.2172 46.0175 13.3344C45.9513 13.4684 45.7858 13.4851 45.6368 13.5019C45.4713 13.5353 45.2562 13.5353 45.0244 13.5186C44.081 13.4684 43.1375 13.2842 42.1941 13.3344C40.721 13.3847 39.2314 13.4851 37.8079 13.8367C34.0342 14.7575 28.6715 16.9508 24.4343 18.7589C30.3266 16.6327 34.5969 15.1928 38.9665 14.5064C41.3996 14.1213 43.8493 13.9706 46.5968 14.0544C47.7389 16.2141 48.5334 18.558 48.9472 21.0359C48.9968 21.0359 49.0299 21.0359 49.0796 21.0359C47.5734 9.60091 38.1059 0.844701 24.7818 0.308948C15.7447 -0.0593817 8.6606 4.07596 4.62201 10.3878C4.83718 10.3543 5.03579 10.3376 5.25096 10.3041H5.20131Z" fill="#CA9E67"/>
</g>
<g style="mix-blend-mode:screen" opacity="0.5">
<path fill-rule="evenodd" clip-rule="evenodd" d="M28.357 21.3372C23.2094 23.5639 17.9791 25.7237 12.8647 28.0509C13.6261 27.7495 14.3047 27.4984 14.8343 27.2975C18.1446 26.025 21.4219 24.6689 24.7156 23.3295C27.7611 22.1073 31.2204 20.5503 34.6631 19.3784C32.4783 19.7467 31.1045 20.1652 28.357 21.3372Z" fill="#CA9E67"/>
</g>
<g style="mix-blend-mode:screen" opacity="0.5">
<path fill-rule="evenodd" clip-rule="evenodd" d="M23.6398 28.302C28.2577 26.1925 33.637 24.3341 36.5831 23.4635C37.6259 23.1621 38.5859 22.911 39.4631 22.7268C34.9114 23.4467 31.4687 24.4345 26.5694 26.5273C24.186 27.5486 21.8191 28.6201 19.5681 29.9092C17.2674 31.2319 15.8275 32.4541 15.3144 34.0446C15.3144 34.0446 15.3144 34.0111 15.3309 33.9944C15.5295 33.5591 15.8275 33.1572 16.1585 32.8224C17.5985 31.3491 20.4453 29.7753 23.6398 28.3187V28.302Z" fill="#CA9E67"/>
</g>
<g style="mix-blend-mode:screen" opacity="0.5">
<path fill-rule="evenodd" clip-rule="evenodd" d="M18.426 14.858C15.7281 15.4105 14.1061 15.9127 11.8716 16.7498C13.444 16.2978 15.0495 15.9127 16.8205 15.5946C24.2191 14.272 30.0949 12.1122 37.2617 11.1579C33.7031 11.3421 31.4521 11.61 27.3308 12.7484C26.0894 13.1 24.8977 13.6023 23.6563 13.8869C21.935 14.2887 20.1639 14.5064 18.426 14.858Z" fill="#CA9E67"/>
</g>
<g style="mix-blend-mode:screen" opacity="0.65">
<path fill-rule="evenodd" clip-rule="evenodd" d="M42.459 35.2165C38.8011 41.0428 32.4288 44.8768 25.0468 44.8768C17.6648 44.8768 11.0607 40.9759 7.41933 35.0659C10.8455 41.4781 16.5889 45.2954 25.0964 45.4963C32.4619 45.6637 38.6191 41.9302 42.459 35.2165Z" fill="#CA9E67"/>
</g>
<g style="mix-blend-mode:screen" opacity="0.65">
<path fill-rule="evenodd" clip-rule="evenodd" d="M11.673 11.8109C12.4675 11.6769 13.2785 11.5597 14.073 11.4258C13.2785 11.3421 12.9806 11.2584 13.3778 10.7393C13.6923 10.304 14.0896 9.90224 14.553 9.51716C15.1158 9.04838 15.7613 8.61308 16.473 8.21127C17.6812 7.52484 19.0385 6.9556 20.3461 6.50356C20.8426 6.33613 21.3392 6.18545 21.8191 6.05151C21.0743 6.18545 20.3461 6.36962 19.6343 6.60401C18.3599 7.02257 17.1516 7.57506 16.0095 8.24475C15.3475 8.62983 14.7185 9.06513 14.1227 9.53391C13.2454 10.2203 12.4344 10.9737 11.6896 11.8109H11.673ZM8.97512 15.9964C9.91856 14.3557 10.1999 13.8869 11.4248 13.4181C11.0441 13.4851 10.6634 13.5521 10.2661 13.619C9.57097 14.6403 8.95857 15.7285 8.46202 16.8838C8.62754 16.5824 8.79305 16.2978 8.97512 15.9964Z" fill="#CA9E67"/>
</g>
<path opacity="0.75" fill-rule="evenodd" clip-rule="evenodd" d="M6.97233 24.1667C6.97233 14.0878 15.0495 5.75017 25.0135 5.75017C34.9776 5.75017 43.0548 14.0878 43.0548 24.1667C43.0548 34.2455 35.4741 42.2483 25.0135 42.4157C14.5529 42.5832 6.97233 34.2455 6.97233 24.1667ZM45.5872 21.5046C44.4617 11.2919 35.5404 3.59042 25.0135 3.23883C13.593 2.85376 4.32408 12.6145 4.32408 24.1667C4.32408 24.535 4.32408 24.9201 4.35718 25.2884C4.85373 25.2884 5.30062 25.2382 5.6151 25.1879C5.20131 25.3219 4.78752 25.4558 4.37373 25.573C5.08545 36.4555 14.0564 44.8769 25.0135 44.8769C35.9707 44.8769 45.4548 35.6686 45.703 24.1667C45.703 23.497 45.703 22.844 45.6534 22.1911C45.0079 22.1743 44.3789 22.1576 43.75 22.1911C44.3955 21.9232 45.0079 21.6888 45.5872 21.5214V21.5046Z" fill="url(#paint6_linear_160_1080)"/>
<g style="mix-blend-mode:multiply" opacity="0.5">
<path fill-rule="evenodd" clip-rule="evenodd" d="M4.34062 24.7359C4.63855 13.4349 13.7916 4.00898 25.0301 4.37731C35.1928 4.71215 43.8327 11.8778 45.4548 21.5549C45.5044 21.5549 45.5541 21.5214 45.6037 21.5047C44.4782 11.2919 35.5569 3.59042 25.0301 3.23883C13.6095 2.85376 4.34062 12.6145 4.34062 24.1667C4.34062 24.3508 4.34062 24.5517 4.34062 24.7359Z" fill="#683C11"/>
</g>
<g style="mix-blend-mode:multiply" opacity="0.5">
<path fill-rule="evenodd" clip-rule="evenodd" d="M43.0548 24.7359C42.7735 34.5469 35.2921 42.2483 25.0136 42.4158C14.7516 42.5832 7.25376 34.5636 6.97238 24.7359C6.97238 24.9201 6.97238 25.1043 6.97238 25.2884C6.97238 35.3673 14.553 43.7049 25.0136 43.5375C35.4742 43.3701 43.0548 35.3673 43.0548 25.2884C43.0548 25.1043 43.0548 24.9201 43.0548 24.7359Z" fill="#683C11"/>
</g>
<path fill-rule="evenodd" clip-rule="evenodd" d="M25.0136 5.75021C15.0495 5.75021 6.97238 14.0879 6.97238 24.1667C6.97238 34.2456 14.553 42.5832 25.0136 42.4158C35.4742 42.2484 43.0548 34.2456 43.0548 24.1667C43.0548 14.0879 34.9776 5.75021 25.0136 5.75021Z" fill="url(#paint7_radial_160_1080)"/>
<path style="mix-blend-mode:screen" fill-rule="evenodd" clip-rule="evenodd" d="M25.0136 6.55386C15.8109 6.55386 8.36272 13.9874 8.36272 22.978C8.36272 31.9686 15.364 39.4022 25.0136 39.2515C34.6797 39.1008 41.6645 31.9686 41.6645 22.978C41.6645 13.9874 34.1997 6.55386 25.0136 6.55386Z" fill="url(#paint8_radial_160_1080)"/>
<path style="mix-blend-mode:screen" fill-rule="evenodd" clip-rule="evenodd" d="M25.0136 8.01044C16.6385 8.01044 9.83582 14.8413 9.83582 23.0952C9.83582 31.3492 16.2082 38.18 25.0136 38.0461C33.8191 37.9121 40.1914 31.3492 40.1914 23.0952C40.1914 14.8413 33.3887 8.01044 25.0136 8.01044Z" fill="url(#paint9_radial_160_1080)"/>
<path style="mix-blend-mode:screen" fill-rule="evenodd" clip-rule="evenodd" d="M9.6704 18.4409C7.43593 24.0328 9.50489 26.4437 15.5628 25.6735C22.6799 24.7695 31.2206 21.0359 35.3088 16.4485C36.0702 15.5947 36.335 14.2051 36.1033 13.0666C35.8385 11.7775 34.9612 10.572 33.935 9.76839C30.6578 7.19008 26.0565 6.77152 22.051 7.30727C16.0593 8.1109 11.8221 13.0164 9.6704 18.4409Z" fill="url(#paint10_radial_160_1080)"/>
<path style="mix-blend-mode:screen" fill-rule="evenodd" clip-rule="evenodd" d="M10.2661 33.0736C18.2109 46.8692 39.099 43.8389 41.8134 27.9505C39.1486 36.4388 32.1639 40.1054 25.3281 40.3397C19.9984 40.5239 14.2881 38.2804 10.2661 33.0736Z" fill="url(#paint11_radial_160_1080)"/>
<path style="mix-blend-mode:screen" fill-rule="evenodd" clip-rule="evenodd" d="M14.4372 11.543C11.3751 14.9752 12.2689 17.7712 17.2013 16.2811C21.1737 15.0757 24.1529 14.0544 27.546 11.7607C29.7308 10.2706 28.6715 7.65884 24.4012 7.49142C21.2895 7.35748 16.5889 9.13216 14.4206 11.5598L14.4372 11.543Z" fill="url(#paint12_radial_160_1080)"/>
<path style="mix-blend-mode:screen" fill-rule="evenodd" clip-rule="evenodd" d="M17.4331 33.76C14.9007 34.413 16.6386 36.6899 18.1779 37.4768C22.7627 39.8375 28.9861 39.2515 33.7364 36.5058C36.6495 34.8148 38.9171 32.0691 40.2246 28.9383C41.5653 25.707 39.9929 21.6386 37.2122 24.3676C34.1833 27.3477 31.7337 29.022 28.6882 30.2944C24.5834 31.9853 21.1407 32.8057 17.4331 33.76Z" fill="url(#paint13_radial_160_1080)"/>
<path style="mix-blend-mode:screen" fill-rule="evenodd" clip-rule="evenodd" d="M28.6053 38.2135C31.8659 37.5605 35.7887 35.7858 38.0728 32.2867C38.8176 31.1482 39.1156 28.8713 37.4107 30.4618C33.9349 33.7098 32.0646 34.8148 27.6287 36.3551C24.7984 37.3429 23.524 37.4768 23.5074 37.9121C23.4909 38.4646 25.626 38.7995 28.6053 38.2135Z" fill="url(#paint14_radial_160_1080)"/>
<g filter="url(#filter0_d_160_1080)">
<path d="M17.0448 16.64L23.3001 25.7597L16.7405 33.36H18.1387L23.9198 26.662L28.514 33.36H32.92L26.3741 23.8175L32.5694 16.64H31.172L25.7554 22.9152L21.4508 16.64H17.0448Z" fill="white"/>
</g>
<defs>
<filter id="filter0_d_160_1080" x="16.7405" y="16.64" width="17.1794" height="17.72" filterUnits="userSpaceOnUse" color-interpolation-filters="sRGB">
<feFlood flood-opacity="0" result="BackgroundImageFix"/>
<feColorMatrix in="SourceAlpha" type="matrix" values="0 0 0 0 0 0 0 0 0 0 0 0 0 0 0 0 0 0 127 0" result="hardAlpha"/>
<feOffset dx="1" dy="1"/>
<feColorMatrix type="matrix" values="0 0 0 0 0 0 0 0 0 0 0 0 0 0 0 0 0 0 0.1 0"/>
<feBlend mode="normal" in2="BackgroundImageFix" result="effect1_dropShadow_160_1080"/>
<feBlend mode="normal" in="SourceGraphic" in2="effect1_dropShadow_160_1080" result="shape"/>
</filter>
<linearGradient id="paint0_linear_160_1080" x1="25.0136" y1="-56.9664" x2="25.0136" y2="-56.9664" gradientUnits="userSpaceOnUse">
<stop stop-color="#692705"/>
<stop offset="1" stop-color="#823B00"/>
</linearGradient>
<radialGradient id="paint1_radial_160_1080" cx="0" cy="0" r="1" gradientUnits="userSpaceOnUse" gradientTransform="translate(10.4317 -56.1293) scale(51.492 52.0852)">
<stop stop-color="#F59547"/>
<stop offset="1" stop-color="#A14C1F"/>
</radialGradient>
<radialGradient id="paint2_radial_160_1080" cx="0" cy="0" r="1" gradientUnits="userSpaceOnUse" gradientTransform="translate(13.4936 -56.1293) scale(52.4851 53.0897)">
<stop stop-color="#CFA04D"/>
<stop offset="1" stop-color="white"/>
</radialGradient>
<radialGradient id="paint3_radial_160_1080" cx="0" cy="0" r="1" gradientUnits="userSpaceOnUse" gradientTransform="translate(21.7199 49.2968) scale(64.6505 65.3953)">
<stop stop-color="#CFA04D"/>
<stop offset="1" stop-color="white"/>
</radialGradient>
<radialGradient id="paint4_radial_160_1080" cx="0" cy="0" r="1" gradientUnits="userSpaceOnUse" gradientTransform="translate(37.4274 -56.1293) scale(44.8052 45.3213)">
<stop offset="0.35"/>
<stop offset="1" stop-color="#CA9E67"/>
</radialGradient>
<radialGradient id="paint5_radial_160_1080" cx="0" cy="0" r="1" gradientUnits="userSpaceOnUse" gradientTransform="translate(9.85223 -56.1292) scale(19.4481 19.6722)">
<stop stop-color="#B0670B"/>
<stop offset="1"/>
</radialGradient>
<linearGradient id="paint6_linear_160_1080" x1="25.0136" y1="44.8769" x2="25.0136" y2="3.22209" gradientUnits="userSpaceOnUse">
<stop stop-color="#823B00"/>
<stop offset="1" stop-color="#692705"/>
</linearGradient>
<radialGradient id="paint7_radial_160_1080" cx="0" cy="0" r="1" gradientUnits="userSpaceOnUse" gradientTransform="translate(18.1281 4.19318) scale(44.2424 44.7521)">
<stop stop-color="#0AA1FF"/>
<stop offset="1" stop-color="#0056CF"/>
</radialGradient>
<radialGradient id="paint8_radial_160_1080" cx="0" cy="0" r="1" gradientUnits="userSpaceOnUse" gradientTransform="translate(15.8937 4.14298) scale(43.9279 44.434)">
<stop stop-color="#29D1FF"/>
<stop offset="1"/>
</radialGradient>
<radialGradient id="paint9_radial_160_1080" cx="0" cy="0" r="1" gradientUnits="userSpaceOnUse" gradientTransform="translate(21.9847 11.3421) scale(27.4425 27.7587)">
<stop stop-color="#29D1FF"/>
<stop offset="1"/>
</radialGradient>
<radialGradient id="paint10_radial_160_1080" cx="0" cy="0" r="1" gradientUnits="userSpaceOnUse" gradientTransform="translate(18.2441 1.99997) scale(37.3238 37.7538)">
<stop stop-color="#29D1FF"/>
<stop offset="1"/>
</radialGradient>
<radialGradient id="paint11_radial_160_1080" cx="0" cy="0" r="1" gradientUnits="userSpaceOnUse" gradientTransform="translate(34.9445 40.4402) scale(29.5446 29.8849)">
<stop stop-color="#29D1FF"/>
<stop offset="1"/>
</radialGradient>
<radialGradient id="paint12_radial_160_1080" cx="0" cy="0" r="1" gradientUnits="userSpaceOnUse" gradientTransform="translate(20.5116 5.46561) scale(35.5859 35.9959)">
<stop stop-color="#69DFFF"/>
<stop offset="1"/>
</radialGradient>
<radialGradient id="paint13_radial_160_1080" cx="0" cy="0" r="1" gradientUnits="userSpaceOnUse" gradientTransform="translate(35.226 42.3823) scale(25.3239 25.6157)">
<stop stop-color="#29D1FF"/>
<stop offset="1"/>
</radialGradient>
<radialGradient id="paint14_radial_160_1080" cx="0" cy="0" r="1" gradientUnits="userSpaceOnUse" gradientTransform="translate(35.8549 40.3732) scale(15.3764 15.5536)">
<stop stop-color="#29D1FF"/>
<stop offset="1"/>
</radialGradient>
</defs>
</svg>
