<svg width="50" height="50" viewBox="0 0 50 50" fill="none" xmlns="http://www.w3.org/2000/svg">
<path fill-rule="evenodd" clip-rule="evenodd" d="M24.7157 0.0243275C38.288 0.576822 47.9706 9.53393 49.7251 21.2703C49.7582 21.4377 47.7058 20.6173 44.71 21.9734C45.7858 21.94 49.841 22.1744 49.8575 22.3585C49.9734 23.4802 50.023 24.6355 49.9899 25.8074C49.6423 39.7202 39.5128 50 24.6991 50C9.88543 50 0.980691 39.9546 0.0703537 26.5273C0.0703537 26.3432 3.03308 25.7237 3.59584 25.5563C2.80136 25.6065 0.517245 25.4391 0.00414589 24.9201C-0.078612 20.0816 1.08 15.4942 3.26481 11.61C3.38067 11.3923 6.19443 10.4882 7.30339 10.1701C4.52272 10.4882 3.89377 10.5552 4.02618 10.3543C8.21373 3.8583 15.4633 -0.360745 24.6991 0.0243275H24.7157Z" fill="url(#paint0_linear_194_2579)"/>
<path fill-rule="evenodd" clip-rule="evenodd" d="M24.7321 0.308913C38.0561 0.844665 47.5237 9.60087 49.0299 21.0358C47.6726 20.9019 45.9513 21.2535 43.7499 22.1743C45.4382 22.1241 47.1264 22.2413 49.1788 22.4422C49.245 23.2626 49.2616 24.0829 49.245 24.9201C48.914 38.1967 37.9403 48.0244 24.7321 48.0244C12.2191 48.0244 2.33783 38.9166 0.964044 26.611C2.51989 26.1422 4.07575 25.6567 5.6316 25.1712C4.52265 25.3721 1.74198 25.3051 0.831641 24.8029C0.831641 24.7024 0.831641 24.6019 0.831641 24.5015C0.682677 19.8974 1.72542 15.5109 3.76127 11.7774C5.05229 11.2918 7.10468 10.5384 9.19018 9.78504C7.66744 9.93572 6.11159 10.1534 4.58884 10.3543C8.62743 4.04244 15.7115 -0.0761603 24.7487 0.275427L24.7321 0.308913Z" fill="url(#paint1_radial_194_2579)"/>
<path style="mix-blend-mode:multiply" opacity="0.6" fill-rule="evenodd" clip-rule="evenodd" d="M1.01363 20.2657C2.91706 19.7802 4.90325 19.1607 7.0384 18.3738C10.448 17.1181 13.2618 16.2308 16.8204 15.5946C26.0231 13.9539 32.892 10.9905 42.7898 10.7059C43.5181 10.6891 44.2629 10.6891 45.0077 10.7059C44.6601 10.2036 44.2795 9.71806 43.8822 9.24927C41.4988 9.09859 39.2147 9.08186 37.1126 9.26602C27.9761 10.0864 17.3169 12.4973 7.56805 14.0711C5.84669 14.3557 4.07566 14.6738 2.27154 15.0086C1.65913 16.6828 1.22879 18.4575 0.99707 20.2824L1.01363 20.2657Z" fill="url(#paint2_radial_194_2579)"/>
<path style="mix-blend-mode:multiply" opacity="0.6" fill-rule="evenodd" clip-rule="evenodd" d="M15.7946 28.4862C13.9905 29.1894 10.0843 30.579 6.93949 32.2699C5.15191 33.2243 3.97676 34.0614 3.3147 34.8148C4.15883 36.5392 5.20157 38.1465 6.40984 39.5863C7.08845 39.9212 7.86638 40.2727 8.69396 40.6411C11.0277 41.6624 13.4608 42.6669 15.6622 43.7719C17.8801 44.8769 19.9987 46.3502 22.1173 47.8905C22.9614 47.9742 23.8387 48.0244 24.7159 48.0244C26.1062 48.0244 27.48 47.924 28.8041 47.7063C27.331 46.6013 25.7752 45.3959 24.0207 44.1235C21.1242 42.0307 17.2511 39.218 15.9601 37.8284C15.6291 37.4768 15.3808 37.0582 15.2153 36.6229C15.0498 36.1709 14.967 35.7021 14.9836 35.2501C15.0001 34.8148 15.116 34.3795 15.3146 33.9777C15.5132 33.5424 15.8111 33.1405 16.1422 32.8057C17.5822 31.3324 20.429 29.7586 23.6235 28.302C28.2414 26.1925 33.6207 24.3341 36.5668 23.4635C39.4634 22.6097 41.5985 22.2581 43.7336 22.1744C45.935 21.2368 47.6398 20.8852 49.0136 21.0359C48.8977 20.1151 48.7157 19.211 48.5005 18.3404C46.2495 18.1227 44.0316 18.0725 41.9958 18.4241C34.7627 19.6965 23.3752 25.5396 15.778 28.4862H15.7946Z" fill="url(#paint3_radial_194_2579)"/>
<g style="mix-blend-mode:multiply" opacity="0.5">
<path d="M47.6893 32.8224C47.4907 32.8224 47.2921 32.8224 47.0935 32.8224C46.4976 32.8392 45.9183 32.9229 45.3556 33.0401C44.9749 33.1238 44.5942 33.2577 44.2466 33.4419C43.9156 33.6261 43.5845 33.8437 43.27 34.0614C42.939 34.3125 42.6245 34.5804 42.3432 34.8817C42.0783 35.1664 41.8466 35.4677 41.648 35.8026C41.4659 36.1207 41.2838 36.4723 41.1514 36.8406C41.019 37.2257 40.9363 37.6275 40.9528 38.0293C40.9528 38.4144 41.0521 38.8162 41.2011 39.1845C41.3501 39.5361 41.5652 39.8542 41.8301 40.0886C42.0783 40.3062 42.3432 40.4904 42.6245 40.6578C42.8563 40.4067 43.1045 40.1556 43.3197 39.9044C42.9059 39.7203 42.5087 39.5026 42.1611 39.2012C41.8301 38.9166 41.648 38.3809 41.648 37.9456C41.648 37.3931 41.8963 36.8238 42.1611 36.3718C43.1376 34.7478 44.7431 34.1116 46.4976 34.0446C46.7128 34.0446 46.9279 34.0446 47.1597 34.0446C47.3417 33.6428 47.5072 33.241 47.6728 32.8224H47.6893ZM49.1293 26.7115C48.9969 26.7115 48.8645 26.7115 48.7321 26.7115C42.9059 26.745 37.1956 28.4025 32.015 31.9686C30.095 33.2912 29.1516 34.4967 28.986 35.6686C28.8205 36.8238 29.0191 37.9791 30.1446 39.285C32.0977 41.5786 34.0839 43.6714 36.2191 45.3624C35.6398 45.647 35.0605 45.9149 34.4646 46.166C32.346 44.4081 30.3433 42.2818 28.3736 39.9714C26.9998 38.3474 26.2881 36.8406 26.5033 35.3003C26.9005 32.5211 32.6605 29.5242 35.7556 28.2685C41.1845 26.092 45.19 25.2717 49.2286 25.4056C49.2121 25.8577 49.179 26.293 49.1293 26.7283V26.7115ZM49.2286 23.2626C41.3501 22.7436 35.4908 24.1332 24.484 29.1391C21.5544 30.4785 19.204 32.1862 17.9296 33.4921C16.8372 34.5971 16.6716 36.1709 17.7641 37.3429C18.9227 38.5985 22.233 41.2773 24.9309 43.2361C27.033 44.7597 28.6715 46.1828 30.2605 47.4552C29.7805 47.5556 29.3005 47.6561 28.8205 47.7231C27.3474 46.6181 25.7916 45.4126 24.0371 44.1402C21.1406 42.0474 17.2675 39.2347 15.9765 37.8451C15.6455 37.4935 15.3972 37.075 15.2317 36.6397C15.0661 36.1876 14.9834 35.7189 14.9999 35.2668C15.0165 34.8315 15.1323 34.3962 15.331 33.9944C15.5296 33.5591 15.8275 33.1573 16.1585 32.8224C17.5985 31.3491 20.4454 29.7753 23.6399 28.3188C28.2577 26.2092 33.637 24.3509 36.5832 23.4803C41.7639 21.9567 44.5445 22.0069 49.179 22.4757C49.1955 22.7436 49.2121 23.0115 49.2286 23.2961V23.2626ZM48.5169 18.3404C46.2659 18.1227 44.048 18.0725 42.0121 18.4241C34.7791 19.6965 23.3916 25.5396 15.7944 28.4862C13.9903 29.1894 10.0841 30.579 6.93931 32.2699C5.15174 33.2243 3.97659 34.0614 3.31452 34.8148C3.03315 34.2288 2.76832 33.6261 2.52004 33.0066C6.02898 30.579 12.1365 28.302 14.8179 27.2807C18.1282 26.0083 21.4054 24.6522 24.6992 23.3128C29.9295 21.2033 36.3846 18.1562 41.9294 17.6372C43.9652 17.453 46.1335 17.5033 48.3348 17.6874C48.4011 17.9051 48.4507 18.106 48.5003 18.3236L48.5169 18.3404ZM6.40966 39.6031C7.10483 39.9379 7.8662 40.2895 8.71033 40.6578C11.0441 41.6791 13.4772 42.6836 15.6786 43.7886C17.8965 44.8936 20.0151 46.3669 22.1337 47.9072C20.7102 47.7565 19.3365 47.4887 18.0123 47.1203C16.7875 46.4339 15.5461 45.7642 14.2386 45.1113C12.9806 44.4751 11.6565 43.8891 10.2993 43.3031C8.87586 42.2316 7.56828 40.9927 6.42622 39.6198L6.40966 39.6031ZM47.259 14.6906C44.6107 14.6068 41.8797 14.7743 39.0494 15.31C33.5212 16.3648 29.3667 18.2399 23.3088 20.4332C15.993 23.0952 8.57793 25.6065 1.11316 27.8332C1.04695 27.4314 0.997302 27.0296 0.947648 26.6111C8.54483 24.3341 16.0923 21.7558 23.5406 19.0603C29.8798 16.7666 34.3488 15.2263 38.917 14.4897C41.4659 14.0878 44.048 13.9372 46.9776 14.0544C47.0769 14.2553 47.1597 14.4562 47.259 14.6738V14.6906ZM0.9973 20.2657C2.90073 19.7802 4.88692 19.1607 7.02208 18.3739C10.4317 17.1182 13.2455 16.2309 16.8041 15.5946C26.0068 13.9539 32.8757 10.9905 42.7735 10.7059C43.5018 10.6892 44.2466 10.6892 44.9914 10.7059C45.2066 11.0073 45.4052 11.3086 45.6038 11.6267C44.6604 11.5765 43.7169 11.5598 42.7901 11.5932C37.1625 11.7607 31.7832 13.2507 26.3874 14.7575C23.2095 15.6449 20.1806 16.482 16.9365 17.068C13.411 17.7042 10.6634 18.5748 7.28691 19.8137C5.00279 20.6508 2.86763 21.287 0.831787 21.7558C0.86489 21.2535 0.914539 20.768 0.980745 20.2825L0.9973 20.2657ZM2.95039 13.3512C4.39038 13.0498 5.88002 12.7485 7.45242 12.4973C17.2179 10.9236 27.8936 9.1991 37.0466 8.37873C38.9997 8.2113 40.9859 8.16108 42.9887 8.22804C43.3031 8.56289 43.6011 8.89774 43.8825 9.24932C41.499 9.09864 39.2149 9.0819 37.1128 9.26607C27.9764 10.0864 17.3172 12.4973 7.56828 14.0711C5.84692 14.3557 4.07589 14.6738 2.27177 15.0087C2.47039 14.4394 2.70211 13.9037 2.95039 13.3512ZM5.44968 9.09864C7.99862 8.74706 10.531 8.47918 12.9806 8.37873C16.1089 8.26153 19.2537 8.04388 22.3819 7.64207C24.5833 7.35745 26.4702 7.08957 28.1915 6.83844C32.6108 6.20223 36.0867 5.69996 40.1584 5.66648C40.4397 5.88413 40.7377 6.11852 41.0025 6.35291C31.717 6.35291 23.7557 9.4 13.0138 9.55068C10.3821 9.58417 7.36966 9.98598 4.52278 10.3878C4.80416 9.9525 5.10209 9.5172 5.41657 9.09864H5.44968ZM8.13103 6.11852C14.4868 6.13526 19.9489 5.64974 26.4371 4.77914C29.946 4.31036 33.4715 3.84157 37.0135 3.60718C37.5597 3.90854 38.1059 4.22664 38.619 4.56149C34.5805 4.71217 30.5419 5.11398 26.5364 5.63299C19.5185 6.57056 13.7586 7.5751 6.7407 7.49139C7.17104 7.00586 7.63449 6.53707 8.11449 6.10178L8.13103 6.11852ZM12.5503 2.97097C16.0592 2.77007 19.6509 2.40174 23.3916 1.8325C25.4936 1.51439 27.5957 1.19629 29.7143 0.94516C30.5419 1.11258 31.3694 1.33023 32.1474 1.58137C25.6757 2.2678 19.2371 3.48998 12.7655 4.04248C12.0207 4.10945 11.2758 4.15968 10.5145 4.2099C11.16 3.75786 11.8386 3.35605 12.5338 2.98772L12.5503 2.97097ZM39.4632 43.3868C38.2218 42.6167 37.1956 41.7293 36.4177 40.8252C35.226 39.4356 34.6632 37.9958 34.9281 36.7904C34.9612 36.6397 35.0108 36.489 35.0605 36.3551C35.5736 35.1161 36.848 33.76 38.4701 32.6048C40.059 31.4663 41.979 30.5288 43.8494 30.0432C45.3887 29.6414 47.0107 29.5242 48.6659 29.5744C48.6162 29.7921 48.5666 29.993 48.5169 30.1939C48.4838 30.1939 48.4341 30.1939 48.401 30.1939C46.8783 30.1269 45.3886 30.2441 43.9983 30.6292C42.3432 31.0812 40.5225 32.2532 39.1156 33.3414C36.517 35.3338 34.9281 37.2089 37.3611 40.2393C38.0729 41.1433 39.0659 42.0307 40.2577 42.8008C39.9928 43.0017 39.728 43.2026 39.4632 43.3868Z" fill="#B7805C"/>
</g>
<path style="mix-blend-mode:screen" fill-rule="evenodd" clip-rule="evenodd" d="M16.3738 2.46869C16.258 2.40172 16.2083 2.20081 16.2745 2.06687C16.4731 1.61483 17.7476 1.11257 19.0386 0.710754C16.6883 1.14605 14.5035 1.9162 12.5504 2.97096C14.0069 2.88725 15.4635 2.77005 16.9531 2.63611C16.7545 2.61937 16.5393 2.58588 16.3738 2.48543V2.46869ZM15.1821 3.79133C14.3876 3.87504 13.5766 3.95875 12.7821 4.02572C12.0373 4.09269 11.2925 4.14292 10.5311 4.19314C9.68699 4.77912 8.87595 5.41533 8.13113 6.10176C10.3821 6.10176 12.5173 6.05154 14.6193 5.93434C14.1228 5.88411 13.6428 5.83389 13.1463 5.78366C10.8125 5.4823 13.3283 4.31034 14.1725 4.04246C14.5035 3.94201 14.8345 3.8583 15.1656 3.77459L15.1821 3.79133ZM13.5104 7.27372C11.3421 7.44114 9.10767 7.5416 6.75735 7.50811C6.2939 8.01038 5.86357 8.54613 5.44978 9.09863C7.99873 8.74704 10.5311 8.47916 12.9807 8.37871C13.2125 8.37871 13.4442 8.36197 13.6759 8.34523C13.3449 8.31174 13.0139 8.26152 12.6994 8.21129C12.0208 8.07735 12.4677 7.5416 12.9476 7.40766C13.1297 7.35744 13.3118 7.30721 13.5104 7.25698V7.27372ZM9.15733 9.81855C7.07183 10.5552 5.00289 11.3086 3.72842 11.8109C3.44704 12.3131 3.19877 12.8322 2.96704 13.3512C4.40703 13.0498 5.89666 12.7484 7.46906 12.4973C7.65113 12.4638 7.81665 12.4471 7.99871 12.4136C7.17114 12.1792 6.27735 11.7606 7.12148 11.1244C8.64423 9.98597 10.9284 9.75158 12.8814 9.56742C11.7063 9.58416 10.4484 9.68461 9.17389 9.81855H9.15733ZM7.2208 14.1213C5.6153 14.3892 3.97669 14.6906 2.28842 15.0087C1.67602 16.6829 1.24568 18.4576 1.01396 20.2825C2.91739 19.7969 4.90358 19.1775 7.03873 18.3906C7.32011 18.2901 7.60148 18.1897 7.88285 18.0892C6.2277 18.4241 4.22496 18.7087 3.77807 18.2399C2.90083 17.3191 3.94359 15.2933 5.03599 14.858C5.74771 14.5734 6.47598 14.3557 7.2208 14.1548V14.1213ZM6.04564 20.249C4.22497 20.8684 2.50359 21.354 0.848431 21.739C0.782225 22.6599 0.765676 23.5807 0.798779 24.5183C0.798779 24.6187 0.798779 24.7192 0.798779 24.8196C1.70912 25.3219 4.48978 25.3889 5.59874 25.188C6.17805 25.0038 6.7408 24.8196 7.32011 24.6355C5.35047 24.8531 2.20567 25.054 1.89119 23.8988C1.56016 22.7268 3.82773 21.354 6.04564 20.249ZM6.21115 26.2762C4.52289 26.812 2.81808 27.331 1.11326 27.85C1.39464 29.6581 1.87463 31.3993 2.52014 33.0401C3.87737 32.1025 5.59874 31.1984 7.36976 30.3781C6.52563 30.6292 5.7146 30.7799 4.95323 30.7296C3.66221 30.6292 3.0167 29.0052 3.91048 27.8165C4.34083 27.2472 5.21805 26.745 6.1946 26.2929L6.21115 26.2762ZM6.93941 32.2867C5.15184 33.241 3.97669 34.0781 3.31463 34.8315C4.15876 36.556 5.2015 38.1632 6.40976 39.603C7.08838 39.9379 7.86631 40.2895 8.69389 40.6578C10.0511 41.2605 11.4414 41.8465 12.7987 42.4492C11.1435 41.5117 9.02492 40.3062 8.2801 39.5696C6.98908 38.3139 5.23461 35.3505 6.1946 33.5256C6.52563 32.8894 7.05527 32.4206 7.58493 31.9351C7.36975 32.0523 7.13804 32.1695 6.92287 32.2867H6.93941Z" fill="url(#paint4_radial_194_2579)"/>
<path style="mix-blend-mode:screen" fill-rule="evenodd" clip-rule="evenodd" d="M2.90063 35.1998C7.86611 44.5755 14.2219 47.6226 25.1128 48.6941C15.4467 50.7032 6.14475 44.8099 2.90063 35.1998Z" fill="url(#paint5_radial_194_2579)"/>
<g style="mix-blend-mode:screen" opacity="0.65">
<path fill-rule="evenodd" clip-rule="evenodd" d="M5.20137 10.3041C9.32272 4.528 16.142 0.827962 24.7322 1.16281C26.5529 1.22978 28.2577 1.44743 29.9294 1.81576C30.7239 2.23431 31.6839 2.75332 31.9653 2.83703C32.8425 3.10491 34.448 3.18862 35.5735 3.70763C40.0259 5.76693 43.5348 8.94796 45.9183 12.8824C45.9845 12.9996 46.0672 13.2172 46.0176 13.3344C45.9514 13.4684 45.7859 13.4851 45.6369 13.5019C45.4714 13.5353 45.2562 13.5353 45.0245 13.5186C44.0811 13.4684 43.1376 13.2842 42.1942 13.3344C40.7211 13.3847 39.2314 13.4851 37.808 13.8367C34.0342 14.7575 28.6715 16.9508 24.4343 18.7589C30.3267 16.6327 34.597 15.1928 38.9666 14.5064C41.3997 14.1213 43.8493 13.9706 46.5969 14.0544C47.739 16.2141 48.5334 18.558 48.9472 21.0359C48.9969 21.0359 49.03 21.0359 49.0796 21.0359C47.5734 9.60091 38.1059 0.844701 24.7819 0.308948C15.7447 -0.0593817 8.66066 4.07596 4.62207 10.3878C4.83724 10.3543 5.03586 10.3376 5.25103 10.3041H5.20137Z" fill="#CA9E67"/>
</g>
<g style="mix-blend-mode:screen" opacity="0.5">
<path fill-rule="evenodd" clip-rule="evenodd" d="M28.357 21.3372C23.2095 23.5639 17.9792 25.7237 12.8647 28.0509C13.6261 27.7495 14.3047 27.4984 14.8344 27.2975C18.1447 26.025 21.4219 24.6689 24.7157 23.3295C27.7612 22.1073 31.2204 20.5503 34.6632 19.3784C32.4784 19.7467 31.1046 20.1652 28.357 21.3372Z" fill="#CA9E67"/>
</g>
<g style="mix-blend-mode:screen" opacity="0.5">
<path fill-rule="evenodd" clip-rule="evenodd" d="M23.6399 28.302C28.2578 26.1925 33.6371 24.3341 36.5832 23.4635C37.626 23.1621 38.586 22.911 39.4632 22.7268C34.9115 23.4467 31.4688 24.4345 26.5695 26.5273C24.1861 27.5486 21.8192 28.6201 19.5682 29.9092C17.2675 31.2319 15.8276 32.4541 15.3145 34.0446C15.3145 34.0446 15.3144 34.0111 15.331 33.9944C15.5296 33.5591 15.8275 33.1572 16.1586 32.8224C17.5986 31.3491 20.4454 29.7753 23.6399 28.3187V28.302Z" fill="#CA9E67"/>
</g>
<g style="mix-blend-mode:screen" opacity="0.5">
<path fill-rule="evenodd" clip-rule="evenodd" d="M18.426 14.858C15.7281 15.4105 14.106 15.9127 11.8716 16.7498C13.444 16.2978 15.0495 15.9127 16.8205 15.5946C24.2191 14.272 30.0949 12.1122 37.2617 11.1579C33.7031 11.3421 31.4521 11.61 27.3308 12.7484C26.0894 13.1 24.8977 13.6023 23.6563 13.8869C21.9349 14.2887 20.1639 14.5064 18.426 14.858Z" fill="#CA9E67"/>
</g>
<g style="mix-blend-mode:screen" opacity="0.65">
<path fill-rule="evenodd" clip-rule="evenodd" d="M42.4591 35.2165C38.8012 41.0428 32.4289 44.8768 25.0469 44.8768C17.6649 44.8768 11.0608 40.9759 7.41943 35.0659C10.8456 41.4781 16.589 45.2954 25.0965 45.4963C32.462 45.6637 38.6192 41.9302 42.4591 35.2165Z" fill="#CA9E67"/>
</g>
<g style="mix-blend-mode:screen" opacity="0.65">
<path fill-rule="evenodd" clip-rule="evenodd" d="M11.6729 11.8109C12.4674 11.6769 13.2784 11.5597 14.0729 11.4258C13.2784 11.3421 12.9805 11.2584 13.3777 10.7393C13.6922 10.304 14.0895 9.90224 14.5529 9.51716C15.1157 9.04838 15.7612 8.61308 16.4729 8.21127C17.6811 7.52484 19.0384 6.9556 20.346 6.50356C20.8425 6.33613 21.339 6.18545 21.819 6.05151C21.0742 6.18545 20.346 6.36962 19.6342 6.60401C18.3598 7.02257 17.1515 7.57506 16.0094 8.24475C15.3474 8.62983 14.7184 9.06513 14.1226 9.53391C13.2453 10.2203 12.4343 10.9737 11.6895 11.8109H11.6729ZM8.97501 15.9964C9.91845 14.3557 10.1998 13.8869 11.4246 13.4181C11.044 13.4851 10.6633 13.5521 10.266 13.619C9.57086 14.6403 8.95846 15.7285 8.46191 16.8838C8.62743 16.5824 8.79294 16.2978 8.97501 15.9964Z" fill="#CA9E67"/>
</g>
<path opacity="0.75" fill-rule="evenodd" clip-rule="evenodd" d="M6.97223 24.1667C6.97223 14.0878 15.0494 5.75017 25.0134 5.75017C34.9775 5.75017 43.0547 14.0878 43.0547 24.1667C43.0547 34.2455 35.474 42.2483 25.0134 42.4157C14.5528 42.5832 6.97223 34.2455 6.97223 24.1667ZM45.5871 21.5046C44.4616 11.2919 35.5402 3.59042 25.0134 3.23883C13.5928 2.85376 4.32397 12.6145 4.32397 24.1667C4.32397 24.535 4.32397 24.9201 4.35707 25.2884C4.85362 25.2884 5.30052 25.2382 5.615 25.1879C5.20121 25.3219 4.78742 25.4558 4.37363 25.573C5.08535 36.4555 14.0563 44.8769 25.0134 44.8769C35.9706 44.8769 45.4546 35.6686 45.7029 24.1667C45.7029 23.497 45.7029 22.844 45.6533 22.1911C45.0078 22.1743 44.3788 22.1576 43.7498 22.1911C44.3954 21.9232 45.0078 21.6888 45.5871 21.5214V21.5046Z" fill="url(#paint6_linear_194_2579)"/>
<g style="mix-blend-mode:multiply" opacity="0.5">
<path fill-rule="evenodd" clip-rule="evenodd" d="M4.34058 24.7359C4.6385 13.4349 13.7915 4.00898 25.0301 4.37731C35.1927 4.71215 43.8327 11.8778 45.4547 21.5549C45.5044 21.5549 45.554 21.5214 45.6037 21.5047C44.4782 11.2919 35.5569 3.59042 25.0301 3.23883C13.6095 2.85376 4.34058 12.6145 4.34058 24.1667C4.34058 24.3508 4.34058 24.5517 4.34058 24.7359Z" fill="#683C11"/>
</g>
<g style="mix-blend-mode:multiply" opacity="0.5">
<path fill-rule="evenodd" clip-rule="evenodd" d="M43.0549 24.7359C42.7735 34.5469 35.2922 42.2483 25.0136 42.4158C14.7516 42.5832 7.25379 34.5636 6.97241 24.7359C6.97241 24.9201 6.97241 25.1043 6.97241 25.2884C6.97241 35.3673 14.553 43.7049 25.0136 43.5375C35.4742 43.3701 43.0549 35.3673 43.0549 25.2884C43.0549 25.1043 43.0549 24.9201 43.0549 24.7359Z" fill="#683C11"/>
</g>
<path fill-rule="evenodd" clip-rule="evenodd" d="M25.0136 5.75021C15.0496 5.75021 6.97241 14.0879 6.97241 24.1667C6.97241 34.2456 14.553 42.5832 25.0136 42.4158C35.4742 42.2484 43.0549 34.2456 43.0549 24.1667C43.0549 14.0879 34.9777 5.75021 25.0136 5.75021Z" fill="url(#paint7_radial_194_2579)"/>
<path style="mix-blend-mode:screen" fill-rule="evenodd" clip-rule="evenodd" d="M25.0137 6.55386C15.811 6.55386 8.36279 13.9874 8.36279 22.978C8.36279 31.9686 15.3641 39.4022 25.0137 39.2515C34.6798 39.1008 41.6646 31.9686 41.6646 22.978C41.6646 13.9874 34.1998 6.55386 25.0137 6.55386Z" fill="url(#paint8_radial_194_2579)"/>
<path style="mix-blend-mode:screen" fill-rule="evenodd" clip-rule="evenodd" d="M25.0137 8.01044C16.6386 8.01044 9.83594 14.8413 9.83594 23.0952C9.83594 31.3492 16.2083 38.18 25.0137 38.0461C33.8192 37.9121 40.1915 31.3492 40.1915 23.0952C40.1915 14.8413 33.3888 8.01044 25.0137 8.01044Z" fill="url(#paint9_radial_194_2579)"/>
<path style="mix-blend-mode:screen" fill-rule="evenodd" clip-rule="evenodd" d="M9.67041 18.4409C7.43595 24.0328 9.5049 26.4437 15.5628 25.6735C22.68 24.7695 31.2206 21.0359 35.3088 16.4485C36.0702 15.5947 36.335 14.2051 36.1033 13.0666C35.8385 11.7775 34.9612 10.572 33.935 9.76839C30.6578 7.19008 26.0565 6.77152 22.051 7.30727C16.0593 8.1109 11.8221 13.0164 9.67041 18.4409Z" fill="url(#paint10_radial_194_2579)"/>
<path style="mix-blend-mode:screen" fill-rule="evenodd" clip-rule="evenodd" d="M10.2661 33.0736C18.2109 46.8692 39.099 43.8389 41.8134 27.9505C39.1486 36.4388 32.1639 40.1054 25.3281 40.3398C19.9984 40.5239 14.2881 38.2805 10.2661 33.0736Z" fill="url(#paint11_radial_194_2579)"/>
<path style="mix-blend-mode:screen" fill-rule="evenodd" clip-rule="evenodd" d="M14.4372 11.543C11.3751 14.9752 12.2689 17.7712 17.2013 16.2811C21.1737 15.0757 24.153 14.0544 27.546 11.7607C29.7308 10.2706 28.6715 7.65884 24.4012 7.49142C21.2895 7.35748 16.5889 9.13216 14.4206 11.5598L14.4372 11.543Z" fill="url(#paint12_radial_194_2579)"/>
<path style="mix-blend-mode:screen" fill-rule="evenodd" clip-rule="evenodd" d="M17.4332 33.76C14.9008 34.413 16.6388 36.6899 18.1781 37.4768C22.7628 39.8375 28.9862 39.2515 33.7365 36.5058C36.6496 34.8148 38.9172 32.0691 40.2248 28.9383C41.5654 25.707 39.9931 21.6386 37.2124 24.3676C34.1834 27.3477 31.7338 29.022 28.6883 30.2944C24.5835 31.9853 21.1408 32.8057 17.4332 33.76Z" fill="url(#paint13_radial_194_2579)"/>
<path style="mix-blend-mode:screen" fill-rule="evenodd" clip-rule="evenodd" d="M28.6053 38.2135C31.8659 37.5605 35.7887 35.7858 38.0728 32.2867C38.8176 31.1482 39.1156 28.8713 37.4107 30.4618C33.9349 33.7098 32.0646 34.8148 27.6287 36.3551C24.7984 37.3429 23.524 37.4768 23.5074 37.9121C23.4909 38.4646 25.626 38.7995 28.6053 38.2135Z" fill="url(#paint14_radial_194_2579)"/>
<defs>
<linearGradient id="paint0_linear_194_2579" x1="25.0136" y1="-56.9664" x2="25.0136" y2="-56.9664" gradientUnits="userSpaceOnUse">
<stop stop-color="#692705"/>
<stop offset="1" stop-color="#823B00"/>
</linearGradient>
<radialGradient id="paint1_radial_194_2579" cx="0" cy="0" r="1" gradientUnits="userSpaceOnUse" gradientTransform="translate(10.4316 -56.1293) scale(51.492 52.0852)">
<stop stop-color="#F59547"/>
<stop offset="1" stop-color="#A14C1F"/>
</radialGradient>
<radialGradient id="paint2_radial_194_2579" cx="0" cy="0" r="1" gradientUnits="userSpaceOnUse" gradientTransform="translate(13.4935 -56.1293) scale(52.4851 53.0897)">
<stop stop-color="#CFA04D"/>
<stop offset="1" stop-color="white"/>
</radialGradient>
<radialGradient id="paint3_radial_194_2579" cx="0" cy="0" r="1" gradientUnits="userSpaceOnUse" gradientTransform="translate(21.7201 49.2968) scale(64.6505 65.3953)">
<stop stop-color="#CFA04D"/>
<stop offset="1" stop-color="white"/>
</radialGradient>
<radialGradient id="paint4_radial_194_2579" cx="0" cy="0" r="1" gradientUnits="userSpaceOnUse" gradientTransform="translate(37.4274 -56.1293) scale(44.8052 45.3213)">
<stop offset="0.35"/>
<stop offset="1" stop-color="#CA9E67"/>
</radialGradient>
<radialGradient id="paint5_radial_194_2579" cx="0" cy="0" r="1" gradientUnits="userSpaceOnUse" gradientTransform="translate(9.85229 -56.1293) scale(19.4481 19.6722)">
<stop stop-color="#B0670B"/>
<stop offset="1"/>
</radialGradient>
<linearGradient id="paint6_linear_194_2579" x1="25.0134" y1="44.8769" x2="25.0134" y2="3.22209" gradientUnits="userSpaceOnUse">
<stop stop-color="#823B00"/>
<stop offset="1" stop-color="#692705"/>
</linearGradient>
<radialGradient id="paint7_radial_194_2579" cx="0" cy="0" r="1" gradientUnits="userSpaceOnUse" gradientTransform="translate(18.1282 4.19318) scale(44.2424 44.7521)">
<stop stop-color="#0AA1FF"/>
<stop offset="1" stop-color="#0056CF"/>
</radialGradient>
<radialGradient id="paint8_radial_194_2579" cx="0" cy="0" r="1" gradientUnits="userSpaceOnUse" gradientTransform="translate(15.8938 4.14298) scale(43.9279 44.434)">
<stop stop-color="#29D1FF"/>
<stop offset="1"/>
</radialGradient>
<radialGradient id="paint9_radial_194_2579" cx="0" cy="0" r="1" gradientUnits="userSpaceOnUse" gradientTransform="translate(21.9848 11.3421) scale(27.4425 27.7587)">
<stop stop-color="#29D1FF"/>
<stop offset="1"/>
</radialGradient>
<radialGradient id="paint10_radial_194_2579" cx="0" cy="0" r="1" gradientUnits="userSpaceOnUse" gradientTransform="translate(18.2441 1.99997) scale(37.3238 37.7538)">
<stop stop-color="#29D1FF"/>
<stop offset="1"/>
</radialGradient>
<radialGradient id="paint11_radial_194_2579" cx="0" cy="0" r="1" gradientUnits="userSpaceOnUse" gradientTransform="translate(34.9445 40.4402) scale(29.5446 29.8849)">
<stop stop-color="#29D1FF"/>
<stop offset="1"/>
</radialGradient>
<radialGradient id="paint12_radial_194_2579" cx="0" cy="0" r="1" gradientUnits="userSpaceOnUse" gradientTransform="translate(20.5116 5.46561) scale(35.5859 35.9959)">
<stop stop-color="#69DFFF"/>
<stop offset="1"/>
</radialGradient>
<radialGradient id="paint13_radial_194_2579" cx="0" cy="0" r="1" gradientUnits="userSpaceOnUse" gradientTransform="translate(35.2262 42.3823) scale(25.3239 25.6157)">
<stop stop-color="#29D1FF"/>
<stop offset="1"/>
</radialGradient>
<radialGradient id="paint14_radial_194_2579" cx="0" cy="0" r="1" gradientUnits="userSpaceOnUse" gradientTransform="translate(35.8549 40.3732) scale(15.3764 15.5536)">
<stop stop-color="#29D1FF"/>
<stop offset="1"/>
</radialGradient>
</defs>
</svg>
